<svg width="17" height="11" viewBox="0 0 17 11" fill="none" xmlns="http://www.w3.org/2000/svg">
<path d="M6.94444 4.97918C7.82778 4.55696 8.28889 3.91807 8.28889 2.92363C8.28889 0.962519 6.82778 0.484741 5.14167 0.484741H0.5V10.3292H5.27222C7.06111 10.3292 8.74167 9.47085 8.74167 7.47085C8.74167 6.23474 8.15556 5.32085 6.94444 4.97918ZM2.66389 2.1653H4.69444C5.475 2.1653 6.17778 2.38474 6.17778 3.2903C6.17778 4.12641 5.63056 4.46252 4.85833 4.46252H2.66389V2.1653ZM4.97778 8.65696H2.66389V5.94585H5.02222C5.975 5.94585 6.57778 6.34307 6.57778 7.35141C6.57778 8.34585 5.85833 8.65696 4.97778 8.65696ZM14.9361 1.97085H10.9444V1.00141H14.9361V1.97085ZM16.5 6.86807C16.5 4.75974 15.2667 3.00141 13.0306 3.00141C10.8583 3.00141 9.38333 4.63474 9.38333 6.77363C9.38333 8.99307 10.7806 10.5153 13.0306 10.5153C14.7333 10.5153 15.8361 9.74863 16.3667 8.11807H14.6389C14.4528 8.72641 13.6861 9.04863 13.0917 9.04863C11.9444 9.04863 11.3417 8.37641 11.3417 7.23474H16.4833C16.4917 7.11807 16.5 6.99307 16.5 6.86807ZM11.3444 6.00141C11.4083 5.0653 12.0306 4.47918 12.9694 4.47918C13.9528 4.47918 14.4472 5.05696 14.5306 6.00141H11.3444Z" fill="#FDFFF5"/>
</svg>
