<svg width="232" height="27" viewBox="0 0 232 27" fill="none" xmlns="http://www.w3.org/2000/svg">
<circle cx="228" cy="4" r="4" transform="rotate(90 228 4)" fill="#DBDCD6"/>
<circle cx="200" cy="4" r="4" transform="rotate(90 200 4)" fill="#DBDCD6"/>
<circle cx="172" cy="4" r="4" transform="rotate(90 172 4)" fill="#DBDCD6"/>
<circle cx="144" cy="4" r="4" transform="rotate(90 144 4)" fill="#DBDCD6"/>
<circle cx="116" cy="4" r="4" transform="rotate(90 116 4)" fill="#DBDCD6"/>
<circle cx="88" cy="4" r="4" transform="rotate(90 88 4)" fill="#DBDCD6"/>
<circle cx="60" cy="4" r="4" transform="rotate(90 60 4)" fill="#DBDCD6"/>
<circle cx="32" cy="4" r="4" transform="rotate(90 32 4)" fill="#DBDCD6"/>
<circle cx="4" cy="4" r="4" transform="rotate(90 4 4)" fill="#DBDCD6"/>
<circle cx="228" cy="23" r="4" transform="rotate(90 228 23)" fill="#DBDCD6"/>
<circle cx="200" cy="23" r="4" transform="rotate(90 200 23)" fill="#DBDCD6"/>
<circle cx="172" cy="23" r="4" transform="rotate(90 172 23)" fill="#DBDCD6"/>
<circle cx="144" cy="23" r="4" transform="rotate(90 144 23)" fill="#DBDCD6"/>
<circle cx="116" cy="23" r="4" transform="rotate(90 116 23)" fill="#DBDCD6"/>
<circle cx="88" cy="23" r="4" transform="rotate(90 88 23)" fill="#DBDCD6"/>
<circle cx="60" cy="23" r="4" transform="rotate(90 60 23)" fill="#DBDCD6"/>
<circle cx="32" cy="23" r="4" transform="rotate(90 32 23)" fill="#DBDCD6"/>
<circle cx="4" cy="23" r="4" transform="rotate(90 4 23)" fill="#DBDCD6"/>
</svg>
