<svg width="449" height="382" viewBox="0 0 449 382" fill="none" xmlns="http://www.w3.org/2000/svg">
<g clip-path="url(#clip0_217_1803)">
<path d="M210.896 382C308.83 382 388.22 377.869 388.22 372.773C388.22 367.677 308.83 363.546 210.896 363.546C112.963 363.546 33.5725 367.677 33.5725 372.773C33.5725 377.869 112.963 382 210.896 382Z" fill="#F2F2F2"/>
<path d="M267.839 165.371C267.058 165.786 266.263 166.179 265.456 166.55C264.72 166.888 263.973 167.206 263.214 167.503C262.937 167.611 262.655 167.719 262.373 167.826C260.142 168.649 257.852 169.292 255.522 169.749C254.368 169.979 253.199 170.16 252.015 170.292C251.038 170.405 250.051 170.485 249.053 170.533C248.343 170.569 247.633 170.584 246.917 170.584C244.085 170.585 241.258 170.316 238.474 169.779C237.749 169.646 237.039 169.487 236.328 169.313C232.892 168.475 229.566 167.226 226.419 165.591C226.137 165.448 225.855 165.294 225.573 165.145C225.155 164.92 224.747 164.684 224.339 164.438C224.535 164.161 224.747 163.889 224.963 163.623C227.321 160.65 230.267 158.216 233.611 156.48C236.954 154.744 240.619 153.744 244.368 153.545C248.117 153.347 251.864 153.955 255.367 155.329C258.869 156.703 262.048 158.813 264.695 161.521C265.614 162.459 266.466 163.463 267.244 164.525C267.451 164.802 267.647 165.084 267.839 165.371Z" fill="#5D61A3"/>
<path d="M247.923 142.853C260.139 142.853 270.043 132.775 270.043 120.344C270.043 107.913 260.139 97.835 247.923 97.835C235.706 97.835 225.803 107.913 225.803 120.344C225.803 132.775 235.706 142.853 247.923 142.853Z" fill="#2F2E41"/>
<path d="M253.806 142.885C261.784 138.447 264.716 128.268 260.355 120.149C255.994 112.031 245.991 109.047 238.012 113.485C230.034 117.923 227.102 128.102 231.463 136.22C235.825 144.339 245.828 147.322 253.806 142.885Z" fill="#FFB8B8"/>
<path d="M263.208 117.647C259.446 120.286 254.981 121.69 250.412 121.672C252.042 122.822 253.897 123.598 255.85 123.948C249.776 125.274 243.497 125.31 237.408 124.054C236.054 123.833 234.748 123.377 233.547 122.704C232.948 122.364 232.427 121.9 232.016 121.341C231.606 120.782 231.315 120.142 231.164 119.461C230.759 117.109 232.56 114.972 234.432 113.532C237.298 111.36 240.603 109.864 244.106 109.152C247.61 108.439 251.226 108.528 254.692 109.412C256.955 110.008 259.222 111.013 260.692 112.863C262.162 114.712 262.597 117.563 261.197 119.468L263.208 117.647Z" fill="#2F2E41"/>
<path d="M246.917 78.313C237.03 78.3115 227.413 81.5998 219.532 87.6766C211.651 93.7535 205.939 102.286 203.266 111.973C200.594 121.66 201.107 131.97 204.727 141.333C208.348 150.696 214.878 158.597 223.321 163.833L223.613 164.007C223.855 164.156 224.097 164.3 224.339 164.438C224.747 164.684 225.155 164.92 225.573 165.145C225.855 165.294 226.137 165.448 226.419 165.591C229.566 167.226 232.892 168.475 236.328 169.313C237.039 169.487 237.749 169.646 238.474 169.779C241.258 170.316 244.085 170.585 246.917 170.584C247.633 170.584 248.343 170.569 249.053 170.533C250.051 170.487 251.038 170.407 252.016 170.292C253.199 170.159 254.368 169.978 255.522 169.749C257.852 169.292 260.142 168.649 262.373 167.826C262.655 167.719 262.937 167.611 263.214 167.503C263.975 167.206 264.722 166.888 265.456 166.55C266.262 166.181 267.056 165.788 267.839 165.371C275.681 161.192 282.163 154.786 286.498 146.932C286.518 146.891 286.543 146.85 286.564 146.809C288.876 142.586 290.517 138.016 291.425 133.271C292.699 126.59 292.506 119.705 290.859 113.109C289.213 106.513 286.153 100.369 281.9 95.1176C277.647 89.8657 272.305 85.6357 266.257 82.7306C260.21 79.8254 253.605 78.3168 246.917 78.313ZM285.737 146.209C285.697 146.281 285.662 146.353 285.621 146.419C281.373 154.158 274.982 160.454 267.244 164.525C266.473 164.935 265.689 165.32 264.892 165.678C264.232 165.981 263.557 166.268 262.877 166.535C262.589 166.647 262.297 166.76 262.005 166.863C260.078 167.579 258.103 168.154 256.096 168.585C254.607 168.908 253.102 169.149 251.587 169.308C250.655 169.41 249.708 169.482 248.756 169.518C248.146 169.544 247.532 169.559 246.917 169.559C244.176 169.562 241.44 169.303 238.746 168.785C237.108 168.477 235.488 168.073 233.895 167.575C231.469 166.812 229.111 165.84 226.848 164.669C226.586 164.53 226.324 164.392 226.067 164.248C225.699 164.048 225.326 163.843 224.963 163.623C224.691 163.469 224.419 163.305 224.152 163.141C223.996 163.049 223.84 162.951 223.684 162.854C216.281 158.228 210.376 151.492 206.701 143.481C203.025 135.471 201.742 126.539 203.011 117.793C204.279 109.048 208.042 100.874 213.834 94.2849C219.626 87.6961 227.192 82.9826 235.593 80.7293C243.993 78.476 252.859 78.782 261.09 81.6094C269.321 84.4367 276.556 89.6609 281.896 96.634C287.236 103.607 290.446 112.022 291.129 120.835C291.812 129.648 289.937 138.471 285.737 146.209Z" fill="#3F3D56"/>
<path d="M236.721 98.1457C236.483 95.599 233.417 94.0312 231.019 94.8004C228.622 95.5697 227.048 98.0263 226.572 100.538C226.343 101.596 226.321 102.69 226.509 103.756C226.696 104.822 227.088 105.841 227.663 106.752C228.875 108.527 231.102 109.635 233.179 109.184C235.55 108.67 237.193 106.314 237.663 103.893C238.133 101.473 237.666 98.9778 237.2 96.5567L236.721 98.1457Z" fill="#2F2E41"/>
<path d="M270.464 101.784C270.226 99.2372 267.16 97.6694 264.763 98.4386C262.365 99.2079 260.791 101.664 260.315 104.176C260.086 105.234 260.065 106.328 260.252 107.394C260.439 108.46 260.831 109.479 261.406 110.391C262.618 112.165 264.845 113.273 266.922 112.822C269.293 112.308 270.936 109.952 271.406 107.532C271.876 105.111 271.409 102.616 270.943 100.195L270.464 101.784Z" fill="#2F2E41"/>
<path d="M167.257 141.803L167.256 141.801L142.258 114.051L142.258 114.051C141.928 113.686 141.527 113.393 141.079 113.193C140.632 112.992 140.148 112.888 139.658 112.888H139.657H7.56167C5.69228 112.886 3.89826 112.129 2.5737 110.781C1.24891 109.433 0.502177 107.604 0.5 105.694V57.2197C0.502175 55.3096 1.24891 53.48 2.5737 52.1319C3.89819 50.7841 5.6921 50.0276 7.56138 50.0254H178.701C180.571 50.0276 182.364 50.7841 183.689 52.1319C185.014 53.48 185.761 55.3097 185.763 57.22V105.693C185.761 107.604 185.014 109.433 183.689 110.781C182.364 112.129 180.57 112.886 178.701 112.888H173.85H173.849C172.912 112.889 172.015 113.268 171.355 113.94C170.695 114.611 170.326 115.52 170.325 116.466V116.466V140.576L170.325 140.578C170.326 140.944 170.218 141.301 170.016 141.602C169.814 141.902 169.528 142.132 169.197 142.261L169.194 142.262C168.989 142.344 168.77 142.386 168.55 142.386C168.308 142.386 168.068 142.334 167.845 142.234C167.623 142.134 167.422 141.987 167.257 141.803Z" fill="white" stroke="#191919"/>
<path d="M168.55 142.886C168.237 142.886 167.927 142.819 167.64 142.69C167.353 142.561 167.096 142.372 166.885 142.136L141.887 114.386C141.603 114.072 141.259 113.821 140.875 113.649C140.491 113.477 140.076 113.388 139.657 113.388H7.56109C5.55646 113.386 3.63457 112.574 2.21708 111.132C0.799584 109.689 0.0022507 107.734 0 105.694V57.2194C0.00224936 55.1795 0.799584 53.2239 2.21708 51.7814C3.63457 50.339 5.55646 49.5277 7.56109 49.5254H178.702C180.706 49.5277 182.628 50.339 184.046 51.7814C185.463 53.2239 186.26 55.1795 186.263 57.2194V105.694C186.26 107.734 185.463 109.689 184.046 111.132C182.628 112.574 180.706 113.386 178.702 113.388H173.85C173.048 113.389 172.279 113.713 171.712 114.291C171.145 114.868 170.826 115.65 170.825 116.466V140.576C170.827 141.042 170.689 141.497 170.431 141.881C170.173 142.265 169.806 142.56 169.379 142.727C169.115 142.832 168.834 142.886 168.55 142.886ZM7.56109 50.5506C5.82358 50.5526 4.15779 51.2559 2.92918 52.5061C1.70057 53.7563 1.00948 55.4514 1.00752 57.2194V105.694C1.00949 107.462 1.70058 109.157 2.92919 110.407C4.1578 111.657 5.82358 112.361 7.56109 112.363H139.657C140.216 112.363 140.769 112.482 141.28 112.711C141.792 112.94 142.251 113.274 142.63 113.693L167.627 141.443C167.799 141.633 168.023 141.767 168.27 141.825C168.518 141.884 168.777 141.865 169.014 141.772C169.25 141.678 169.454 141.514 169.597 141.3C169.74 141.087 169.817 140.835 169.817 140.576V116.466C169.818 115.378 170.244 114.335 171 113.566C171.756 112.797 172.781 112.364 173.85 112.363H178.702C180.439 112.361 182.105 111.657 183.333 110.407C184.562 109.157 185.253 107.462 185.255 105.694V57.2194C185.253 55.4514 184.562 53.7563 183.333 52.5061C182.105 51.2559 180.439 50.5526 178.702 50.5506H7.56109Z" fill="#3F3D56"/>
<path d="M18.5464 70.909C22.2005 70.909 25.1627 67.8947 25.1627 64.1764C25.1627 60.4581 22.2005 57.4438 18.5464 57.4438C14.8924 57.4438 11.9302 60.4581 11.9302 64.1764C11.9302 67.8947 14.8924 70.909 18.5464 70.909Z" fill="#5D61A3"/>
<path d="M170.983 101.43H15.28C14.8162 101.431 14.3569 101.338 13.9283 101.158C13.4997 100.978 13.1102 100.713 12.7821 100.38C12.454 100.046 12.1937 99.6503 12.0161 99.2143C11.8385 98.7784 11.7471 98.3111 11.7471 97.8392C11.7471 97.3673 11.8385 96.9001 12.0161 96.4641C12.1937 96.0282 12.454 95.6322 12.7821 95.2987C13.1102 94.9652 13.4997 94.7008 13.9283 94.5206C14.3569 94.3404 14.8162 94.248 15.28 94.2485H170.983C171.918 94.2497 172.814 94.6285 173.475 95.3017C174.136 95.975 174.507 96.8877 174.507 97.8392C174.507 98.7908 174.136 99.7035 173.475 100.377C172.814 101.05 171.918 101.429 170.983 101.43Z" fill="#DBDCD6"/>
<path d="M120.258 86.1697H15.28C14.8162 86.1703 14.3569 86.0778 13.9283 85.8976C13.4997 85.7174 13.1102 85.453 12.7821 85.1195C12.454 84.786 12.1937 84.39 12.0161 83.9541C11.8385 83.5182 11.7471 83.0509 11.7471 82.579C11.7471 82.1071 11.8385 81.6398 12.0161 81.2039C12.1937 80.768 12.454 80.3719 12.7821 80.0385C13.1102 79.705 13.4997 79.4406 13.9283 79.2604C14.3569 79.0802 14.8162 78.9877 15.28 78.9883H120.258C121.194 78.9883 122.091 79.3666 122.753 80.04C123.415 80.7134 123.787 81.6267 123.787 82.579C123.787 83.5313 123.415 84.4446 122.753 85.118C122.091 85.7914 121.194 86.1697 120.258 86.1697Z" fill="#DBDCD6"/>
<path d="M279.621 307.277C279.194 307.11 278.827 306.815 278.569 306.431C278.31 306.047 278.173 305.592 278.175 305.126V281.016C278.174 280.2 277.855 279.418 277.288 278.841C276.721 278.264 275.952 277.939 275.15 277.938H270.298C268.294 277.936 266.372 277.125 264.954 275.682C263.537 274.24 262.74 272.284 262.737 270.244V221.77C262.74 219.73 263.537 217.774 264.954 216.332C266.372 214.889 268.294 214.078 270.298 214.076H441.439C443.443 214.078 445.365 214.889 446.783 216.332C448.2 217.774 448.998 219.73 449 221.77V270.244C448.998 272.284 448.2 274.24 446.783 275.682C445.365 277.125 443.443 277.936 441.439 277.938H309.343C308.923 277.939 308.509 278.028 308.125 278.199C307.741 278.371 307.397 278.622 307.113 278.936L282.115 306.686C281.904 306.922 281.647 307.111 281.36 307.24C281.073 307.369 280.763 307.436 280.449 307.437C280.166 307.436 279.885 307.382 279.621 307.277Z" fill="white"/>
<path d="M279.621 307.277C279.194 307.11 278.827 306.815 278.569 306.431C278.31 306.047 278.173 305.592 278.175 305.126V281.016C278.174 280.2 277.855 279.418 277.288 278.841C276.721 278.264 275.952 277.939 275.15 277.938H270.298C268.294 277.936 266.372 277.125 264.954 275.682C263.537 274.24 262.74 272.284 262.737 270.244V221.77C262.74 219.73 263.537 217.774 264.954 216.332C266.372 214.889 268.294 214.078 270.298 214.076H441.439C443.443 214.078 445.365 214.889 446.783 216.332C448.2 217.774 448.998 219.73 449 221.77V270.244C448.998 272.284 448.2 274.24 446.783 275.682C445.365 277.125 443.443 277.936 441.439 277.938H309.343C308.923 277.939 308.509 278.028 308.125 278.199C307.741 278.371 307.397 278.622 307.113 278.936L282.115 306.686C281.904 306.922 281.647 307.111 281.36 307.24C281.073 307.369 280.763 307.436 280.449 307.437C280.166 307.436 279.885 307.382 279.621 307.277ZM270.298 215.101C268.561 215.103 266.895 215.806 265.666 217.056C264.438 218.307 263.747 220.002 263.745 221.77V270.244C263.747 272.012 264.438 273.707 265.666 274.957C266.895 276.208 268.561 276.911 270.298 276.913H275.15C276.219 276.914 277.244 277.347 278 278.116C278.756 278.885 279.182 279.928 279.183 281.016V305.126C279.183 305.385 279.259 305.637 279.403 305.851C279.546 306.064 279.75 306.228 279.986 306.322C280.223 306.416 280.482 306.434 280.729 306.376C280.977 306.317 281.201 306.184 281.373 305.993L306.37 278.244C306.748 277.825 307.208 277.49 307.719 277.261C308.231 277.032 308.784 276.914 309.343 276.913H441.439C443.176 276.911 444.842 276.208 446.071 274.957C447.299 273.707 447.99 272.012 447.992 270.244V221.77C447.99 220.002 447.299 218.307 446.071 217.056C444.842 215.806 443.176 215.103 441.439 215.101H270.298Z" fill="#3F3D56"/>
<path d="M226.279 322.289C219.26 326.862 211.129 329.355 202.796 329.49C194.464 329.625 186.259 327.396 179.101 323.052C180.36 320.667 181.956 318.483 183.837 316.568C186.739 313.6 190.271 311.349 194.161 309.988C198.052 308.626 202.198 308.191 206.279 308.714C210.361 309.237 214.271 310.705 217.708 313.006C221.146 315.307 224.019 318.379 226.107 321.986C226.162 322.083 226.223 322.186 226.279 322.289Z" fill="#5D61A3"/>
<path d="M200.72 297.775C213.018 297.775 222.987 287.63 222.987 275.116C222.987 262.602 213.018 252.458 200.72 252.458C188.422 252.458 178.453 262.602 178.453 275.116C178.453 287.63 188.422 297.775 200.72 297.775Z" fill="#2F2E41"/>
<path d="M217.289 291.098C221.679 282.926 218.727 272.679 210.696 268.212C202.665 263.744 192.595 266.748 188.205 274.92C183.815 283.093 186.766 293.339 194.797 297.807C202.829 302.274 212.898 299.271 217.289 291.098Z" fill="#FFB8B8"/>
<path d="M185.333 272.402C189.12 275.058 193.615 276.471 198.214 276.453C196.574 277.61 194.706 278.392 192.74 278.745C198.855 280.08 205.175 280.116 211.305 278.851C212.667 278.629 213.982 278.169 215.191 277.493C215.794 277.15 216.319 276.682 216.732 276.12C217.146 275.558 217.438 274.913 217.59 274.228C217.998 271.86 216.184 269.709 214.3 268.259C211.415 266.073 208.089 264.567 204.562 263.85C201.035 263.133 197.395 263.222 193.906 264.112C191.628 264.711 189.346 265.724 187.866 267.585C186.386 269.447 185.948 272.317 187.358 274.234L185.333 272.402Z" fill="#2F2E41"/>
<path d="M202.083 330.008C191.177 330.005 180.639 326.001 172.401 318.73C164.162 311.459 158.776 301.41 157.23 290.425C155.684 279.44 158.082 268.256 163.984 258.925C169.886 249.594 178.897 242.741 189.363 239.623C199.829 236.506 211.049 237.332 220.964 241.952C230.879 246.571 238.826 254.673 243.345 264.772C247.865 274.871 248.655 286.29 245.57 296.934C242.485 307.577 235.733 316.732 226.551 322.719C219.249 327.484 210.756 330.014 202.083 330.008ZM202.083 238.762C193.314 238.761 184.741 241.407 177.45 246.364C170.158 251.321 164.475 258.366 161.119 266.61C157.763 274.854 156.884 283.925 158.595 292.677C160.306 301.429 164.528 309.468 170.729 315.778C176.929 322.087 184.83 326.384 193.43 328.125C202.031 329.866 210.945 328.972 219.047 325.557C227.148 322.141 234.072 316.358 238.944 308.939C243.815 301.519 246.415 292.796 246.414 283.873C246.4 271.913 241.726 260.447 233.415 251.99C225.104 243.533 213.836 238.776 202.083 238.762Z" fill="#3F3D56"/>
<path d="M284.029 234.947C287.683 234.947 290.645 231.932 290.645 228.214C290.645 224.496 287.683 221.481 284.029 221.481C280.375 221.481 277.413 224.496 277.413 228.214C277.413 231.932 280.375 234.947 284.029 234.947Z" fill="#5D61A3"/>
<path d="M436.465 265.468H280.762C280.299 265.468 279.839 265.376 279.411 265.195C278.982 265.015 278.593 264.751 278.265 264.417C277.936 264.084 277.676 263.688 277.498 263.252C277.321 262.816 277.229 262.349 277.229 261.877C277.229 261.405 277.321 260.938 277.498 260.502C277.676 260.066 277.936 259.67 278.265 259.336C278.593 259.003 278.982 258.738 279.411 258.558C279.839 258.378 280.299 258.286 280.762 258.286H436.465C437.401 258.286 438.298 258.664 438.96 259.338C439.622 260.011 439.994 260.925 439.994 261.877C439.994 262.829 439.622 263.742 438.96 264.416C438.298 265.089 437.401 265.468 436.465 265.468Z" fill="#DBDCD6"/>
<path d="M385.74 250.207H280.762C280.299 250.208 279.839 250.115 279.411 249.935C278.982 249.755 278.593 249.491 278.265 249.157C277.936 248.824 277.676 248.428 277.498 247.992C277.321 247.556 277.229 247.088 277.229 246.617C277.229 246.145 277.321 245.677 277.498 245.241C277.676 244.806 277.936 244.41 278.265 244.076C278.593 243.743 278.982 243.478 279.411 243.298C279.839 243.118 280.299 243.025 280.762 243.026H385.74C386.675 243.027 387.572 243.406 388.233 244.079C388.894 244.752 389.265 245.665 389.265 246.617C389.265 247.568 388.894 248.481 388.233 249.154C387.572 249.827 386.675 250.206 385.74 250.207Z" fill="#DBDCD6"/>
<path d="M279.408 311.867C286.226 311.867 291.752 311.243 291.752 310.473C291.752 309.703 286.226 309.079 279.408 309.079C272.591 309.079 267.064 309.703 267.064 310.473C267.064 311.243 272.591 311.867 279.408 311.867Z" fill="#F2F2F2"/>
<path d="M169.084 147.829C175.902 147.829 181.429 147.205 181.429 146.435C181.429 145.665 175.902 145.041 169.084 145.041C162.267 145.041 156.74 145.665 156.74 146.435C156.74 147.205 162.267 147.829 169.084 147.829Z" fill="#F2F2F2"/>
</g>
<defs>
<clipPath id="clip0_217_1803">
<rect width="449" height="382" fill="white"/>
</clipPath>
</defs>
</svg>
