<svg width="70" height="70" viewBox="0 0 70 70" fill="none" xmlns="http://www.w3.org/2000/svg">
<g clip-path="url(#clip0_92_181)">
<path d="M68.2156 31.9255L38.074 1.78499C36.3393 0.049209 33.524 0.049209 31.7866 1.78499L25.5281 8.04452L33.4677 15.9841C35.3134 15.3612 37.4287 15.779 38.8992 17.2495C40.3774 18.7294 40.792 20.8627 40.1538 22.7144L47.8056 30.3669C49.6568 29.7287 51.7934 30.141 53.2711 31.6219C55.3383 33.6875 55.3383 37.036 53.2711 39.1026C52.7799 39.5941 52.1966 39.984 51.5546 40.25C50.9126 40.516 50.2246 40.6529 49.5297 40.6529C48.8348 40.6529 48.1467 40.516 47.5047 40.25C46.8627 39.984 46.2795 39.5941 45.7882 39.1026C45.0503 38.364 44.5473 37.4237 44.3425 36.3999C44.1377 35.3761 44.2402 34.3147 44.637 33.349L37.5014 26.2133L37.5003 44.9936C38.0181 45.2485 38.4908 45.5861 38.8998 45.9933C40.9659 48.0588 40.9659 51.4062 38.8998 53.4762C36.8331 55.5417 33.4835 55.5417 31.4191 53.4762C29.353 51.4068 29.353 48.0594 31.4191 45.9933C31.9145 45.4981 32.5032 45.1059 33.151 44.8394V25.8852C32.5024 25.6199 31.9136 25.2273 31.4191 24.7308C29.8539 23.1667 29.4771 20.8698 30.2799 18.947L22.4525 11.1196L1.78501 31.786C0.951196 32.6201 0.482788 33.7512 0.482788 34.9305C0.482788 36.1099 0.951196 37.241 1.78501 38.0751L31.9271 68.2155C33.6629 69.9513 36.4771 69.9513 38.2156 68.2155L68.2161 38.2151C69.0497 37.3808 69.518 36.2496 69.5179 35.0702C69.5178 33.8907 69.0493 32.7596 68.2156 31.9255Z" fill="#F34F29"/>
</g>
<defs>
<clipPath id="clip0_92_181">
<rect width="70" height="70" fill="white"/>
</clipPath>
</defs>
</svg>
