<svg width="17" height="17" viewBox="0 0 17 17" fill="none" xmlns="http://www.w3.org/2000/svg">
<path d="M5.85161 13.2612C5.85161 13.3257 5.77742 13.3773 5.68387 13.3773C5.57742 13.387 5.50323 13.3354 5.50323 13.2612C5.50323 13.1967 5.57742 13.1451 5.67097 13.1451C5.76774 13.1354 5.85161 13.187 5.85161 13.2612ZM4.84839 13.116C4.82581 13.1805 4.89032 13.2547 4.9871 13.2741C5.07097 13.3063 5.16774 13.2741 5.1871 13.2096C5.20645 13.1451 5.14516 13.0709 5.04839 13.0418C4.96452 13.0192 4.87097 13.0515 4.84839 13.116ZM6.27419 13.0612C6.18064 13.0838 6.11613 13.1451 6.12581 13.2192C6.13548 13.2838 6.21935 13.3257 6.31613 13.3031C6.40968 13.2805 6.47419 13.2192 6.46452 13.1547C6.45484 13.0934 6.36774 13.0515 6.27419 13.0612ZM8.39677 0.69989C3.92258 0.69989 0.5 4.09666 0.5 8.57086C0.5 12.1483 2.75161 15.2096 5.96774 16.287C6.38064 16.3612 6.52581 16.1063 6.52581 15.8967C6.52581 15.6967 6.51613 14.5934 6.51613 13.916C6.51613 13.916 4.25806 14.3999 3.78387 12.9547C3.78387 12.9547 3.41613 12.016 2.8871 11.7741C2.8871 11.7741 2.14839 11.2676 2.93871 11.2773C2.93871 11.2773 3.74194 11.3418 4.18387 12.1096C4.89032 13.3547 6.07419 12.9967 6.53548 12.7838C6.60968 12.2676 6.81936 11.9096 7.05161 11.6967C5.24839 11.4967 3.42903 11.2354 3.42903 8.13215C3.42903 7.24505 3.67419 6.79989 4.19032 6.23215C4.10645 6.02247 3.83226 5.15795 4.27419 4.04183C4.94839 3.83215 6.5 4.91279 6.5 4.91279C7.14516 4.73215 7.83871 4.6386 8.52581 4.6386C9.2129 4.6386 9.90645 4.73215 10.5516 4.91279C10.5516 4.91279 12.1032 3.82892 12.7774 4.04183C13.2194 5.16118 12.9452 6.02247 12.8613 6.23215C13.3774 6.80312 13.6935 7.24828 13.6935 8.13215C13.6935 11.2451 11.7935 11.4934 9.99032 11.6967C10.2871 11.9515 10.5387 12.4354 10.5387 13.1934C10.5387 14.2805 10.529 15.6257 10.529 15.8902C10.529 16.0999 10.6774 16.3547 11.0871 16.2805C14.3129 15.2096 16.5 12.1483 16.5 8.57086C16.5 4.09666 12.871 0.69989 8.39677 0.69989ZM3.63548 11.8257C3.59355 11.858 3.60323 11.9321 3.65806 11.9934C3.70968 12.0451 3.78387 12.0676 3.82581 12.0257C3.86774 11.9934 3.85806 11.9192 3.80323 11.858C3.75161 11.8063 3.67742 11.7838 3.63548 11.8257ZM3.2871 11.5644C3.26452 11.6063 3.29677 11.658 3.36129 11.6902C3.4129 11.7225 3.47742 11.7128 3.5 11.6676C3.52258 11.6257 3.49032 11.5741 3.42581 11.5418C3.36129 11.5225 3.30968 11.5321 3.2871 11.5644ZM4.33226 12.7128C4.28065 12.7547 4.3 12.8515 4.37419 12.9128C4.44839 12.987 4.54194 12.9967 4.58387 12.9451C4.62581 12.9031 4.60645 12.8063 4.54194 12.7451C4.47097 12.6709 4.37419 12.6612 4.33226 12.7128ZM3.96452 12.2386C3.9129 12.2709 3.9129 12.3547 3.96452 12.4289C4.01613 12.5031 4.10323 12.5354 4.14516 12.5031C4.19677 12.4612 4.19677 12.3773 4.14516 12.3031C4.1 12.2289 4.01613 12.1967 3.96452 12.2386Z" fill="#FDFFF5"/>
</svg>
