<svg width="532" height="558" viewBox="0 0 532 558" fill="none" xmlns="http://www.w3.org/2000/svg">
<g clip-path="url(#clip0_113_184)">
<path d="M49.908 430.155C49.908 430.155 112.303 366.326 187.872 392.507C263.44 418.689 402.096 360.104 400.71 266.141C399.323 172.179 351.99 210.619 366.644 233.211C381.297 255.802 438.517 257.135 453.237 207.749C467.958 158.363 491.067 158.691 491.067 158.691" stroke="#191919" stroke-miterlimit="10" stroke-linecap="round" stroke-linejoin="round"/>
<path d="M84.0996 78.8777C84.0996 78.8777 123.53 103.913 111.452 125.919C101.061 144.851 79.4978 107.304 120.86 109.125C162.222 110.945 161.035 151.285 161.035 151.285" stroke="#191919" stroke-width="2" stroke-miterlimit="10" stroke-linecap="round" stroke-linejoin="round"/>
<path d="M422.202 345.972C422.202 345.972 453.399 348.881 458.946 332.883C464.492 316.885 449.933 315.036 447.16 323.595C444.387 332.155 462.412 343.063 474.198 340.155" stroke="#191919" stroke-miterlimit="10" stroke-linecap="round" stroke-linejoin="round"/>
<g filter="url(#filter0_d_113_184)">
<path d="M74.6332 204.891L45.3923 208.339L55.5993 188.401L74.6332 204.891Z" fill="#FFB847"/>
<path d="M55.7538 189.196L73.4496 204.527L46.2644 207.733L55.7538 189.196Z" stroke="#191919"/>
</g>
<g filter="url(#filter1_d_113_184)">
<path d="M464.492 268.039L474.198 256.578L480.438 271.273L464.492 268.039Z" fill="#5D61A3"/>
<path d="M479.606 270.594L465.42 267.717L474.055 257.521L479.606 270.594Z" stroke="#191919"/>
</g>
<g filter="url(#filter2_d_113_184)">
<path d="M242.154 97.1668L236.38 78.9414L252.483 83.8495L242.154 97.1668Z" fill="#D8086F"/>
<path d="M251.643 84.1163L242.343 96.1074L237.144 79.6969L251.643 84.1163Z" stroke="#191919"/>
</g>
<path d="M60.3234 399.774L39.4924 396.141" stroke="#191919" stroke-miterlimit="10" stroke-linecap="round" stroke-linejoin="round"/>
<g filter="url(#filter3_d_113_184)">
<path d="M326.509 227.201L341.529 206.163" stroke="#191919" stroke-miterlimit="10" stroke-linecap="round" stroke-linejoin="round"/>
</g>
<g filter="url(#filter4_d_113_184)">
<path d="M186.442 92.2698L179.594 60.6646" stroke="#191919" stroke-miterlimit="10" stroke-linecap="round" stroke-linejoin="round"/>
</g>
<g filter="url(#filter5_d_113_184)">
<path d="M359.653 284.301L373.702 280.932" stroke="#191919" stroke-miterlimit="10" stroke-linecap="round" stroke-linejoin="round"/>
</g>
<path d="M26.9979 475.506H497.639" stroke="#191919" stroke-width="0.75" stroke-miterlimit="10" stroke-linecap="round" stroke-linejoin="round"/>
<path d="M269.197 234.226C292.964 231.145 309.859 208.438 306.934 183.509C304.009 158.579 282.37 140.866 258.603 143.947C234.837 147.027 217.941 169.734 220.867 194.664C223.792 219.594 245.43 237.306 269.197 234.226Z" fill="white" stroke="#191919" stroke-miterlimit="10" stroke-linecap="round" stroke-linejoin="round"/>
<path d="M260.376 144.261L260.434 144.27L260.492 144.265C262.925 144.063 265.405 144.071 267.917 144.319L267.966 143.821L267.917 144.319C291.465 146.643 308.796 168.561 306.575 193.317C305.432 206.039 299.347 217.016 290.508 224.363L294.882 190.6L294.948 190.091L294.438 190.038C290.396 189.621 286.717 188.846 283.348 187.819L282.639 187.603L282.659 187.833C282.589 187.832 282.51 187.829 282.423 187.824C281.899 187.794 281.058 187.688 279.837 187.381C277.395 186.765 273.441 185.342 267.466 182.102C261.644 178.946 259.55 173.9 258.908 169.606C258.587 167.456 258.632 165.501 258.758 164.084C258.821 163.375 258.904 162.803 258.97 162.41C259.004 162.213 259.033 162.061 259.054 161.96C259.064 161.909 259.072 161.871 259.078 161.846L259.084 161.819L259.085 161.813L259.086 161.812L259.086 161.811L259.086 161.811C259.086 161.811 259.086 161.811 259.076 161.809L258.118 161.565L258.117 161.565L258.117 161.565L258.116 161.566L258.114 161.573L258.107 161.599C258.1 161.623 258.09 161.659 258.077 161.705C258.05 161.799 258.01 161.936 257.957 162.111C257.851 162.46 257.694 162.957 257.492 163.547C257.086 164.728 256.501 166.271 255.778 167.736C255.05 169.211 254.205 170.561 253.294 171.393C252.843 171.807 252.399 172.07 251.971 172.176C251.556 172.278 251.124 172.241 250.658 172L250.658 172C249.724 171.517 249.207 170.519 249.015 169.137C248.822 167.758 248.969 166.1 249.266 164.475C249.561 162.858 249.998 161.308 250.362 160.159C250.544 159.586 250.707 159.115 250.825 158.788C250.883 158.624 250.931 158.497 250.963 158.41C250.979 158.367 250.992 158.335 251 158.313L251.009 158.289L251.012 158.283L251.012 158.282L251.012 158.281L251.012 158.281L251.01 158.281L250.09 157.895L250.546 158.099L250.09 157.895L250.09 157.895L250.089 157.897L250.086 157.905L250.072 157.935C250.059 157.963 250.041 158.004 250.016 158.058C249.966 158.165 249.893 158.323 249.797 158.524C249.606 158.927 249.327 159.5 248.976 160.183C248.274 161.551 247.289 163.353 246.152 165.098C245.011 166.85 243.735 168.517 242.457 169.637C241.155 170.777 239.995 171.229 239.02 170.896L239.02 170.896C238.36 170.671 237.908 170.354 237.603 169.985C237.298 169.617 237.116 169.169 237.037 168.649C236.878 167.589 237.157 166.273 237.656 164.89C238.151 163.519 238.837 162.149 239.429 160.997C239.486 160.886 239.542 160.777 239.597 160.67C239.826 160.226 240.036 159.817 240.204 159.468C240.403 159.054 240.576 158.657 240.628 158.363L239.723 157.993L240.135 158.277L239.723 157.993L239.723 157.994L239.722 157.996L239.716 158.004L239.694 158.036C239.673 158.065 239.643 158.109 239.603 158.165C239.524 158.278 239.406 158.444 239.254 158.655C238.949 159.076 238.508 159.676 237.962 160.385C236.868 161.806 235.359 163.664 233.689 165.421C232.014 167.184 230.201 168.822 228.501 169.824C226.774 170.842 225.33 171.112 224.26 170.478C223.769 170.188 223.476 169.691 223.412 168.947C223.346 168.186 223.525 167.198 223.972 166.031C224.865 163.702 226.77 160.805 229.522 157.884C235.024 152.045 243.814 146.211 254.345 144.663C257.493 144.201 259.386 144.112 260.376 144.261Z" fill="#191919" stroke="#191919"/>
<path d="M302.64 195.086C302.106 201.032 297.089 205.357 291.476 204.803C285.858 204.248 281.694 199.01 282.228 193.061C282.762 187.115 287.779 182.79 293.392 183.344C299.01 183.899 303.174 189.137 302.64 195.086Z" fill="white" stroke="#191919"/>
<path d="M284.832 193.324C285.227 188.92 288.951 185.686 293.149 186.101C297.348 186.515 300.43 190.421 300.035 194.825C299.641 199.228 295.917 202.461 291.718 202.047" stroke="#191919" stroke-miterlimit="10" stroke-linecap="round" stroke-linejoin="round"/>
<path d="M337.211 113.914C341.668 129.358 333.34 145.633 318.661 150.293C303.982 154.953 288.447 146.255 283.99 130.811C279.533 115.367 287.862 99.0921 302.541 94.4318C317.22 89.7715 332.755 98.4703 337.211 113.914Z" fill="#191919" stroke="#191919"/>
<path d="M261.185 186.217L261.185 186.217C261.076 187.432 260.625 188.475 260.009 189.182C259.392 189.89 258.641 190.235 257.902 190.162C257.161 190.089 256.482 189.602 256 188.782C255.519 187.964 255.261 186.849 255.371 185.634L255.371 185.634C255.479 184.42 255.931 183.377 256.547 182.669C257.164 181.961 257.914 181.617 258.654 181.69L258.654 181.69C259.394 181.763 260.073 182.25 260.555 183.07C261.036 183.888 261.294 185.003 261.185 186.217Z" fill="black" stroke="#191919"/>
<path d="M237.053 178.455L237.053 178.455C236.951 179.587 236.531 180.557 235.958 181.214C235.386 181.871 234.692 182.187 234.013 182.12C233.333 182.053 232.704 181.604 232.257 180.843C231.81 180.083 231.569 179.046 231.671 177.915L231.671 177.915C231.772 176.783 232.193 175.813 232.765 175.156C233.338 174.499 234.032 174.183 234.711 174.25L234.711 174.25C235.391 174.317 236.02 174.765 236.467 175.526C236.914 176.286 237.155 177.323 237.053 178.455Z" fill="black" stroke="#191919"/>
<path d="M247.264 173.798L238.283 185.16L246.428 188.072" stroke="#191919" stroke-miterlimit="10" stroke-linecap="round" stroke-linejoin="round"/>
<path d="M235.128 196.48C235.128 196.48 242.766 196.866 247.849 198.371" stroke="#191919" stroke-miterlimit="10" stroke-linecap="round" stroke-linejoin="round"/>
<path d="M262.202 204.969L262.202 204.969C258.616 202.969 257.235 198.278 259.155 194.489L259.155 194.489C261.07 190.712 265.518 189.3 269.089 191.292L269.089 191.292C272.675 193.29 274.056 197.981 272.136 201.771C270.222 205.549 265.773 206.96 262.202 204.969Z" fill="#FF7A5C" stroke="#191919"/>
<path d="M228.558 181.902L228.558 181.902C231.583 183.588 232.751 187.549 231.129 190.75C229.514 193.938 225.762 195.126 222.751 193.449C222.308 193.202 221.917 192.888 221.545 192.531C221.388 190.151 221.376 187.752 221.593 185.34C221.681 184.364 221.833 183.405 221.987 182.427C221.988 182.423 221.989 182.419 221.989 182.416C223.85 180.98 226.39 180.693 228.558 181.902Z" fill="#ED5D1C" stroke="#191919"/>
<path d="M237.838 217.181C237.837 217.181 237.837 217.181 237.836 217.181L237.837 217.164L237.837 217.164L237.865 216.625L238.166 216.336L238.164 216.334L237.865 216.62L237.888 216.184C237.861 216.181 237.835 216.18 237.819 216.18C237.81 216.18 237.805 216.18 237.803 216.18H236.631L237.442 217.026L237.444 217.028L237.605 217.196L237.837 217.181L237.837 217.181L237.838 217.181L237.838 217.181L237.838 217.181ZM237.838 217.181L237.839 217.181L237.838 217.181ZM225.539 198.165L225.778 199.134L225.688 198.642C225.778 199.134 225.778 199.134 225.778 199.134L225.779 199.134L225.783 199.133L225.801 199.13L225.874 199.117C225.938 199.105 226.034 199.089 226.159 199.067C226.409 199.024 226.776 198.963 227.245 198.888C228.181 198.738 229.522 198.536 231.134 198.327C234.36 197.907 238.665 197.459 242.998 197.341C247.34 197.222 251.669 197.437 254.96 198.323C258.285 199.218 260.323 200.727 260.545 203.041L261.043 202.993L260.545 203.041C260.924 206.994 260.898 210.143 258.493 212.386C257.278 213.519 255.412 214.461 252.565 215.124C249.719 215.788 245.926 216.165 240.889 216.192L240.868 217.192C243.154 217.301 246.278 217.674 248.838 218.777C251.389 219.875 253.279 221.645 253.37 224.53C253.433 226.543 252.538 228.112 250.932 229.394C249.308 230.691 246.972 231.675 244.228 232.467C240.555 233.527 236.275 234.211 232.163 234.868C230.111 235.196 228.101 235.517 226.23 235.875C221.512 236.777 211.337 240.15 199.944 246.073C188.547 251.999 175.889 260.5 166.233 271.683L165.542 272.484L166.599 272.51L166.611 272.51C167.194 272.525 185.3 272.973 203.945 273.881C213.352 274.34 222.891 274.916 230.383 275.612C234.13 275.96 237.357 276.337 239.797 276.744C241.017 276.947 242.032 277.156 242.811 277.37C243.611 277.589 244.099 277.797 244.324 277.969C244.423 278.044 244.56 278.277 244.523 278.908C244.487 279.509 244.299 280.324 243.96 281.343C243.282 283.374 242.04 286.094 240.395 289.279C237.109 295.642 232.26 303.783 227.248 311.816C222.238 319.847 217.072 327.761 213.159 333.667C211.202 336.621 209.559 339.072 208.405 340.784C207.828 341.641 207.373 342.312 207.062 342.77C206.907 342.999 206.788 343.174 206.708 343.292L206.686 343.323C206.647 343.335 206.601 343.348 206.548 343.364C206.343 343.423 206.038 343.511 205.639 343.623C204.84 343.847 203.664 344.169 202.153 344.562C199.132 345.346 194.778 346.409 189.448 347.522C178.787 349.748 164.231 352.173 148.64 352.973C133.046 353.773 116.441 352.946 101.674 348.683C86.9098 344.421 74.0134 336.736 65.77 323.841C49.2474 297.995 54.4735 272.547 66.3238 251.56C78.1828 230.558 96.6462 214.091 106.436 206.337C119.277 196.166 142.361 181.816 163.304 170.315C173.774 164.566 183.695 159.536 191.522 156.1C195.436 154.381 198.816 153.066 201.473 152.259C202.802 151.855 203.938 151.582 204.864 151.447C205.802 151.31 206.472 151.324 206.895 151.448C208.819 152.014 209.896 153.02 210.47 154.191C211.054 155.382 211.146 156.804 210.971 158.235C210.624 161.068 209.257 163.733 209.024 164.187L209.016 164.202L208.447 165.312L209.625 164.902C215.235 162.95 221.02 161.238 225.916 160.297C228.364 159.827 230.577 159.553 232.426 159.534C234.29 159.516 235.724 159.758 236.661 160.268C240.878 162.561 241.566 166.868 240.747 169.54L240.355 170.175L239.694 171.244L240.909 170.921C243.595 170.206 245.273 170.022 246.529 170.227C247.756 170.428 248.636 171.007 249.713 171.984L250.048 171.614L249.713 171.984C251.15 173.287 252.355 174.93 252.88 176.797C253.401 178.649 253.266 180.758 251.965 183.043C249.336 187.663 241.931 193.027 225.539 198.165ZM237.784 217.178L237.803 216.996V217.18L237.8 217.18L237.794 217.179C237.791 217.179 237.788 217.179 237.784 217.178Z" fill="white" stroke="#191919"/>
<mask id="mask0_113_184" style="mask-type:luminance" maskUnits="userSpaceOnUse" x="54" y="183" width="192" height="171">
<path d="M166.234 271.683L165.543 272.483L166.6 272.509L166.611 272.51C167.186 272.524 185.296 272.972 203.946 273.881C213.353 274.34 222.892 274.916 230.384 275.612C234.131 275.96 237.358 276.337 239.798 276.744C241.018 276.947 242.033 277.156 242.812 277.37C243.612 277.59 244.1 277.798 244.325 277.969C244.424 278.044 244.561 278.278 244.524 278.909C244.488 279.509 244.3 280.325 243.96 281.344C243.283 283.374 242.04 286.095 240.396 289.279C237.11 295.643 232.261 303.783 227.249 311.817C222.239 319.847 217.073 327.761 213.16 333.668C211.203 336.621 209.56 339.072 208.406 340.785C207.828 341.641 207.374 342.313 207.063 342.77C206.908 342.999 206.789 343.174 206.709 343.292L206.687 343.324C206.648 343.335 206.602 343.349 206.549 343.364C206.344 343.423 206.039 343.511 205.64 343.623C204.841 343.847 203.664 344.17 202.154 344.562C199.133 345.346 194.779 346.409 189.449 347.522C178.788 349.748 164.232 352.174 148.641 352.973C133.047 353.774 116.442 352.946 101.675 348.683C86.9108 344.422 74.0144 336.737 65.771 323.842C49.2484 297.995 54.4744 272.547 66.3248 251.56C78.1838 230.558 96.6472 214.092 106.437 206.337L106.437 206.337C114.452 199.988 126.465 192.008 139.463 184.104L184.42 255.482C177.92 260.061 171.612 265.455 166.234 271.683Z" fill="white" stroke="white"/>
</mask>
<g mask="url(#mask0_113_184)">
<path d="M171.828 318.109C169.929 314.385 166.705 311.718 162.858 310.727C155.375 308.798 147.835 313.815 146.052 321.909C144.269 330.002 148.908 338.156 156.391 340.084C160.633 341.177 165.066 340.066 168.427 337.111C170.326 340.835 173.551 343.503 177.396 344.494C184.879 346.422 192.419 341.406 194.201 333.311C195.984 325.218 191.346 317.065 183.863 315.136C179.621 314.044 175.189 315.154 171.828 318.109Z" stroke="#191919" stroke-miterlimit="10" stroke-linecap="round" stroke-linejoin="round"/>
<path d="M105.245 337.236C103.346 333.512 100.121 330.845 96.2748 329.854C88.7917 327.926 81.2522 332.942 79.4689 341.036C77.6857 349.13 82.3247 357.283 89.8078 359.211C94.05 360.304 98.4826 359.194 101.844 356.238C103.743 359.963 106.967 362.63 110.813 363.621C118.297 365.549 125.836 360.533 127.619 352.438C129.402 344.345 124.764 336.192 117.281 334.263C113.038 333.17 108.606 334.281 105.245 337.236Z" stroke="#191919" stroke-miterlimit="10" stroke-linecap="round" stroke-linejoin="round"/>
<path d="M112.369 268.589C110.47 264.865 107.245 262.198 103.398 261.207C95.9152 259.278 88.3757 264.294 86.5925 272.389C84.8092 280.482 89.4483 288.636 96.9314 290.564C101.174 291.657 105.606 290.546 108.967 287.591C110.867 291.315 114.09 293.982 117.937 294.973C125.421 296.902 132.959 291.885 134.743 283.792C136.526 275.699 131.888 267.545 124.405 265.617C120.163 264.522 115.73 265.633 112.369 268.589Z" stroke="#191919" stroke-miterlimit="10" stroke-linecap="round" stroke-linejoin="round"/>
<path d="M159.714 226.596C157.815 222.872 154.59 220.205 150.743 219.214C143.26 217.285 135.721 222.302 133.937 230.396C132.154 238.489 136.793 246.643 144.276 248.571C148.518 249.664 152.951 248.553 156.312 245.598C158.211 249.322 161.436 251.989 165.282 252.98C172.766 254.909 180.304 249.892 182.088 241.799C183.871 233.706 179.233 225.553 171.75 223.624C167.507 222.53 163.074 223.641 159.714 226.596Z" stroke="#191919" stroke-miterlimit="10" stroke-linecap="round" stroke-linejoin="round"/>
<path d="M92.103 209.301C90.2037 205.577 86.9787 202.91 83.1324 201.919C75.6493 199.991 68.1098 205.007 66.3265 213.101C64.5432 221.195 69.1823 229.348 76.6654 231.277C80.9075 232.37 85.3402 231.259 88.7013 228.303C90.6006 232.028 93.8245 234.695 97.6709 235.686C105.154 237.614 112.693 232.598 114.476 224.504C116.259 216.41 111.621 208.257 104.138 206.328C99.8968 205.235 95.4641 206.345 92.103 209.301Z" stroke="#191919" stroke-miterlimit="10" stroke-linecap="round" stroke-linejoin="round"/>
<path d="M43.1908 290.496C41.2916 286.772 38.0666 284.105 34.2203 283.114C26.7371 281.185 19.1976 286.202 17.4144 294.295C15.6311 302.388 20.2702 310.542 27.7533 312.47C31.9954 313.563 36.4281 312.452 39.7892 309.497C41.6885 313.221 44.9135 315.888 48.7588 316.879C56.2419 318.808 63.7814 313.791 65.5636 305.697C67.3468 297.604 62.7089 289.45 55.2257 287.522C50.9836 286.43 46.551 287.541 43.1908 290.496Z" stroke="#191919" stroke-miterlimit="10" stroke-linecap="round" stroke-linejoin="round"/>
<path d="M162.545 277.123C163.763 276.57 164.917 275.828 165.965 274.907C167.864 278.631 171.088 281.298 174.934 282.289C181.874 284.077 188.861 279.894 191.261 272.822" stroke="#191919" stroke-miterlimit="10" stroke-linecap="round" stroke-linejoin="round"/>
</g>
<path d="M191.999 172.391C191.999 172.391 229.344 152.788 237.793 160.482C241.616 163.964 242.112 166.898 241.208 169.75" stroke="#191919" stroke-miterlimit="10" stroke-linecap="round" stroke-linejoin="round"/>
<path d="M209.462 183.619C209.462 183.619 240.405 165.84 249.294 171.119C257.174 175.799 257.101 189.631 225.688 198.642C225.688 198.642 261.043 190.755 261.469 203.995C261.773 213.395 259.289 217.868 227.621 216.363" stroke="#191919" stroke-miterlimit="10" stroke-linecap="round" stroke-linejoin="round"/>
<path d="M237.805 216.683C237.805 216.683 253.595 215.703 253.871 224.515C254.148 233.325 237.435 234.242 226.325 236.367C215.561 238.426 175.545 253.624 158.631 283.175" stroke="#191919" stroke-miterlimit="10" stroke-linecap="round" stroke-linejoin="round"/>
<path d="M166.601 272.009C166.601 272.009 239.671 273.787 244.628 277.57C249.585 281.355 207 343.751 207 343.751C207 343.751 98.6612 376.219 65.3495 324.11C32.0377 272 86.5082 221.484 106.126 205.944C131.875 185.55 198.577 148.482 207.037 150.968C215.497 153.454 208.639 164.758 208.639 164.758" stroke="#191919" stroke-miterlimit="10" stroke-linecap="round" stroke-linejoin="round"/>
<path d="M176.388 262.337C181.382 258.065 186.712 254.322 191.999 251.11C163.888 225.329 154.534 174.652 154.534 174.652C149.432 177.56 144.303 180.577 139.315 183.609C141.401 223.424 165.896 251.891 176.388 262.337Z" fill="#DBDCD6" stroke="#191919" stroke-miterlimit="10" stroke-linecap="round" stroke-linejoin="round"/>
<path d="M142.91 189.632L156.202 182.049" stroke="#191919" stroke-miterlimit="10" stroke-linecap="round" stroke-linejoin="round"/>
<path d="M148.355 210.318L162.106 201.506" stroke="#191919" stroke-miterlimit="10" stroke-linecap="round" stroke-linejoin="round"/>
<path d="M159.558 232.17L172.048 224.242" stroke="#191919" stroke-miterlimit="10" stroke-linecap="round" stroke-linejoin="round"/>
<path d="M170.127 249.911L183.019 241.326" stroke="#191919" stroke-miterlimit="10" stroke-linecap="round" stroke-linejoin="round"/>
<path d="M348.542 423.155L348.569 422.998L348.5 422.853L280.442 281.37C280.6 281.337 280.792 281.299 281.018 281.262C281.806 281.13 283.011 280.995 284.657 280.985C287.948 280.966 293.003 281.451 299.999 283.488C313.995 287.563 335.756 297.85 366.689 322.731C390.439 341.834 409.435 358.993 420.982 379.056C432.512 399.091 436.634 422.061 430.536 452.835C429.406 458.534 426.538 463.139 422.566 466.872C380.333 473.991 361.933 462.936 354.017 450.329C350.036 443.988 348.664 437.195 348.291 431.973C348.105 429.364 348.168 427.153 348.278 425.597C348.333 424.819 348.4 424.205 348.452 423.787C348.478 423.579 348.501 423.419 348.517 423.312C348.525 423.259 348.531 423.219 348.536 423.192L348.54 423.163L348.541 423.157L348.542 423.155Z" fill="white" stroke="#191919"/>
<mask id="mask1_113_184" style="mask-type:luminance" maskUnits="userSpaceOnUse" x="279" y="280" width="155" height="188">
<path d="M348.534 422.95L348.522 422.9L348.5 422.853L280.442 281.37C280.6 281.337 280.792 281.299 281.018 281.262C281.806 281.13 283.011 280.995 284.657 280.985C287.948 280.966 293.003 281.451 299.999 283.488C313.995 287.563 335.756 297.85 366.689 322.731C390.439 341.834 409.435 358.993 420.982 379.056C432.512 399.091 436.634 422.061 430.536 452.835C429.409 458.519 426.553 463.115 422.597 466.843C391.087 467.398 372.588 456.406 361.962 445.313C356.632 439.749 353.272 434.148 351.246 429.94C350.232 427.837 349.553 426.083 349.128 424.858C348.915 424.245 348.766 423.765 348.67 423.44C348.622 423.277 348.588 423.153 348.566 423.07C348.555 423.029 348.547 422.998 348.541 422.978L348.536 422.956L348.535 422.951L348.534 422.95Z" fill="white" stroke="white"/>
</mask>
<g mask="url(#mask1_113_184)">
<path d="M376.534 318.109C374.634 314.385 371.409 311.718 367.563 310.727C360.08 308.798 352.54 313.815 350.757 321.909C348.974 330.002 353.613 338.156 361.096 340.084C365.338 341.177 369.771 340.066 373.132 337.111C375.031 340.835 378.255 343.503 382.101 344.494C389.586 346.422 397.124 341.406 398.906 333.311C400.689 325.218 396.052 317.065 388.568 315.136C384.327 314.044 379.894 315.154 376.534 318.109Z" stroke="#191919" stroke-miterlimit="10" stroke-linecap="round" stroke-linejoin="round"/>
<path d="M362.008 374.504C360.109 370.78 356.885 368.113 353.037 367.122C345.554 365.193 338.015 370.21 336.231 378.304C334.448 386.397 339.087 394.551 346.57 396.479C350.812 397.572 355.245 396.461 358.606 393.506C360.506 397.23 363.731 399.897 367.577 400.888C375.061 402.817 382.599 397.801 384.382 389.706C386.165 381.613 381.527 373.459 374.044 371.531C369.801 370.437 365.368 371.548 362.008 374.504Z" stroke="#191919" stroke-miterlimit="10" stroke-linecap="round" stroke-linejoin="round"/>
<path d="M435.545 367.645C433.646 363.921 430.422 361.254 426.575 360.263C419.092 358.334 411.552 363.351 409.769 371.445C407.985 379.538 412.625 387.692 420.108 389.62C424.35 390.713 428.782 389.602 432.144 386.647C434.043 390.371 437.267 393.039 441.113 394.03C448.597 395.958 456.136 390.942 457.918 382.847C459.701 374.754 455.063 366.601 447.58 364.672C443.338 363.578 438.905 364.689 435.545 367.645Z" stroke="#191919" stroke-miterlimit="10" stroke-linecap="round" stroke-linejoin="round"/>
</g>
<path d="M279.726 281.037C279.726 281.037 305.068 272.525 367.001 322.341C414.502 360.548 443.262 391.179 431.025 452.932" stroke="#191919" stroke-miterlimit="10" stroke-linecap="round" stroke-linejoin="round"/>
<path d="M331.758 316.648L331.763 316.657L331.768 316.665L331.785 316.655C331.768 316.665 331.768 316.665 331.768 316.665L331.768 316.666L331.772 316.672L331.786 316.697C331.799 316.719 331.818 316.754 331.844 316.8C331.895 316.893 331.972 317.034 332.072 317.223C332.273 317.601 332.567 318.172 332.94 318.94C333.684 320.475 334.74 322.796 335.979 325.928C338.456 332.191 341.667 341.7 344.587 354.659C350.411 380.504 355.078 420.077 350.461 475.006H157.164C157.161 474.792 157.157 474.508 157.152 474.157C157.142 473.279 157.132 471.984 157.134 470.319C157.137 466.988 157.187 462.175 157.373 456.251C157.745 444.403 158.662 428.114 160.841 410.346C163.021 392.576 166.461 373.339 171.877 355.592C177.295 337.839 184.679 321.612 194.726 309.835L194.737 309.822L194.747 309.808L194.346 309.51C194.747 309.808 194.747 309.808 194.748 309.808L194.748 309.807L194.752 309.801L194.769 309.779C194.784 309.758 194.807 309.728 194.838 309.688C194.899 309.607 194.992 309.486 195.114 309.329C195.36 309.014 195.726 308.553 196.209 307.968C197.174 306.797 198.604 305.133 200.458 303.163C204.167 299.222 209.569 294.06 216.341 289.178C229.891 279.41 248.868 270.799 270.724 275.23C292.664 279.678 307.927 290.043 317.705 299.293C322.594 303.919 326.112 308.266 328.406 311.453C329.552 313.046 330.393 314.349 330.946 315.252C331.222 315.703 331.426 316.055 331.561 316.292C331.628 316.411 331.678 316.501 331.711 316.561C331.728 316.591 331.74 316.613 331.748 316.628L331.756 316.644L331.758 316.648L331.758 316.648Z" fill="white" stroke="#191919"/>
<mask id="mask2_113_184" style="mask-type:luminance" maskUnits="userSpaceOnUse" x="156" y="273" width="197" height="203">
<path d="M331.759 316.649L331.763 316.657L331.768 316.665L331.784 316.656C331.768 316.665 331.768 316.665 331.768 316.665L331.769 316.666L331.772 316.672L331.786 316.697C331.792 316.707 331.799 316.719 331.807 316.734C331.817 316.752 331.83 316.774 331.844 316.8C331.895 316.893 331.972 317.034 332.073 317.223C332.273 317.601 332.568 318.172 332.94 318.94C333.684 320.475 334.74 322.796 335.979 325.927C338.456 332.191 341.667 341.7 344.587 354.659C350.41 380.504 355.078 420.077 350.46 475.005H157.164C157.16 474.79 157.156 474.506 157.152 474.156C157.141 473.278 157.131 471.983 157.133 470.317C157.136 466.987 157.186 462.174 157.372 456.25C157.744 444.402 158.661 428.113 160.841 410.345C163.02 392.575 166.461 373.338 171.877 355.591C177.295 337.838 184.679 321.611 194.725 309.834L194.736 309.821L194.746 309.807L194.746 309.807L194.747 309.807L194.747 309.806L194.75 309.803L194.76 309.789L194.804 309.73C194.843 309.679 194.902 309.601 194.981 309.499C195.139 309.295 195.374 308.994 195.685 308.608C196.308 307.837 197.232 306.725 198.437 305.371L198.665 305.114L198.508 304.809C197.252 302.372 195.798 299.207 194.821 295.994C193.839 292.766 193.359 289.559 193.976 287.008L193.977 287.008C194.447 285.062 195.717 283.244 197.515 281.641C199.31 280.039 201.608 278.674 204.078 277.632C206.547 276.591 209.172 275.88 211.614 275.576C214.063 275.271 216.291 275.38 217.986 275.945C219.165 276.339 220.538 277.166 222.017 278.295C223.489 279.42 225.04 280.824 226.572 282.342L226.833 282.6L227.158 282.428C239.299 275.994 254.184 271.877 270.725 275.23C285.76 278.279 297.655 284.106 306.801 290.447L306.976 290.568L307.185 290.526C308.989 290.165 310.807 289.973 312.544 290.081C316.38 290.319 320.569 292.988 323.875 295.918C325.516 297.373 326.915 298.871 327.914 300.118C328.413 300.743 328.808 301.299 329.082 301.75C329.37 302.225 329.484 302.52 329.499 302.645C329.501 302.663 329.502 302.73 329.483 302.871C329.465 303.003 329.433 303.173 329.386 303.379C329.292 303.792 329.145 304.327 328.954 304.963C328.571 306.234 328.019 307.878 327.381 309.693L327.292 309.945L327.453 310.159C328.928 312.12 330.007 313.747 330.716 314.881C331.071 315.449 331.333 315.893 331.505 316.194C331.592 316.345 331.656 316.46 331.698 316.536C331.719 316.574 331.735 316.603 331.745 316.622L331.756 316.643L331.758 316.648L331.759 316.649Z" fill="white" stroke="white"/>
</mask>
<g mask="url(#mask2_113_184)">
<path d="M182.126 383.007C180.227 379.283 177.003 376.615 173.155 375.624C165.672 373.696 158.133 378.712 156.349 386.807C154.566 394.9 159.205 403.053 166.688 404.982C170.93 406.074 175.363 404.964 178.724 402.009C180.624 405.733 183.849 408.4 187.694 409.391C195.178 411.32 202.716 406.303 204.5 398.209C206.283 390.116 201.645 381.962 194.162 380.034C189.92 378.94 185.487 380.052 182.126 383.007Z" stroke="#191919" stroke-miterlimit="10" stroke-linecap="round" stroke-linejoin="round"/>
<path d="M230.797 339.912C228.898 336.188 225.674 333.521 221.827 332.53C214.344 330.602 206.804 335.618 205.021 343.712C203.238 351.806 207.877 359.959 215.36 361.888C219.602 362.98 224.035 361.87 227.396 358.915C229.295 362.639 232.52 365.306 236.365 366.297C243.849 368.225 251.388 363.209 253.17 355.115C254.953 347.021 250.315 338.868 242.832 336.939C238.591 335.847 234.159 336.957 230.797 339.912Z" stroke="#191919" stroke-miterlimit="10" stroke-linecap="round" stroke-linejoin="round"/>
<path d="M302.57 294.564C300.67 290.84 297.446 288.172 293.599 287.181C286.116 285.253 278.576 290.269 276.793 298.364C275.01 306.457 279.649 314.61 287.132 316.539C291.374 317.633 295.807 316.521 299.168 313.566C301.067 317.29 304.291 319.957 308.138 320.948C315.622 322.877 323.16 317.86 324.942 309.766C326.726 301.673 322.088 293.519 314.605 291.591C310.363 290.497 305.931 291.609 302.57 294.564Z" stroke="#191919" stroke-miterlimit="10" stroke-linecap="round" stroke-linejoin="round"/>
<path d="M281.427 391.794C279.528 388.07 276.304 385.403 272.456 384.412C264.973 382.483 257.434 387.5 255.65 395.594C253.867 403.687 258.506 411.841 265.989 413.769C270.231 414.862 274.664 413.751 278.025 410.796C279.924 414.52 283.149 417.188 286.995 418.179C294.478 420.107 302.017 415.091 303.8 406.996C305.583 398.903 300.945 390.75 293.462 388.821C289.221 387.727 284.788 388.838 281.427 391.794Z" stroke="#191919" stroke-miterlimit="10" stroke-linecap="round" stroke-linejoin="round"/>
<path d="M335.911 352.514C334.012 348.79 330.788 346.123 326.941 345.132C319.457 343.203 311.918 348.22 310.135 356.314C308.351 364.407 312.99 372.561 320.474 374.489C324.716 375.582 329.148 374.472 332.51 371.516C334.409 375.24 337.634 377.908 341.479 378.899C348.962 380.827 356.502 375.811 358.284 367.716C360.067 359.623 355.429 351.47 347.946 349.541C343.705 348.448 339.272 349.559 335.911 352.514Z" stroke="#191919" stroke-miterlimit="10" stroke-linecap="round" stroke-linejoin="round"/>
<path d="M354.264 426.62C352.365 422.896 349.141 420.229 345.293 419.238C337.81 417.309 330.271 422.326 328.488 430.42C326.704 438.513 331.343 446.667 338.826 448.595C343.069 449.688 347.501 448.577 350.862 445.622C352.762 449.346 355.987 452.013 359.832 453.004C367.315 454.933 374.854 449.917 376.637 441.822C378.42 433.728 373.782 425.575 366.299 423.647C362.058 422.553 357.625 423.664 354.264 426.62Z" stroke="#191919" stroke-miterlimit="10" stroke-linecap="round" stroke-linejoin="round"/>
<path d="M230.797 440.149C228.898 436.425 225.674 433.758 221.827 432.767C214.344 430.839 206.804 435.855 205.021 443.949C203.238 452.043 207.877 460.196 215.36 462.124C219.602 463.217 224.035 462.107 227.396 459.151C229.295 462.876 232.52 465.543 236.365 466.534C243.849 468.462 251.388 463.446 253.17 455.351C254.953 447.258 250.315 439.105 242.832 437.176C238.591 436.083 234.159 437.194 230.797 440.149Z" stroke="#191919" stroke-miterlimit="10" stroke-linecap="round" stroke-linejoin="round"/>
<path d="M156.091 465.678C154.192 461.954 150.968 459.286 147.12 458.295C139.637 456.367 132.098 461.383 130.314 469.478C128.531 477.571 133.17 485.724 140.653 487.653C144.895 488.747 149.328 487.635 152.689 484.68C154.589 488.404 157.812 491.071 161.659 492.062C169.142 493.991 176.681 488.974 178.464 480.88C180.247 472.787 175.609 464.633 168.126 462.705C163.885 461.611 159.452 462.721 156.091 465.678Z" stroke="#191919" stroke-miterlimit="10" stroke-linecap="round" stroke-linejoin="round"/>
<path d="M225.11 285.67C223.211 281.946 219.987 279.279 216.14 278.288C208.657 276.36 201.117 281.376 199.334 289.47C197.551 297.564 202.19 305.717 209.673 307.645C213.915 308.738 218.348 307.628 221.709 304.672C223.608 308.397 226.832 311.064 230.678 312.055C238.162 313.983 245.701 308.967 247.484 300.872C249.267 292.779 244.629 284.626 237.146 282.697C232.904 281.604 228.472 282.714 225.11 285.67Z" stroke="#191919" stroke-miterlimit="10" stroke-linecap="round" stroke-linejoin="round"/>
</g>
<path d="M332.201 316.415C332.201 316.415 360.293 365.075 350.921 475.506H156.674C156.674 475.506 153.906 356.915 194.346 309.51" stroke="#191919" stroke-miterlimit="10" stroke-linecap="round" stroke-linejoin="round"/>
<path d="M272.493 296.147C262.319 295.171 236.218 292.081 230.191 269.194C223.409 243.434 249.294 231.564 275.919 245.793C289.258 252.922 312.077 243.737 315.436 262.587C318.723 281.034 297.981 298.595 272.493 296.147Z" fill="#DBDCD6" stroke="#191919" stroke-miterlimit="10" stroke-linecap="round" stroke-linejoin="round"/>
<path d="M241.206 252.72C241.206 252.72 260.897 287.064 305.73 262.586L241.206 252.72Z" fill="#DBDCD6"/>
<path d="M241.206 252.72C241.206 252.72 260.897 287.064 305.73 262.586" stroke="#191919" stroke-miterlimit="10" stroke-linecap="round" stroke-linejoin="round"/>
<path d="M246.622 259.423C246.622 259.423 240.257 264.518 235.231 271.388L246.622 259.423Z" fill="#DBDCD6"/>
<path d="M246.622 259.423C246.622 259.423 240.257 264.518 235.231 271.388" stroke="#191919" stroke-miterlimit="10" stroke-linecap="round" stroke-linejoin="round"/>
<path d="M255.402 266.143C255.402 266.143 249.091 272.889 244.133 282.616L255.402 266.143Z" fill="#DBDCD6"/>
<path d="M255.402 266.143C255.402 266.143 249.091 272.889 244.133 282.616" stroke="#191919" stroke-miterlimit="10" stroke-linecap="round" stroke-linejoin="round"/>
<path d="M270.026 271.389C270.026 271.389 267.391 283.649 267.08 289.582L270.026 271.389Z" fill="#DBDCD6"/>
<path d="M270.026 271.389C270.026 271.389 267.391 283.649 267.08 289.582" stroke="#191919" stroke-miterlimit="10" stroke-linecap="round" stroke-linejoin="round"/>
<path d="M284.324 270.556C284.324 270.556 287.012 277.256 287.706 286.89L284.324 270.556Z" fill="#DBDCD6"/>
<path d="M284.324 270.556C284.324 270.556 287.012 277.256 287.706 286.89" stroke="#191919" stroke-miterlimit="10" stroke-linecap="round" stroke-linejoin="round"/>
<path d="M298.087 266.143C298.087 266.143 301.856 272.664 303.65 279.766L298.087 266.143Z" fill="#DBDCD6"/>
<path d="M298.087 266.143C298.087 266.143 301.856 272.664 303.65 279.766" stroke="#191919" stroke-miterlimit="10" stroke-linecap="round" stroke-linejoin="round"/>
<path d="M304.813 433.181L304.813 433.181L304.82 433.181L304.804 432.681C304.82 433.181 304.821 433.181 304.821 433.181L304.822 433.181L304.825 433.181L304.838 433.18L304.893 433.178L305.105 433.172C305.292 433.166 305.566 433.159 305.918 433.149C306.621 433.131 307.632 433.107 308.862 433.086C311.322 433.044 314.657 433.012 318.158 433.053C321.66 433.094 325.321 433.208 328.436 433.458C329.994 433.582 331.409 433.741 332.595 433.939C333.79 434.138 334.721 434.374 335.331 434.641L335.532 434.183L335.331 434.641C340.16 436.759 362.863 447.91 374.288 456.661C374.269 456.765 374.252 456.866 374.234 456.966C374.193 457.206 374.153 457.439 374.101 457.698L374.101 457.698C372.75 464.515 368.436 469.483 362.658 473.108C356.873 476.738 349.648 479.003 342.559 480.404C335.475 481.803 328.559 482.335 323.41 482.515C320.836 482.606 318.706 482.608 317.221 482.589C316.478 482.579 315.897 482.563 315.502 482.55C315.304 482.544 315.153 482.538 315.052 482.533L314.938 482.528L314.927 482.528L314.87 482.519C314.843 482.515 314.81 482.51 314.771 482.504C314.729 482.498 314.68 482.491 314.624 482.483C314.409 482.451 314.092 482.407 313.681 482.354C312.861 482.249 311.668 482.112 310.174 481.98C307.186 481.715 302.993 481.474 298.164 481.565C288.519 481.747 276.289 483.256 266.085 488.603C261.088 491.221 257.037 492.186 253.95 492.046C250.875 491.906 248.762 490.673 247.559 488.874L247.319 488.515L246.929 488.7C242.652 490.728 238.513 490.236 236.044 488.005L235.549 487.558L235.332 488.007C230.546 490.36 225.478 489.044 223.397 485.128L223.166 484.694L222.728 484.918L222.728 484.918C222.719 484.923 222.193 485.185 221.389 485.397C220.573 485.612 219.498 485.768 218.394 485.574C217.302 485.382 216.167 484.847 215.203 483.649C214.232 482.442 213.408 480.529 213.017 477.543L213.017 477.543C212.634 474.626 213.493 471.316 215.317 467.871C217.138 464.431 219.9 460.897 223.258 457.552C229.977 450.859 239.023 444.981 247.518 442.153L247.36 441.678L247.518 442.153C263.529 436.822 284.806 433.565 304.813 433.181Z" fill="white" stroke="#191919"/>
<path d="M374.59 457.797C369.049 485.754 314.874 483.027 314.874 483.027C314.874 483.027 286.521 478.458 266.315 489.047C246.108 499.635 240.388 483.903 251.217 473.422C262.046 462.94 275.65 462.622 275.65 462.622" stroke="#191919" stroke-miterlimit="10" stroke-linecap="round" stroke-linejoin="round"/>
<path d="M266.081 457.797C266.081 457.797 243.701 459.8 235.849 473.422C228.39 486.364 237.682 493.639 247.143 489.153" stroke="#191919" stroke-miterlimit="10" stroke-linecap="round" stroke-linejoin="round"/>
<path d="M254.369 452.492C254.369 452.492 232.02 457.117 224.207 472.405C217.303 485.914 227.193 492.705 235.707 488.38" stroke="#191919" stroke-miterlimit="10" stroke-linecap="round" stroke-linejoin="round"/>
<path d="M222.958 485.362C222.958 485.362 214.122 489.839 212.519 477.608C210.915 465.377 230.203 447.39 247.358 441.678C270.778 433.881 315.83 428.57 342.623 435.723" stroke="#191919" stroke-miterlimit="10" stroke-linecap="round" stroke-linejoin="round"/>
<path d="M59.0563 463.344C59.0563 476.144 68.9483 486.519 81.1513 486.519C93.3543 486.519 103.246 476.142 103.246 463.344C103.246 450.545 93.3543 440.169 81.1513 440.169C68.9483 440.169 59.0563 450.545 59.0563 463.344ZM67.1884 463.344C67.1884 455.257 73.4394 448.7 81.1513 448.7C88.8621 448.7 95.1142 455.257 95.1142 463.344C95.1142 471.432 88.8632 477.989 81.1513 477.989C73.4405 477.988 67.1884 471.432 67.1884 463.344Z" fill="white" stroke="#191919" stroke-miterlimit="10" stroke-linecap="round" stroke-linejoin="round"/>
<path d="M92.3436 500.537H128.993C135.689 500.537 141.116 494.844 141.116 487.821V439.682C141.116 432.659 135.689 426.966 128.993 426.966H92.3436C85.6478 426.966 80.2203 432.66 80.2203 439.682V487.82C80.2193 494.844 85.6478 500.537 92.3436 500.537Z" fill="white" stroke="#191919" stroke-miterlimit="10" stroke-linecap="round" stroke-linejoin="round"/>
<path d="M122.97 416.306C141.058 410.476 139.582 382.955 122.97 370.482C108.975 359.974 120.731 355.347 116.167 327.216C111.603 299.085 87.0894 285.145 58.371 298.87C29.6526 312.595 25.7871 362.826 58.2923 377.743C81.5045 388.394 94.1076 372.2 95.6025 397.423C96.2749 408.767 107.842 421.182 122.97 416.306Z" stroke="#191919" stroke-miterlimit="10" stroke-linecap="round" stroke-linejoin="round"/>
<path d="M108.457 483.193L108.162 483.596L108.457 483.193C105.439 480.986 100.542 477.054 96.5136 472.179C92.4747 467.291 89.377 461.537 89.8023 455.669L89.8023 455.669C90.0361 452.44 91.1572 450.193 92.7356 448.781C94.3157 447.368 96.4067 446.743 98.6697 446.856C103.211 447.082 108.37 450.287 111.068 455.844L111.507 456.749L111.963 455.853L111.963 455.853L111.963 455.853L111.964 455.852L111.966 455.848L111.977 455.827C111.986 455.809 112.001 455.781 112.021 455.743C112.062 455.669 112.122 455.558 112.204 455.417C112.366 455.135 112.609 454.731 112.928 454.25C113.568 453.285 114.512 452.016 115.727 450.793C118.168 448.335 121.63 446.129 125.896 446.785L125.896 446.785C128.222 447.142 130.094 448.558 131.246 450.755C132.403 452.96 132.837 455.965 132.223 459.459C130.993 466.442 125.574 475.314 113.581 483.318C112.012 484.365 109.987 484.311 108.457 483.193Z" fill="#FF7A5C" stroke="#191919"/>
<path d="M100.594 462.28C100.594 463.058 100.406 463.739 100.127 464.208C99.8428 464.688 99.5208 464.868 99.2627 464.868C99.0046 464.868 98.6826 464.688 98.3979 464.208C98.1197 463.739 97.9315 463.058 97.9315 462.28C97.9315 461.501 98.1197 460.82 98.3979 460.351C98.6826 459.871 99.0046 459.692 99.2627 459.692C99.5208 459.692 99.8428 459.871 100.127 460.351C100.406 460.82 100.594 461.501 100.594 462.28Z" fill="black" stroke="#191919"/>
<path d="M122.712 462.28C122.712 463.058 122.524 463.739 122.246 464.208C121.961 464.688 121.639 464.868 121.381 464.868C121.123 464.868 120.801 464.688 120.516 464.208C120.238 463.739 120.05 463.058 120.05 462.28C120.05 461.501 120.238 460.82 120.516 460.351C120.801 459.871 121.123 459.692 121.381 459.692C121.639 459.692 121.961 459.871 122.246 460.351C122.524 460.82 122.712 461.501 122.712 462.28Z" fill="black" stroke="#191919"/>
<path d="M115.513 462.734C115.513 465.953 113.552 468.564 111.132 468.564C108.711 468.564 106.75 465.953 106.75 462.734" stroke="#191919" stroke-miterlimit="10" stroke-linecap="round" stroke-linejoin="round"/>
<path d="M319.484 477.989L319.014 477.82L319.484 477.989L349.03 395.934L348.56 395.765L349.03 395.934C351.111 390.156 355.332 384.9 360.489 381.085C365.647 377.269 371.702 374.923 377.422 374.912L490.139 374.697C495.847 374.686 500.111 376.997 502.449 380.678C504.793 384.367 505.259 389.522 503.179 395.299L473.633 477.354C471.552 483.131 467.33 488.387 462.174 492.202C457.016 496.019 450.961 498.364 445.241 498.375L332.524 498.592C326.816 498.603 322.553 496.291 320.214 492.61C317.871 488.921 317.404 483.766 319.484 477.989Z" fill="#191919" stroke="#191919"/>
<path d="M416.844 439.09L416.844 439.09C421.556 439.082 426.472 435.031 427.744 430.016C428.375 427.527 427.975 425.325 426.878 423.759C425.785 422.199 423.964 421.216 421.632 421.22L416.844 439.09ZM416.844 439.09C414.512 439.095 412.691 438.112 411.598 436.552M416.844 439.09L411.598 436.552M411.598 436.552C410.501 434.986 410.101 432.784 410.732 430.295M411.598 436.552L410.732 430.295M410.732 430.295C412.004 425.28 416.92 421.229 421.632 421.22L410.732 430.295Z" fill="white" stroke="#191919"/>
<path d="M251.325 496.266L251.325 496.267C251.327 497.575 252.335 498.594 253.527 498.593L251.325 496.266ZM251.325 496.266L251.303 484.243L251.303 484.242C251.3 482.933 252.304 481.911 253.496 481.909L253.497 481.909L367.06 481.691L367.06 481.691C368.25 481.689 369.258 482.707 369.261 484.017L369.281 496.041C369.281 496.041 369.281 496.042 369.281 496.042C369.283 497.351 368.278 498.374 367.088 498.375H367.087L253.527 498.593L251.325 496.266Z" fill="#191919" stroke="#191919"/>
<path d="M49.908 430.155C49.908 430.155 112.303 366.326 187.872 392.507C263.44 418.689 402.096 360.104 400.71 266.141C399.323 172.179 351.99 210.619 366.644 233.211C381.297 255.802 438.517 257.135 453.237 207.749C467.958 158.363 491.067 158.691 491.067 158.691" stroke="#D4D4D4" stroke-miterlimit="10" stroke-linecap="round" stroke-linejoin="round"/>
<path d="M403.211 182.749C409.317 182.749 414.267 178.565 414.267 173.404C414.267 168.244 409.317 164.06 403.211 164.06C397.105 164.06 392.155 168.244 392.155 173.404C392.155 178.565 397.105 182.749 403.211 182.749Z" fill="#FF7A5C"/>
<path d="M385.178 184.381C389.022 184.381 392.14 186.882 392.14 189.967C392.14 193.063 389.022 195.556 385.178 195.556C381.33 195.556 378.207 193.063 378.207 189.967C378.207 186.889 381.33 184.381 385.178 184.381ZM409.491 92.8887C431.815 92.8887 449.915 106.584 449.915 123.475C449.915 140.353 431.815 154.05 409.491 154.05C387.163 154.05 369.063 140.353 369.063 123.475C369.063 106.581 387.16 92.8887 409.491 92.8887Z" fill="#FF7A5C"/>
<path d="M452.878 60.9492C484.155 60.9492 509.518 76.6122 509.518 95.9384C509.518 115.265 484.158 130.923 452.878 130.923C421.588 130.923 396.235 115.262 396.235 95.9384C396.235 76.6122 421.588 60.9492 452.878 60.9492Z" fill="#FF7A5C"/>
<path d="M452.877 69.0222C476.836 69.0222 496.249 80.0993 496.249 93.7594C496.249 107.417 476.839 118.502 452.877 118.502C428.911 118.502 409.482 107.417 409.482 93.7594C409.482 80.0993 428.892 69.0222 452.877 69.0222Z" fill="#FF7A5C"/>
<path d="M449.914 111.081C473.873 111.081 493.309 122.158 493.309 135.823C493.309 149.475 473.875 160.563 449.914 160.563C425.95 160.563 406.518 149.475 406.518 135.823C406.518 122.158 425.928 111.081 449.914 111.081Z" fill="#FF7A5C"/>
<path d="M481.395 106.666C504.133 106.666 522.575 117.218 522.575 130.223C522.575 143.238 504.13 153.79 481.395 153.79C458.652 153.79 440.215 143.238 440.215 130.223C440.215 117.218 458.649 106.666 481.395 106.666Z" fill="#FF7A5C"/>
<path d="M403.4 119V107.432H405.344V112.208H410.944V107.432H412.888V119H410.944V113.864H405.344V119H403.4ZM415.417 119V110.728H417.281V119H415.417ZM415.385 109.28V107.44H417.313V109.28H415.385ZM419.134 121.136L420.046 119.048L419.286 118.992V116.952H421.414V118.736L419.918 121.136H419.134ZM427.634 119V107.432H429.578V119H427.634ZM431.784 111.6L432.688 109.512L431.936 109.456V107.432H434.064V109.208L432.568 111.6H431.784ZM435.698 119V110.728H437.594V111.912C437.834 111.549 438.159 111.235 438.57 110.968C438.986 110.701 439.514 110.568 440.154 110.568C440.447 110.568 440.743 110.619 441.042 110.72C441.346 110.821 441.626 110.971 441.882 111.168C442.143 111.365 442.351 111.611 442.506 111.904C442.767 111.515 443.114 111.195 443.546 110.944C443.983 110.693 444.474 110.568 445.018 110.568C445.316 110.568 445.623 110.616 445.938 110.712C446.258 110.808 446.551 110.968 446.818 111.192C447.084 111.416 447.3 111.723 447.466 112.112C447.631 112.496 447.714 112.979 447.714 113.56V119H445.77V113.792C445.77 113.381 445.698 113.059 445.554 112.824C445.41 112.589 445.223 112.424 444.994 112.328C444.77 112.227 444.53 112.176 444.274 112.176C444.044 112.176 443.804 112.221 443.554 112.312C443.308 112.403 443.098 112.552 442.922 112.76C442.751 112.968 442.666 113.248 442.666 113.6V119H440.722V113.48C440.722 113.192 440.647 112.952 440.498 112.76C440.348 112.568 440.159 112.424 439.93 112.328C439.706 112.227 439.476 112.176 439.242 112.176C439.002 112.176 438.756 112.227 438.506 112.328C438.26 112.429 438.055 112.584 437.89 112.792C437.724 113 437.642 113.269 437.642 113.6V119H435.698ZM457.99 119.16C457.414 119.16 456.862 119.091 456.334 118.952C455.806 118.808 455.323 118.597 454.886 118.32C454.454 118.037 454.096 117.688 453.814 117.272C453.531 116.851 453.358 116.36 453.294 115.8H455.31C455.395 116.189 455.563 116.517 455.814 116.784C456.07 117.051 456.392 117.253 456.782 117.392C457.171 117.531 457.606 117.6 458.086 117.6C458.512 117.6 458.91 117.536 459.278 117.408C459.646 117.28 459.944 117.091 460.174 116.84C460.403 116.584 460.517 116.269 460.517 115.896C460.517 115.475 460.368 115.147 460.07 114.912C459.776 114.672 459.355 114.483 458.806 114.344L456.542 113.808C455.955 113.675 455.443 113.48 455.006 113.224C454.574 112.968 454.238 112.632 453.998 112.216C453.758 111.795 453.638 111.28 453.638 110.672C453.638 109.979 453.827 109.379 454.206 108.872C454.59 108.365 455.11 107.976 455.766 107.704C456.422 107.427 457.16 107.288 457.982 107.288C458.92 107.288 459.712 107.445 460.358 107.76C461.003 108.069 461.494 108.485 461.83 109.008C462.166 109.531 462.336 110.104 462.342 110.728H460.374C460.331 110.264 460.195 109.899 459.966 109.632C459.736 109.36 459.446 109.163 459.094 109.04C458.742 108.917 458.352 108.856 457.926 108.856C457.168 108.856 456.606 109.019 456.238 109.344C455.87 109.669 455.686 110.051 455.686 110.488C455.686 110.899 455.822 111.224 456.094 111.464C456.366 111.704 456.782 111.891 457.342 112.024L459.494 112.528C460.214 112.677 460.792 112.907 461.23 113.216C461.667 113.525 461.984 113.893 462.182 114.32C462.384 114.741 462.486 115.208 462.486 115.72C462.486 116.392 462.294 116.987 461.91 117.504C461.531 118.021 461.006 118.427 460.334 118.72C459.662 119.013 458.88 119.16 457.99 119.16ZM464.448 119V107.112H466.368V111.928C466.501 111.72 466.677 111.52 466.896 111.328C467.114 111.131 467.381 110.971 467.696 110.848C468.016 110.72 468.397 110.656 468.84 110.656C469.368 110.656 469.85 110.757 470.288 110.96C470.725 111.163 471.074 111.456 471.336 111.84C471.597 112.219 471.728 112.672 471.728 113.2V119H469.776V113.528C469.776 113.101 469.624 112.771 469.32 112.536C469.021 112.301 468.642 112.184 468.184 112.184C467.88 112.184 467.589 112.237 467.312 112.344C467.034 112.451 466.81 112.611 466.64 112.824C466.474 113.032 466.392 113.293 466.392 113.608V119H464.448ZM477.463 119.16C476.668 119.16 475.967 118.992 475.359 118.656C474.756 118.315 474.284 117.829 473.943 117.2C473.607 116.571 473.439 115.821 473.439 114.952C473.439 114.104 473.591 113.352 473.895 112.696C474.204 112.035 474.65 111.515 475.231 111.136C475.818 110.757 476.524 110.568 477.351 110.568C478.167 110.568 478.852 110.741 479.407 111.088C479.962 111.435 480.383 111.92 480.671 112.544C480.959 113.163 481.103 113.888 481.103 114.72V115.312H475.383C475.378 115.781 475.452 116.197 475.607 116.56C475.762 116.923 475.991 117.208 476.295 117.416C476.599 117.619 476.975 117.72 477.423 117.72C477.882 117.72 478.279 117.619 478.615 117.416C478.956 117.208 479.183 116.893 479.295 116.472H481.071C480.975 117.048 480.746 117.536 480.383 117.936C480.026 118.336 479.588 118.64 479.071 118.848C478.559 119.056 478.023 119.16 477.463 119.16ZM475.375 114.104H479.263C479.263 113.704 479.191 113.344 479.047 113.024C478.908 112.699 478.698 112.443 478.415 112.256C478.132 112.064 477.775 111.968 477.343 111.968C476.916 111.968 476.556 112.072 476.263 112.28C475.97 112.488 475.748 112.757 475.599 113.088C475.45 113.413 475.375 113.752 475.375 114.104ZM482.963 119V110.728H484.867V111.912C484.995 111.699 485.169 111.493 485.387 111.296C485.611 111.099 485.886 110.939 486.211 110.816C486.537 110.693 486.918 110.632 487.355 110.632C487.867 110.632 488.342 110.733 488.779 110.936C489.222 111.139 489.577 111.456 489.843 111.888C490.115 112.32 490.251 112.877 490.251 113.56V119H488.299V113.792C488.299 113.248 488.15 112.845 487.851 112.584C487.553 112.317 487.177 112.184 486.723 112.184C486.414 112.184 486.121 112.237 485.843 112.344C485.566 112.445 485.339 112.603 485.163 112.816C484.993 113.024 484.907 113.285 484.907 113.6V119H482.963Z" fill="white"/>
</g>
<defs>
<filter id="filter0_d_113_184" x="45.3923" y="188.401" width="30.0913" height="20.7889" filterUnits="userSpaceOnUse" color-interpolation-filters="sRGB">
<feFlood flood-opacity="0" result="BackgroundImageFix"/>
<feColorMatrix in="SourceAlpha" type="matrix" values="0 0 0 0 0 0 0 0 0 0 0 0 0 0 0 0 0 0 127 0" result="hardAlpha"/>
<feOffset dx="0.850422" dy="0.850422"/>
<feColorMatrix type="matrix" values="0 0 0 0 0.0980392 0 0 0 0 0.0980392 0 0 0 0 0.0980392 0 0 0 1 0"/>
<feBlend mode="normal" in2="BackgroundImageFix" result="effect1_dropShadow_113_184"/>
<feBlend mode="normal" in="SourceGraphic" in2="effect1_dropShadow_113_184" result="shape"/>
</filter>
<filter id="filter1_d_113_184" x="464.492" y="256.578" width="16.632" height="15.3814" filterUnits="userSpaceOnUse" color-interpolation-filters="sRGB">
<feFlood flood-opacity="0" result="BackgroundImageFix"/>
<feColorMatrix in="SourceAlpha" type="matrix" values="0 0 0 0 0 0 0 0 0 0 0 0 0 0 0 0 0 0 127 0" result="hardAlpha"/>
<feOffset dx="0.686974" dy="0.686974"/>
<feColorMatrix type="matrix" values="0 0 0 0 0 0 0 0 0 0 0 0 0 0 0 0 0 0 1 0"/>
<feBlend mode="normal" in2="BackgroundImageFix" result="effect1_dropShadow_113_184"/>
<feBlend mode="normal" in="SourceGraphic" in2="effect1_dropShadow_113_184" result="shape"/>
</filter>
<filter id="filter2_d_113_184" x="236.38" y="78.9414" width="16.8411" height="18.9639" filterUnits="userSpaceOnUse" color-interpolation-filters="sRGB">
<feFlood flood-opacity="0" result="BackgroundImageFix"/>
<feColorMatrix in="SourceAlpha" type="matrix" values="0 0 0 0 0 0 0 0 0 0 0 0 0 0 0 0 0 0 127 0" result="hardAlpha"/>
<feOffset dx="0.738539" dy="0.738539"/>
<feColorMatrix type="matrix" values="0 0 0 0 0 0 0 0 0 0 0 0 0 0 0 0 0 0 1 0"/>
<feBlend mode="normal" in2="BackgroundImageFix" result="effect1_dropShadow_113_184"/>
<feBlend mode="normal" in="SourceGraphic" in2="effect1_dropShadow_113_184" result="shape"/>
</filter>
<filter id="filter3_d_113_184" x="326.009" y="205.663" width="16.7264" height="22.7437" filterUnits="userSpaceOnUse" color-interpolation-filters="sRGB">
<feFlood flood-opacity="0" result="BackgroundImageFix"/>
<feColorMatrix in="SourceAlpha" type="matrix" values="0 0 0 0 0 0 0 0 0 0 0 0 0 0 0 0 0 0 127 0" result="hardAlpha"/>
<feOffset dx="0.70585" dy="0.70585"/>
<feColorMatrix type="matrix" values="0 0 0 0 0 0 0 0 0 0 0 0 0 0 0 0 0 0 1 0"/>
<feBlend mode="normal" in2="BackgroundImageFix" result="effect1_dropShadow_113_184"/>
<feBlend mode="normal" in="SourceGraphic" in2="effect1_dropShadow_113_184" result="shape"/>
</filter>
<filter id="filter4_d_113_184" x="179.094" y="60.1646" width="8.16325" height="32.9194" filterUnits="userSpaceOnUse" color-interpolation-filters="sRGB">
<feFlood flood-opacity="0" result="BackgroundImageFix"/>
<feColorMatrix in="SourceAlpha" type="matrix" values="0 0 0 0 0 0 0 0 0 0 0 0 0 0 0 0 0 0 127 0" result="hardAlpha"/>
<feOffset dx="0.314125" dy="0.314125"/>
<feColorMatrix type="matrix" values="0 0 0 0 0 0 0 0 0 0 0 0 0 0 0 0 0 0 1 0"/>
<feBlend mode="normal" in2="BackgroundImageFix" result="effect1_dropShadow_113_184"/>
<feBlend mode="normal" in="SourceGraphic" in2="effect1_dropShadow_113_184" result="shape"/>
</filter>
<filter id="filter5_d_113_184" x="359.153" y="280.432" width="15.2066" height="4.52696" filterUnits="userSpaceOnUse" color-interpolation-filters="sRGB">
<feFlood flood-opacity="0" result="BackgroundImageFix"/>
<feColorMatrix in="SourceAlpha" type="matrix" values="0 0 0 0 0 0 0 0 0 0 0 0 0 0 0 0 0 0 127 0" result="hardAlpha"/>
<feOffset dx="0.157513" dy="0.157513"/>
<feColorMatrix type="matrix" values="0 0 0 0 0 0 0 0 0 0 0 0 0 0 0 0 0 0 1 0"/>
<feBlend mode="normal" in2="BackgroundImageFix" result="effect1_dropShadow_113_184"/>
<feBlend mode="normal" in="SourceGraphic" in2="effect1_dropShadow_113_184" result="shape"/>
</filter>
<clipPath id="clip0_113_184">
<rect width="532" height="558" fill="white"/>
</clipPath>
</defs>
</svg>
