<svg width="232" height="131" viewBox="0 0 232 131" fill="none" xmlns="http://www.w3.org/2000/svg">
<g filter="url(#filter0_d_151_13)">
<mask id="path-1-outside-1_151_13" maskUnits="userSpaceOnUse" x="4" y="72" width="218" height="46" fill="black">
<rect fill="white" x="4" y="72" width="218" height="46"/>
<path d="M31.32 116V74H41.52V116H31.32ZM5.28 116V74H15.48V116H5.28ZM9.24 99.62L9.3 90.5H36.72V99.62H9.24ZM52.0378 116V74H81.3178V82.7H61.9378V107.3H81.9178V116H52.0378ZM56.8378 98.78V90.5H78.6178V98.78H56.8378ZM90.7097 116V74H100.91V107H119.63V116H90.7097ZM127.272 116V74H137.472V107H156.192V116H127.272ZM181.803 116.6C178.603 116.6 175.683 116.06 173.043 114.98C170.403 113.9 168.103 112.38 166.143 110.42C164.183 108.46 162.663 106.16 161.583 103.52C160.503 100.88 159.963 97.98 159.963 94.82C159.963 91.66 160.503 88.76 161.583 86.12C162.663 83.48 164.183 81.18 166.143 79.22C168.103 77.26 170.403 75.74 173.043 74.66C175.683 73.58 178.583 73.04 181.743 73.04C184.903 73.04 187.803 73.58 190.443 74.66C193.083 75.74 195.383 77.26 197.343 79.22C199.303 81.18 200.803 83.48 201.843 86.12C202.923 88.76 203.463 91.66 203.463 94.82C203.463 97.94 202.923 100.84 201.843 103.52C200.803 106.16 199.303 108.46 197.343 110.42C195.383 112.38 193.083 113.9 190.443 114.98C187.803 116.06 184.923 116.6 181.803 116.6ZM181.743 107C183.383 107 184.883 106.7 186.243 106.1C187.643 105.5 188.843 104.66 189.843 103.58C190.883 102.46 191.683 101.16 192.243 99.68C192.803 98.2 193.083 96.58 193.083 94.82C193.083 93.06 192.803 91.44 192.243 89.96C191.683 88.48 190.883 87.2 189.843 86.12C188.843 85 187.643 84.14 186.243 83.54C184.883 82.94 183.383 82.64 181.743 82.64C180.103 82.64 178.583 82.94 177.183 83.54C175.823 84.14 174.623 85 173.583 86.12C172.543 87.2 171.743 88.48 171.183 89.96C170.663 91.44 170.403 93.06 170.403 94.82C170.403 96.58 170.663 98.22 171.183 99.74C171.743 101.22 172.543 102.5 173.583 103.58C174.623 104.66 175.823 105.5 177.183 106.1C178.583 106.7 180.103 107 181.743 107ZM212.314 100.7C211.994 98.26 211.674 95.74 211.354 93.14C211.034 90.54 210.774 87.96 210.574 85.4C210.374 82.84 210.274 80.38 210.274 78.02V73.34H220.414V78.02C220.414 80.42 220.314 82.92 220.114 85.52C219.914 88.12 219.654 90.72 219.334 93.32C219.014 95.88 218.674 98.34 218.314 100.7H212.314ZM215.314 116.66C213.674 116.66 212.394 116.2 211.474 115.28C210.554 114.36 210.094 113.04 210.094 111.32C210.094 109.72 210.574 108.42 211.534 107.42C212.494 106.42 213.754 105.92 215.314 105.92C216.954 105.92 218.214 106.4 219.094 107.36C220.014 108.28 220.474 109.6 220.474 111.32C220.474 112.88 219.994 114.16 219.034 115.16C218.074 116.16 216.834 116.66 215.314 116.66Z"/>
</mask>
<path d="M31.32 116V74H41.52V116H31.32ZM5.28 116V74H15.48V116H5.28ZM9.24 99.62L9.3 90.5H36.72V99.62H9.24ZM52.0378 116V74H81.3178V82.7H61.9378V107.3H81.9178V116H52.0378ZM56.8378 98.78V90.5H78.6178V98.78H56.8378ZM90.7097 116V74H100.91V107H119.63V116H90.7097ZM127.272 116V74H137.472V107H156.192V116H127.272ZM181.803 116.6C178.603 116.6 175.683 116.06 173.043 114.98C170.403 113.9 168.103 112.38 166.143 110.42C164.183 108.46 162.663 106.16 161.583 103.52C160.503 100.88 159.963 97.98 159.963 94.82C159.963 91.66 160.503 88.76 161.583 86.12C162.663 83.48 164.183 81.18 166.143 79.22C168.103 77.26 170.403 75.74 173.043 74.66C175.683 73.58 178.583 73.04 181.743 73.04C184.903 73.04 187.803 73.58 190.443 74.66C193.083 75.74 195.383 77.26 197.343 79.22C199.303 81.18 200.803 83.48 201.843 86.12C202.923 88.76 203.463 91.66 203.463 94.82C203.463 97.94 202.923 100.84 201.843 103.52C200.803 106.16 199.303 108.46 197.343 110.42C195.383 112.38 193.083 113.9 190.443 114.98C187.803 116.06 184.923 116.6 181.803 116.6ZM181.743 107C183.383 107 184.883 106.7 186.243 106.1C187.643 105.5 188.843 104.66 189.843 103.58C190.883 102.46 191.683 101.16 192.243 99.68C192.803 98.2 193.083 96.58 193.083 94.82C193.083 93.06 192.803 91.44 192.243 89.96C191.683 88.48 190.883 87.2 189.843 86.12C188.843 85 187.643 84.14 186.243 83.54C184.883 82.94 183.383 82.64 181.743 82.64C180.103 82.64 178.583 82.94 177.183 83.54C175.823 84.14 174.623 85 173.583 86.12C172.543 87.2 171.743 88.48 171.183 89.96C170.663 91.44 170.403 93.06 170.403 94.82C170.403 96.58 170.663 98.22 171.183 99.74C171.743 101.22 172.543 102.5 173.583 103.58C174.623 104.66 175.823 105.5 177.183 106.1C178.583 106.7 180.103 107 181.743 107ZM212.314 100.7C211.994 98.26 211.674 95.74 211.354 93.14C211.034 90.54 210.774 87.96 210.574 85.4C210.374 82.84 210.274 80.38 210.274 78.02V73.34H220.414V78.02C220.414 80.42 220.314 82.92 220.114 85.52C219.914 88.12 219.654 90.72 219.334 93.32C219.014 95.88 218.674 98.34 218.314 100.7H212.314ZM215.314 116.66C213.674 116.66 212.394 116.2 211.474 115.28C210.554 114.36 210.094 113.04 210.094 111.32C210.094 109.72 210.574 108.42 211.534 107.42C212.494 106.42 213.754 105.92 215.314 105.92C216.954 105.92 218.214 106.4 219.094 107.36C220.014 108.28 220.474 109.6 220.474 111.32C220.474 112.88 219.994 114.16 219.034 115.16C218.074 116.16 216.834 116.66 215.314 116.66Z" fill="#FF7A5C"/>
<path d="M31.32 116H30.32V117H31.32V116ZM31.32 74V73H30.32V74H31.32ZM41.52 74H42.52V73H41.52V74ZM41.52 116V117H42.52V116H41.52ZM5.28 116H4.28V117H5.28V116ZM5.28 74V73H4.28V74H5.28ZM15.48 74H16.48V73H15.48V74ZM15.48 116V117H16.48V116H15.48ZM9.24 99.62L8.24002 99.6134L8.2334 100.62H9.24V99.62ZM9.3 90.5V89.5H8.30656L8.30002 90.4934L9.3 90.5ZM36.72 90.5H37.72V89.5H36.72V90.5ZM36.72 99.62V100.62H37.72V99.62H36.72ZM32.32 116V74H30.32V116H32.32ZM31.32 75H41.52V73H31.32V75ZM40.52 74V116H42.52V74H40.52ZM41.52 115H31.32V117H41.52V115ZM6.28 116V74H4.28V116H6.28ZM5.28 75H15.48V73H5.28V75ZM14.48 74V116H16.48V74H14.48ZM15.48 115H5.28V117H15.48V115ZM10.24 99.6266L10.3 90.5066L8.30002 90.4934L8.24002 99.6134L10.24 99.6266ZM9.3 91.5H36.72V89.5H9.3V91.5ZM35.72 90.5V99.62H37.72V90.5H35.72ZM36.72 98.62H9.24V100.62H36.72V98.62ZM52.0378 116H51.0378V117H52.0378V116ZM52.0378 74V73H51.0378V74H52.0378ZM81.3178 74H82.3178V73H81.3178V74ZM81.3178 82.7V83.7H82.3178V82.7H81.3178ZM61.9378 82.7V81.7H60.9378V82.7H61.9378ZM61.9378 107.3H60.9378V108.3H61.9378V107.3ZM81.9178 107.3H82.9178V106.3H81.9178V107.3ZM81.9178 116V117H82.9178V116H81.9178ZM56.8378 98.78H55.8378V99.78H56.8378V98.78ZM56.8378 90.5V89.5H55.8378V90.5H56.8378ZM78.6178 90.5H79.6178V89.5H78.6178V90.5ZM78.6178 98.78V99.78H79.6178V98.78H78.6178ZM53.0378 116V74H51.0378V116H53.0378ZM52.0378 75H81.3178V73H52.0378V75ZM80.3178 74V82.7H82.3178V74H80.3178ZM81.3178 81.7H61.9378V83.7H81.3178V81.7ZM60.9378 82.7V107.3H62.9378V82.7H60.9378ZM61.9378 108.3H81.9178V106.3H61.9378V108.3ZM80.9178 107.3V116H82.9178V107.3H80.9178ZM81.9178 115H52.0378V117H81.9178V115ZM57.8378 98.78V90.5H55.8378V98.78H57.8378ZM56.8378 91.5H78.6178V89.5H56.8378V91.5ZM77.6178 90.5V98.78H79.6178V90.5H77.6178ZM78.6178 97.78H56.8378V99.78H78.6178V97.78ZM90.7097 116H89.7097V117H90.7097V116ZM90.7097 74V73H89.7097V74H90.7097ZM100.91 74H101.91V73H100.91V74ZM100.91 107H99.9097V108H100.91V107ZM119.63 107H120.63V106H119.63V107ZM119.63 116V117H120.63V116H119.63ZM91.7097 116V74H89.7097V116H91.7097ZM90.7097 75H100.91V73H90.7097V75ZM99.9097 74V107H101.91V74H99.9097ZM100.91 108H119.63V106H100.91V108ZM118.63 107V116H120.63V107H118.63ZM119.63 115H90.7097V117H119.63V115ZM127.272 116H126.272V117H127.272V116ZM127.272 74V73H126.272V74H127.272ZM137.472 74H138.472V73H137.472V74ZM137.472 107H136.472V108H137.472V107ZM156.192 107H157.192V106H156.192V107ZM156.192 116V117H157.192V116H156.192ZM128.272 116V74H126.272V116H128.272ZM127.272 75H137.472V73H127.272V75ZM136.472 74V107H138.472V74H136.472ZM137.472 108H156.192V106H137.472V108ZM155.192 107V116H157.192V107H155.192ZM156.192 115H127.272V117H156.192V115ZM173.043 114.98L172.664 115.906L172.664 115.906L173.043 114.98ZM166.143 110.42L166.85 109.713L166.85 109.713L166.143 110.42ZM161.583 103.52L160.657 103.899L160.657 103.899L161.583 103.52ZM161.583 86.12L160.657 85.7414L160.657 85.7414L161.583 86.12ZM166.143 79.22L166.85 79.9271L166.85 79.9271L166.143 79.22ZM173.043 74.66L173.421 75.5855L173.421 75.5855L173.043 74.66ZM190.443 74.66L190.064 75.5855L190.064 75.5855L190.443 74.66ZM197.343 79.22L196.636 79.9271L196.636 79.9271L197.343 79.22ZM201.843 86.12L200.912 86.4866L200.917 86.4986L201.843 86.12ZM201.843 103.52L200.915 103.146L200.912 103.153L201.843 103.52ZM197.343 110.42L196.636 109.713L196.636 109.713L197.343 110.42ZM190.443 114.98L190.064 114.054L190.064 114.054L190.443 114.98ZM186.243 106.1L185.849 105.181L185.839 105.185L186.243 106.1ZM189.843 103.58L189.11 102.9L189.109 102.901L189.843 103.58ZM189.843 86.12L189.097 86.786L189.109 86.8001L189.122 86.8136L189.843 86.12ZM186.243 83.54L185.839 84.455L185.849 84.4591L186.243 83.54ZM177.183 83.54L176.789 82.6208L176.779 82.6251L177.183 83.54ZM173.583 86.12L174.303 86.8136L174.309 86.8071L174.316 86.8004L173.583 86.12ZM171.183 89.96L170.248 89.6061L170.243 89.6173L170.239 89.6285L171.183 89.96ZM171.183 99.74L170.237 100.064L170.242 100.079L170.248 100.094L171.183 99.74ZM173.583 103.58L174.303 102.886L174.303 102.886L173.583 103.58ZM177.183 106.1L176.779 107.015L176.789 107.019L177.183 106.1ZM181.803 115.6C178.717 115.6 175.927 115.08 173.421 114.054L172.664 115.906C175.438 117.04 178.489 117.6 181.803 117.6V115.6ZM173.421 114.054C170.901 113.023 168.713 111.576 166.85 109.713L165.436 111.127C167.492 113.184 169.905 114.777 172.664 115.906L173.421 114.054ZM166.85 109.713C164.987 107.85 163.54 105.662 162.508 103.141L160.657 103.899C161.786 106.658 163.379 109.07 165.436 111.127L166.85 109.713ZM162.508 103.141C161.483 100.634 160.963 97.8642 160.963 94.82H158.963C158.963 98.0958 159.523 101.126 160.657 103.899L162.508 103.141ZM160.963 94.82C160.963 91.7758 161.483 89.0061 162.508 86.4986L160.657 85.7414C159.523 88.5139 158.963 91.5442 158.963 94.82H160.963ZM162.508 86.4986C163.54 83.9779 164.987 81.7905 166.85 79.9271L165.436 78.5129C163.379 80.5695 161.786 82.9821 160.657 85.7414L162.508 86.4986ZM166.85 79.9271C168.713 78.0638 170.901 76.6168 173.421 75.5855L172.664 73.7345C169.905 74.8632 167.492 76.4562 165.436 78.5129L166.85 79.9271ZM173.421 75.5855C175.929 74.5598 178.699 74.04 181.743 74.04V72.04C178.467 72.04 175.437 72.6002 172.664 73.7345L173.421 75.5855ZM181.743 74.04C184.787 74.04 187.557 74.5598 190.064 75.5855L190.821 73.7345C188.049 72.6002 185.019 72.04 181.743 72.04V74.04ZM190.064 75.5855C192.585 76.6168 194.772 78.0638 196.636 79.9271L198.05 78.5129C195.993 76.4562 193.581 74.8632 190.821 73.7345L190.064 75.5855ZM196.636 79.9271C198.496 81.7878 199.921 83.9711 200.912 86.4865L202.773 85.7535C201.684 82.9889 200.109 80.5722 198.05 78.5129L196.636 79.9271ZM200.917 86.4986C201.943 89.0061 202.463 91.7758 202.463 94.82H204.463C204.463 91.5442 203.903 88.5139 202.768 85.7414L200.917 86.4986ZM202.463 94.82C202.463 97.8222 201.944 100.594 200.915 103.146L202.77 103.894C203.902 101.086 204.463 98.0578 204.463 94.82H202.463ZM200.912 103.153C199.921 105.669 198.496 107.852 196.636 109.713L198.05 111.127C200.109 109.068 201.684 106.651 202.773 103.887L200.912 103.153ZM196.636 109.713C194.772 111.576 192.585 113.023 190.064 114.054L190.821 115.906C193.581 114.777 195.993 113.184 198.05 111.127L196.636 109.713ZM190.064 114.054C187.555 115.081 184.805 115.6 181.803 115.6V117.6C185.04 117.6 188.05 117.039 190.821 115.906L190.064 114.054ZM181.743 108C183.507 108 185.147 107.677 186.646 107.015L185.839 105.185C184.619 105.723 183.258 106 181.743 106V108ZM186.637 107.019C188.161 106.366 189.478 105.446 190.577 104.259L189.109 102.901C188.208 103.874 187.125 104.634 185.849 105.181L186.637 107.019ZM190.576 104.26C191.707 103.042 192.574 101.63 193.178 100.034L191.308 99.3261C190.792 100.69 190.059 101.878 189.11 102.9L190.576 104.26ZM193.178 100.034C193.785 98.4288 194.083 96.6874 194.083 94.82H192.083C192.083 96.4726 191.82 97.9712 191.308 99.3261L193.178 100.034ZM194.083 94.82C194.083 92.9526 193.785 91.2112 193.178 89.6061L191.308 90.3139C191.82 91.6688 192.083 93.1674 192.083 94.82H194.083ZM193.178 89.6061C192.573 88.0066 191.702 86.6092 190.563 85.4264L189.122 86.8136C190.063 87.7908 190.793 88.9534 191.308 90.3139L193.178 89.6061ZM190.589 85.454C189.49 84.2233 188.169 83.2776 186.637 82.6209L185.849 84.4591C187.116 85.0024 188.196 85.7767 189.097 86.786L190.589 85.454ZM186.646 82.6251C185.147 81.9634 183.507 81.64 181.743 81.64V83.64C183.258 83.64 184.619 83.9166 185.839 84.4549L186.646 82.6251ZM181.743 81.64C179.978 81.64 178.323 81.9635 176.789 82.6209L177.577 84.4591C178.843 83.9165 180.228 83.64 181.743 83.64V81.64ZM176.779 82.6251C175.291 83.2816 173.98 84.2227 172.85 85.4395L174.316 86.8004C175.266 85.7773 176.355 84.9984 177.586 84.4549L176.779 82.6251ZM172.862 85.4264C171.723 86.6092 170.853 88.0066 170.248 89.6061L172.118 90.3139C172.633 88.9534 173.362 87.7908 174.303 86.8136L172.862 85.4264ZM170.239 89.6285C169.678 91.2272 169.403 92.9607 169.403 94.82H171.403C171.403 93.1593 171.648 91.6528 172.126 90.2915L170.239 89.6285ZM169.403 94.82C169.403 96.6796 169.678 98.43 170.237 100.064L172.129 99.4163C171.648 98.01 171.403 96.4804 171.403 94.82H169.403ZM170.248 100.094C170.853 101.693 171.723 103.091 172.862 104.274L174.303 102.886C173.362 101.909 172.633 100.747 172.118 99.3861L170.248 100.094ZM172.862 104.274C173.992 105.446 175.299 106.362 176.779 107.015L177.586 105.185C176.346 104.638 175.254 103.874 174.303 102.886L172.862 104.274ZM176.789 107.019C178.323 107.676 179.978 108 181.743 108V106C180.228 106 178.843 105.724 177.577 105.181L176.789 107.019ZM212.314 100.7L211.323 100.83L211.437 101.7H212.314V100.7ZM211.354 93.14L212.347 93.0178L212.347 93.0178L211.354 93.14ZM210.574 85.4L211.571 85.3221L211.571 85.3221L210.574 85.4ZM210.274 73.34V72.34H209.274V73.34H210.274ZM220.414 73.34H221.414V72.34H220.414V73.34ZM219.334 93.32L220.326 93.444L220.327 93.4422L219.334 93.32ZM218.314 100.7V101.7H219.173L219.303 100.851L218.314 100.7ZM211.474 115.28L212.181 114.573L211.474 115.28ZM211.534 107.42L212.256 108.113L212.256 108.113L211.534 107.42ZM219.094 107.36L218.357 108.036L218.372 108.052L218.387 108.067L219.094 107.36ZM219.034 115.16L218.313 114.467L218.313 114.467L219.034 115.16ZM213.306 100.57C212.986 98.1328 212.666 95.6154 212.347 93.0178L210.362 93.2622C210.682 95.8646 211.002 98.3872 211.323 100.83L213.306 100.57ZM212.347 93.0178C212.029 90.4323 211.77 87.867 211.571 85.3221L209.577 85.4779C209.778 88.053 210.04 90.6477 210.362 93.2622L212.347 93.0178ZM211.571 85.3221C211.373 82.7858 211.274 80.3519 211.274 78.02H209.274C209.274 80.4081 209.375 82.8942 209.577 85.4779L211.571 85.3221ZM211.274 78.02V73.34H209.274V78.02H211.274ZM210.274 74.34H220.414V72.34H210.274V74.34ZM219.414 73.34V78.02H221.414V73.34H219.414ZM219.414 78.02C219.414 80.3923 219.315 82.8667 219.117 85.4433L221.111 85.5967C221.313 82.9733 221.414 80.4477 221.414 78.02H219.414ZM219.117 85.4433C218.918 88.028 218.66 90.6129 218.342 93.1978L220.327 93.4422C220.649 90.8271 220.91 88.212 221.111 85.5967L219.117 85.4433ZM218.342 93.196C218.023 95.7477 217.684 98.1988 217.326 100.549L219.303 100.851C219.664 98.4812 220.005 96.0123 220.326 93.444L218.342 93.196ZM218.314 99.7H212.314V101.7H218.314V99.7ZM215.314 115.66C213.867 115.66 212.868 115.26 212.181 114.573L210.767 115.987C211.921 117.14 213.482 117.66 215.314 117.66V115.66ZM212.181 114.573C211.503 113.895 211.094 112.863 211.094 111.32H209.094C209.094 113.217 209.605 114.825 210.767 115.987L212.181 114.573ZM211.094 111.32C211.094 109.935 211.502 108.898 212.256 108.113L210.813 106.727C209.646 107.942 209.094 109.505 209.094 111.32H211.094ZM212.256 108.113C213.003 107.334 213.989 106.92 215.314 106.92V104.92C213.519 104.92 211.986 105.506 210.813 106.727L212.256 108.113ZM215.314 106.92C216.752 106.92 217.713 107.333 218.357 108.036L219.831 106.684C218.715 105.467 217.157 104.92 215.314 104.92V106.92ZM218.387 108.067C219.065 108.745 219.474 109.777 219.474 111.32H221.474C221.474 109.423 220.963 107.815 219.801 106.653L218.387 108.067ZM219.474 111.32C219.474 112.657 219.071 113.678 218.313 114.467L219.756 115.853C220.917 114.642 221.474 113.103 221.474 111.32H219.474ZM218.313 114.467C217.561 115.251 216.591 115.66 215.314 115.66V117.66C217.077 117.66 218.588 117.069 219.756 115.853L218.313 114.467Z" fill="black" mask="url(#path-1-outside-1_151_13)"/>
</g>
<circle cx="228" cy="4" r="4" transform="rotate(90 228 4)" fill="#DBDCD6"/>
<circle cx="200" cy="4" r="4" transform="rotate(90 200 4)" fill="#DBDCD6"/>
<circle cx="172" cy="4" r="4" transform="rotate(90 172 4)" fill="#DBDCD6"/>
<circle cx="144" cy="4" r="4" transform="rotate(90 144 4)" fill="#DBDCD6"/>
<circle cx="116" cy="4" r="4" transform="rotate(90 116 4)" fill="#DBDCD6"/>
<circle cx="88" cy="4" r="4" transform="rotate(90 88 4)" fill="#DBDCD6"/>
<circle cx="60" cy="4" r="4" transform="rotate(90 60 4)" fill="#DBDCD6"/>
<circle cx="32" cy="4" r="4" transform="rotate(90 32 4)" fill="#DBDCD6"/>
<circle cx="4" cy="4" r="4" transform="rotate(90 4 4)" fill="#DBDCD6"/>
<circle cx="228" cy="23" r="4" transform="rotate(90 228 23)" fill="#DBDCD6"/>
<circle cx="200" cy="23" r="4" transform="rotate(90 200 23)" fill="#DBDCD6"/>
<circle cx="172" cy="23" r="4" transform="rotate(90 172 23)" fill="#DBDCD6"/>
<circle cx="144" cy="23" r="4" transform="rotate(90 144 23)" fill="#DBDCD6"/>
<circle cx="116" cy="23" r="4" transform="rotate(90 116 23)" fill="#DBDCD6"/>
<circle cx="88" cy="23" r="4" transform="rotate(90 88 23)" fill="#DBDCD6"/>
<circle cx="60" cy="23" r="4" transform="rotate(90 60 23)" fill="#DBDCD6"/>
<circle cx="32" cy="23" r="4" transform="rotate(90 32 23)" fill="#DBDCD6"/>
<circle cx="4" cy="23" r="4" transform="rotate(90 4 23)" fill="#DBDCD6"/>
<defs>
<filter id="filter0_d_151_13" x="4.28003" y="72.04" width="221.194" height="49.62" filterUnits="userSpaceOnUse" color-interpolation-filters="sRGB">
<feFlood flood-opacity="0" result="BackgroundImageFix"/>
<feColorMatrix in="SourceAlpha" type="matrix" values="0 0 0 0 0 0 0 0 0 0 0 0 0 0 0 0 0 0 127 0" result="hardAlpha"/>
<feOffset dx="4" dy="4"/>
<feColorMatrix type="matrix" values="0 0 0 0 0 0 0 0 0 0 0 0 0 0 0 0 0 0 1 0"/>
<feBlend mode="normal" in2="BackgroundImageFix" result="effect1_dropShadow_151_13"/>
<feBlend mode="normal" in="SourceGraphic" in2="effect1_dropShadow_151_13" result="shape"/>
</filter>
</defs>
</svg>
