<svg width="70" height="70" viewBox="0 0 70 70" fill="none" xmlns="http://www.w3.org/2000/svg">
<path d="M35 0C28.0777 0 21.3108 2.05271 15.5551 5.89856C9.79934 9.74441 5.3133 15.2107 2.66423 21.6061C0.0151648 28.0015 -0.677952 35.0388 0.672531 41.8282C2.02301 48.6175 5.35644 54.8539 10.2513 59.7487C15.1461 64.6436 21.3825 67.977 28.1719 69.3275C34.9612 70.678 41.9985 69.9848 48.3939 67.3358C54.7893 64.6867 60.2556 60.2007 64.1015 54.445C67.9473 48.6892 70 41.9223 70 35C70 25.7174 66.3125 16.815 59.7488 10.2513C53.185 3.68749 44.2826 0 35 0ZM39.1404 7.33086C45.65 8.36188 51.5781 11.6818 55.8584 16.6934C60.1387 21.7051 62.4903 28.0795 62.4903 34.6702C62.491 38.3057 61.7756 41.9057 60.3849 45.2646C58.9941 48.6236 56.9554 51.6756 54.385 54.2465C51.8146 56.8175 48.7629 58.8568 45.4042 60.2482C42.0456 61.6396 38.4457 62.3558 34.8102 62.3558V62.3503C30.9923 62.3503 27.2156 61.5605 23.7176 60.0304C20.2196 58.5004 17.0759 56.2632 14.4843 53.4596C11.8926 50.656 9.90894 47.3465 8.65803 43.7392C7.40712 40.132 6.91599 36.305 7.21551 32.4987C7.51503 28.6925 8.59872 24.9894 10.3985 21.6222C12.1982 18.255 14.6751 15.2966 17.6734 12.9328C20.6717 10.5691 24.1266 8.85121 27.8208 7.88713C31.5151 6.92306 35.3694 6.73367 39.1404 7.33086ZM30.806 12.4638V26.8466L32.2323 28.6803H37.5113L38.8478 26.8466V12.4638H30.806ZM47.331 15.4137L40.9172 24.2402L42.6907 25.5287L49.1039 16.7016L47.331 15.4137ZM22.6335 15.4148L20.8595 16.7027L27.2727 25.5287L29.0462 24.2408L22.6335 15.4148ZM15.3617 23.7426L12.8724 31.3868L26.5563 35.8329L28.7378 35.0448L30.3702 30.0229L29.0391 28.1838L15.3617 23.7426ZM54.4102 23.7426L40.7318 28.1832L39.4292 30.1016L41.0616 35.1291L43.2146 35.8334L56.8985 31.3873L54.4102 23.7426ZM46.2115 36.802L45.5339 38.8855L55.9098 42.2576L56.5868 40.174L46.2115 36.802ZM23.4779 36.803L13.102 40.1745L13.7791 42.2581L24.1549 38.8872L23.4779 36.803ZM29.4301 37.0912L27.277 37.7852L18.8169 49.4277L25.3258 54.1527L33.7756 42.5097L33.7028 40.1942L29.4301 37.0912ZM40.2621 37.1131L35.9844 40.2172V42.4878L44.4391 54.1242L50.942 49.3992L42.4873 37.7628L40.2621 37.1131ZM33.647 45.6192V56.5294H35.8389V45.6192H33.647Z" fill="#8A4182"/>
</svg>
