<svg width="70" height="70" viewBox="0 0 70 70" fill="none" xmlns="http://www.w3.org/2000/svg">
<g clip-path="url(#clip0_92_151)">
<path d="M59.5 0H10.5C4.70101 0 0 4.70101 0 10.5V59.5C0 65.299 4.70101 70 10.5 70H59.5C65.299 70 70 65.299 70 59.5V10.5C70 4.70101 65.299 0 59.5 0Z" fill="#F7DF1E"/>
<path d="M44.2969 50.5859C45.6641 52.9102 47.5781 54.5508 50.7227 54.5508C53.457 54.5508 55.2344 53.1836 55.2344 51.2695C55.2344 49.082 53.457 48.2617 50.4492 46.8945L48.8086 46.2109C44.0234 44.1602 40.8789 41.6992 40.8789 36.3672C40.8789 31.4453 44.5703 27.6172 50.4492 27.6172C54.6875 27.6172 57.6953 29.1211 59.7461 32.9492L54.6875 36.2305C53.5938 34.1797 52.3633 33.3594 50.4492 33.3594C48.5352 33.3594 47.3047 34.5898 47.3047 36.2305C47.3047 38.1445 48.5352 38.9648 51.4062 40.1953L53.0469 40.8789C58.6523 43.3398 61.7969 45.6641 61.7969 51.2695C61.7969 57.1484 57.1484 60.4297 50.8594 60.4297C44.707 60.4297 40.7422 57.5586 38.8281 53.7305L44.2969 50.5859ZM21.0547 51.1328C22.1484 52.9102 22.9688 54.5508 25.293 54.5508C27.4805 54.5508 28.8477 53.7305 28.8477 50.4492V27.7539H35.4102V50.1758C35.4102 57.0117 31.4453 60.0195 25.5664 60.0195C20.2344 60.0195 17.2266 57.2852 15.7227 54.0039L21.0547 51.1328Z" fill="black"/>
</g>
<defs>
<clipPath id="clip0_92_151">
<rect width="70" height="70" fill="white"/>
</clipPath>
</defs>
</svg>
