<svg width="17" height="17" viewBox="0 0 17 17" fill="none" xmlns="http://www.w3.org/2000/svg">
<path d="M4.08143 16.4998H0.764286V5.81768H4.08143V16.4998ZM2.42107 4.36054C1.36036 4.36054 0.5 3.48197 0.5 2.42125C0.5 1.91175 0.702398 1.42312 1.06267 1.06285C1.42294 0.702581 1.91157 0.500183 2.42107 0.500183C2.93057 0.500183 3.4192 0.702581 3.77947 1.06285C4.13974 1.42312 4.34214 1.91175 4.34214 2.42125C4.34214 3.48197 3.48143 4.36054 2.42107 4.36054ZM16.4964 16.4998H13.1864V11.2998C13.1864 10.0605 13.1614 8.47125 11.4618 8.47125C9.73714 8.47125 9.47286 9.81768 9.47286 11.2105V16.4998H6.15929V5.81768H9.34071V7.27483H9.38714C9.83 6.43554 10.9118 5.54983 12.5257 5.54983C15.8829 5.54983 16.5 7.76054 16.5 10.632V16.4998H16.4964Z" fill="#FDFFF5"/>
</svg>
