<svg width="70" height="70" viewBox="0 0 70 70" fill="none" xmlns="http://www.w3.org/2000/svg">
<path d="M35 40.4119C38.0203 40.4119 40.4688 37.9634 40.4688 34.9431C40.4688 31.9228 38.0203 29.4744 35 29.4744C31.9797 29.4744 29.5312 31.9228 29.5312 34.9431C29.5312 37.9634 31.9797 40.4119 35 40.4119Z" fill="#00D8FF"/>
<path d="M35 47.4818C28.4269 47.6408 21.8702 46.7547 15.575 44.8568C12.667 43.9349 9.95473 42.4828 7.57531 40.5737C6.66735 39.9215 5.91122 39.0806 5.35881 38.1087C4.8064 37.1368 4.47079 36.0569 4.375 34.943C4.375 31.3271 8.3475 27.7834 15.0019 25.4646C21.4654 23.41 28.2186 22.4142 35 22.5159C41.6909 22.4224 48.3537 23.4001 54.7356 25.4121C57.5363 26.3049 60.1565 27.6869 62.475 29.494C63.3674 30.1158 64.1122 30.9262 64.6566 31.8678C65.201 32.8095 65.5316 33.8594 65.625 34.943C65.625 38.7012 61.1844 42.5096 54.0312 44.8765C47.858 46.7126 41.4396 47.5912 35 47.4818ZM35 25.1321C28.5121 25.0454 22.0518 25.992 15.8616 27.9365C9.73656 30.0737 6.99125 32.9962 6.99125 34.9365C6.99125 36.9665 9.94219 40.158 16.4216 42.374C22.4439 44.1805 28.7145 45.0215 35 44.8655C41.1609 44.9757 47.3023 44.1421 53.2109 42.3937C59.9375 40.1646 63 36.9687 63 34.943C62.8896 34.2479 62.6363 33.5832 62.256 32.991C61.8757 32.3987 61.3768 31.8917 60.7906 31.5021C58.7163 29.899 56.3756 28.6742 53.8759 27.884C47.7707 25.9672 41.3984 25.0382 35 25.1321Z" fill="#00D8FF"/>
<path d="M22.575 62.219C21.5545 62.2425 20.5461 61.9949 19.6525 61.5015C16.52 59.6947 15.435 54.484 16.7497 47.5606C18.1992 40.9349 20.7108 34.5872 24.1872 28.7634C27.4482 22.9208 31.6229 17.6376 36.5531 13.114C38.7257 11.1337 41.2319 9.55397 43.9556 8.4481C44.9408 7.9864 46.0155 7.74707 47.1034 7.74707C48.1914 7.74707 49.2661 7.9864 50.2513 8.4481C53.5084 10.325 54.5869 16.0737 53.0666 23.4522C51.5723 29.7184 49.1259 35.7184 45.8128 41.2431C42.6666 47.0167 38.6233 52.2539 33.8341 56.759C31.5827 58.817 28.9698 60.4405 26.1275 61.5475C24.9896 61.9698 23.7885 62.1969 22.575 62.219ZM26.4534 30.0628C23.1374 35.6394 20.7302 41.7084 19.3222 48.0419C18.1125 54.4184 19.2741 58.2531 20.9628 59.2287C22.7128 60.2415 26.9609 59.2812 32.1191 54.775C36.691 50.4589 40.5502 45.4457 43.5531 39.9218C46.727 34.6402 49.0737 28.9037 50.5116 22.9118C51.9422 15.9665 50.7062 11.714 48.9519 10.7034C48.2943 10.4515 47.5917 10.3387 46.8883 10.3722C46.185 10.4057 45.4962 10.5848 44.8656 10.8981C42.4412 11.8985 40.2122 13.3189 38.2813 15.0937C33.5708 19.4267 29.5831 24.4845 26.4688 30.0759L26.4534 30.0628Z" fill="#00D8FF"/>
<path d="M47.4185 62.2476C44.4544 62.2476 40.6897 60.4538 36.7697 57.0829C31.7531 52.5182 27.5078 47.1722 24.1982 41.2519C20.7654 35.5084 18.2737 29.2525 16.8175 22.7216C16.186 19.8483 16.069 16.8858 16.4719 13.9716C16.5651 12.8906 16.8942 11.8431 17.4362 10.9032C17.9782 9.96316 18.7198 9.15352 19.6088 8.53133C22.8616 6.64789 28.3807 8.58383 34.0135 13.5845C38.696 18.008 42.6725 23.1235 45.8041 28.7526C49.2347 34.3621 51.7526 40.4809 53.2635 46.8804C53.9222 49.8591 54.0238 52.934 53.5632 55.9498C53.4536 57.0619 53.1048 58.1372 52.5407 59.1019C51.9766 60.0666 51.2105 60.8979 50.295 61.5388C49.416 62.026 48.4232 62.2706 47.4185 62.2476ZM26.4622 39.9351C29.6372 45.5929 33.6925 50.7093 38.476 55.0923C43.3957 59.3251 47.2982 60.2351 48.976 59.2485C50.726 58.2313 52.0166 54.0794 50.6866 47.3616C49.2295 41.2518 46.8145 35.4111 43.5313 30.0563C40.5428 24.6688 36.7473 19.7704 32.2766 15.5313C26.9741 10.8238 22.6735 9.77164 20.9213 10.7866C20.3752 11.2304 19.927 11.7827 19.6051 12.4084C19.2832 13.0342 19.0945 13.7199 19.051 14.4223C18.7032 17.0212 18.8165 19.6611 19.3857 22.2207C20.7863 28.4663 23.176 34.448 26.4644 39.9394L26.4622 39.9351Z" fill="#00D8FF"/>
</svg>
