<svg width="70" height="70" viewBox="0 0 70 70" fill="none" xmlns="http://www.w3.org/2000/svg">
<g clip-path="url(#clip0_92_174)">
<path d="M4.0332 44.2608C2.59766 39.7895 2.18531 35.0684 3.01219 30.211C3.37094 28.1963 3.92437 26.2631 4.53086 24.3042C4.53086 24.3042 8.33984 11.801 21.2297 6.08671C21.2297 6.08671 25.673 3.74062 32.3531 3.57656C32.3531 3.57656 31.4431 2.69226 30.8623 2.30562C27.7156 0.207808 23.0245 -0.482349 20.1813 2.47242C19.3244 3.35453 18.6063 4.32195 17.8079 5.2046C16.8957 6.19773 15.791 7.02679 14.5223 7.49437C13.4176 7.9089 12.3129 7.82578 11.183 8.01992C10.0237 8.21242 8.83531 8.62695 7.89797 9.37234C6.87641 10.2014 6.46242 11.3034 6.35305 12.5743C6.24203 13.568 6.26992 14.589 6.21414 15.5821C6.07578 18.509 5.13789 19.3359 3.04008 20.9655C2.15742 21.6278 1.41203 22.5099 0.858594 23.45C-0.796797 26.3747 1.85391 29.4098 1.99062 32.3646C2.01906 32.9716 1.96328 33.5781 1.74344 34.1589C1.52086 34.7933 1.08117 35.2078 0.721875 35.7312C0.224218 36.4219 -0.106641 37.2504 0.0328122 38.1046C0.169531 38.9616 0.611406 39.7622 1.02594 40.5081C1.82711 41.8326 2.82023 43.0183 3.86969 44.1503C3.92437 44.1503 3.97852 44.2055 4.03375 44.2613" fill="#E32186"/>
<path d="M56.7001 54.8569C63.0488 52.0968 65.7536 47.3226 65.7536 47.3226C71.6883 39.2349 69.6736 30.7069 69.6736 30.7069C65.8925 38.9314 62.4401 41.196 62.4401 41.196C71.7436 27.0346 62.4959 18.4793 62.4959 18.4793C66.277 26.5392 61.2545 36.3638 61.2545 36.3638C57.031 45.2527 51.041 48.4273 51.041 48.4273C57.7211 49.6687 62.6348 45.1696 62.6348 45.1696C53.0552 55.5197 42.6777 55.0242 42.6777 55.0242C47.0401 59.91 53.5813 59.4955 53.5813 59.4955C45.0254 61.5096 36.9935 58.6664 30.3965 53.1736C29.1472 52.1491 27.967 51.0431 26.8637 49.8628C26.8637 49.8628 25.87 48.8139 25.6753 48.5383L25.648 48.511C25.5113 53.616 30.8368 58.3629 30.8368 58.3629C24.1567 55.6034 21.0936 49.6129 21.0936 49.6129C21.0936 49.6129 16.5945 41.9403 19.8522 33.1919C23.1078 24.4419 32.9625 22.5639 32.9625 22.5639C41.106 26.5124 48.0059 27.7532 48.0059 27.7532C62.5517 30.1819 61.7248 23.0621 61.7248 23.0621C61.8615 16.9333 52.616 10.42 52.616 10.42C36.1371 -1.80809 21.2325 6.08551 21.2325 6.08551C8.34269 11.7998 4.5337 24.303 4.5337 24.303C3.92667 26.2619 3.37433 28.1951 3.01503 30.2093C1.60738 38.4086 3.73253 46.1632 8.34269 53.0653C15.5182 63.7742 27.1672 67.4722 27.1672 67.4722C44.4173 73.3232 56.203 64.7121 56.203 64.7121C67.0508 57.2582 69.2318 48.6477 69.2318 48.6477C60.4818 55.4946 56.7007 54.8574 56.7007 54.8574L56.7001 54.8569ZM43.2311 14.5867C43.4271 14.586 43.6212 14.624 43.8024 14.6988C43.9835 14.7735 44.148 14.8833 44.2865 15.022C44.425 15.1607 44.5346 15.3254 44.609 15.5066C44.6835 15.6879 44.7213 15.8821 44.7203 16.078C44.7211 16.2738 44.6832 16.4678 44.6087 16.6488C44.5341 16.8299 44.4245 16.9943 44.286 17.1327C44.1476 17.2711 43.983 17.3807 43.802 17.4552C43.6209 17.5297 43.4269 17.5675 43.2311 17.5666C43.0352 17.5676 42.8411 17.5298 42.6599 17.4554C42.4786 17.381 42.314 17.2714 42.1753 17.133C42.0367 16.9946 41.9268 16.8301 41.852 16.6491C41.7773 16.468 41.7391 16.2739 41.7398 16.078C41.7389 15.8819 41.7768 15.6875 41.8514 15.5062C41.926 15.3248 42.0358 15.16 42.1745 15.0214C42.3132 14.8827 42.4779 14.7729 42.6593 14.6983C42.8407 14.6237 43.035 14.5857 43.2311 14.5867Z" fill="url(#paint0_linear_92_174)"/>
<path d="M61.693 23.0349C61.8297 16.906 52.5843 10.3927 52.5843 10.3927C36.1053 -1.80748 21.2008 6.08611 21.2008 6.08611C8.31092 11.8004 4.50193 24.3036 4.50193 24.3036C3.75654 26.4293 3.09428 29.687 3.09428 29.687C2.2931 33.7717 2.65185 37.5527 2.65185 37.5527C2.98326 41.1692 3.78389 43.5984 3.78389 43.5984C4.61295 46.1917 4.99795 46.9929 4.99795 46.9929C4.9717 46.9092 4.83334 46.3027 4.83334 46.3027C4.83334 46.3027 3.67287 40.7274 4.74967 35.3718C4.74967 35.3718 5.68756 29.7964 9.49873 25.492C9.49873 25.492 15.6812 16.6862 27.1912 20.1364C27.1912 20.1364 29.6757 21.0207 30.5299 21.461C31.3869 21.8755 32.876 22.5099 32.876 22.5099C41.019 26.4578 47.9189 27.6986 47.9189 27.6986C62.5204 30.1552 61.6936 23.0354 61.6936 23.0354L61.693 23.0349ZM43.2272 17.5962C43.0313 17.5972 42.8371 17.5594 42.6558 17.4849C42.4746 17.4105 42.3099 17.3009 42.1712 17.1624C42.0326 17.024 41.9227 16.8594 41.848 16.6783C41.7733 16.4971 41.7352 16.303 41.7359 16.107C41.735 15.9109 41.7729 15.7166 41.8475 15.5352C41.9221 15.3539 42.0319 15.1891 42.1706 15.0504C42.3093 14.9117 42.4741 14.8019 42.6554 14.7273C42.8368 14.6527 43.0311 14.6148 43.2272 14.6157C43.4232 14.615 43.6173 14.6531 43.7985 14.7278C43.9796 14.8025 44.1442 14.9124 44.2826 15.051C44.4211 15.1897 44.5307 15.3544 44.6051 15.5357C44.6796 15.7169 44.7174 15.9111 44.7164 16.107C44.7173 16.3029 44.6795 16.4969 44.6049 16.678C44.5304 16.8591 44.4208 17.0237 44.2823 17.1621C44.1439 17.3006 43.9793 17.4102 43.7982 17.4848C43.6171 17.5593 43.4231 17.5971 43.2272 17.5962Z" fill="url(#paint1_radial_92_174)"/>
<path d="M33.7886 11.9393L24.3763 9.01242C24.3206 9.01242 24.0455 8.87351 23.5473 9.01242C23.5473 9.01242 17.9992 10.4206 18.9656 13.4558C18.9656 13.4558 19.5463 15.3616 21.1186 17.2095L31.4688 16.7135L33.7886 11.9393Z" fill="url(#paint2_linear_92_174)"/>
</g>
<defs>
<linearGradient id="paint0_linear_92_174" x1="10.6294" y1="64.2441" x2="44.9756" y2="27.7047" gradientUnits="userSpaceOnUse">
<stop stop-color="#DF1C84"/>
<stop offset="0.401" stop-color="#DE1C85"/>
<stop offset="0.77" stop-color="#932C86"/>
<stop offset="1" stop-color="#5C2F87"/>
</linearGradient>
<radialGradient id="paint1_radial_92_174" cx="0" cy="0" r="1" gradientUnits="userSpaceOnUse" gradientTransform="translate(48.4345 18.0114) rotate(0.136224) scale(33.5585 28.0611)">
<stop stop-color="#DF1C84"/>
<stop offset="0.139" stop-color="#DE1E85"/>
<stop offset="0.285" stop-color="#D62085"/>
<stop offset="0.434" stop-color="#C82286"/>
<stop offset="0.586" stop-color="#B72786"/>
<stop offset="0.739" stop-color="#9C2A86"/>
<stop offset="0.891" stop-color="#7C2E87"/>
<stop offset="1" stop-color="#5C2F87"/>
</radialGradient>
<linearGradient id="paint2_linear_92_174" x1="18.8314" y1="13.0802" x2="33.7801" y2="13.0802" gradientUnits="userSpaceOnUse">
<stop stop-color="#DF1C84"/>
<stop offset="0.238" stop-color="#D91E85"/>
<stop offset="0.658" stop-color="#C72085"/>
<stop offset="0.999" stop-color="#B42184"/>
</linearGradient>
<clipPath id="clip0_92_174">
<rect width="70" height="70" fill="white"/>
</clipPath>
</defs>
</svg>
