<svg width="70" height="70" viewBox="0 0 70 70" fill="none" xmlns="http://www.w3.org/2000/svg">
<path fill-rule="evenodd" clip-rule="evenodd" d="M35 4.375C41.0571 4.375 46.9781 6.17113 52.0143 9.53624C57.0506 12.9014 60.9759 17.6843 63.2938 23.2803C65.6117 28.8763 66.2182 35.034 65.0365 40.9746C63.8549 46.9153 60.9381 52.3722 56.6551 56.6551C52.3722 60.9381 46.9153 63.8549 40.9746 65.0365C35.034 66.2182 28.8763 65.6117 23.2803 63.2938C17.6843 60.9759 12.9014 57.0506 9.53624 52.0143C6.17113 46.9781 4.375 41.0571 4.375 35C4.375 26.8777 7.60155 19.0882 13.3449 13.3449C19.0882 7.60155 26.8777 4.375 35 4.375Z" fill="#CC6699"/>
<path d="M54.2106 17.4824C52.8237 12.0443 43.8047 10.2637 35.2691 13.2868C29.9234 15.0828 24.9845 17.9158 20.7353 21.6234C16.0344 26.0202 15.2841 29.8484 15.5925 31.4474C16.6862 37.0912 24.4147 40.7793 27.5931 43.5159V43.5312C26.6569 43.9927 19.7969 47.4687 18.1869 51.0124C16.4937 54.7574 18.4559 57.4437 19.7575 57.8046C21.7116 58.2751 23.764 58.122 25.6267 57.3668C27.4894 56.6116 29.069 55.2922 30.1437 53.5937C31.0326 52.2178 31.5887 50.6538 31.7679 49.0256C31.9472 47.3975 31.7446 45.7499 31.1762 44.2137C32.7069 43.8226 34.2987 43.7312 35.8641 43.9446C41.2366 44.5724 42.2909 47.9259 42.0897 49.3302C41.995 49.8302 41.7938 50.3038 41.4998 50.719C41.2057 51.1342 40.8257 51.4813 40.3856 51.7365C40.0094 51.9706 39.8934 52.0493 39.9262 52.2243C39.9722 52.4759 40.145 52.4671 40.4666 52.4124C41.2739 52.1582 41.9853 51.6653 42.507 50.9987C43.0287 50.3321 43.3362 49.5232 43.3891 48.6784C43.5181 45.3971 40.3659 41.709 34.7834 41.8031C33.162 41.7553 31.5438 41.9771 29.995 42.4593L29.7587 42.1968C26.3069 38.5152 19.9281 35.9099 20.1972 30.9596C20.2956 29.1593 20.9212 24.4212 32.4472 18.6724C41.8972 13.9627 49.4616 15.2599 50.7697 18.1321C52.6378 22.2359 46.7272 29.8593 36.9141 30.9596C35.8294 31.1798 34.7092 31.153 33.6363 30.8811C32.5635 30.6092 31.5657 30.0992 30.7169 29.389C30.2006 28.8202 30.1241 28.7962 29.9316 28.9012C29.6187 29.074 29.8178 29.5771 29.9316 29.8746C30.3074 30.5517 30.8146 31.147 31.4235 31.6256C32.0324 32.1041 32.7307 32.4563 33.4775 32.6615C37.3358 33.4987 41.3598 33.1007 44.9794 31.524C50.9316 29.2293 55.5734 22.8309 54.2106 17.4824ZM28.9144 45.2002C29.3467 46.6983 29.3246 48.291 28.8509 49.7765C28.7999 49.9311 28.7437 50.0842 28.6825 50.2359C28.6212 50.3875 28.5549 50.5334 28.4834 50.6734C28.1129 51.4252 27.6363 52.1199 27.0681 52.7362C25.2897 54.6765 22.8025 55.4115 21.7372 54.7924C20.5866 54.1252 21.1619 51.3887 23.2247 49.2077C24.8102 47.641 26.6376 46.3396 28.6366 45.3534L28.9144 45.2002Z" fill="white"/>
</svg>
