<svg width="137" height="31" viewBox="0 0 137 31" fill="none" xmlns="http://www.w3.org/2000/svg">
<g filter="url(#filter0_d_122_184)">
<mask id="path-1-outside-1_122_184" maskUnits="userSpaceOnUse" x="0" y="0" width="135" height="30" fill="black">
<rect fill="white" width="135" height="30"/>
<path d="M1.276 28V2.8H6.676V23.14H18.088V28H1.276ZM28.8129 28.36C27.2289 28.36 25.8009 27.928 24.5289 27.064C23.2569 26.2 22.2489 25.024 21.5049 23.536C20.7609 22.048 20.3889 20.344 20.3889 18.424C20.3889 16.504 20.7609 14.812 21.5049 13.348C22.2729 11.86 23.3049 10.696 24.6009 9.856C25.8969 8.992 27.3729 8.56 29.0289 8.56C29.9649 8.56 30.8169 8.704 31.5849 8.992C32.3769 9.256 33.0609 9.628 33.6369 10.108C34.2369 10.588 34.7409 11.14 35.1489 11.764C35.5569 12.388 35.8449 13.06 36.0129 13.78L34.9329 13.6V8.956H40.0089V28H34.8609V23.428L36.0129 23.32C35.8209 23.992 35.5089 24.628 35.0769 25.228C34.6449 25.828 34.1049 26.368 33.4569 26.848C32.8329 27.304 32.1249 27.676 31.3329 27.964C30.5409 28.228 29.7009 28.36 28.8129 28.36ZM30.2169 23.932C31.1769 23.932 32.0169 23.704 32.7369 23.248C33.4569 22.792 34.0089 22.156 34.3929 21.34C34.8009 20.5 35.0049 19.528 35.0049 18.424C35.0049 17.344 34.8009 16.396 34.3929 15.58C34.0089 14.764 33.4569 14.128 32.7369 13.672C32.0169 13.192 31.1769 12.952 30.2169 12.952C29.2809 12.952 28.4529 13.192 27.7329 13.672C27.0369 14.128 26.4849 14.764 26.0769 15.58C25.6689 16.396 25.4649 17.344 25.4649 18.424C25.4649 19.528 25.6689 20.5 26.0769 21.34C26.4849 22.156 27.0369 22.792 27.7329 23.248C28.4529 23.704 29.2809 23.932 30.2169 23.932ZM56.1141 28.36C55.2741 28.36 54.4581 28.24 53.6661 28C52.8741 27.76 52.1541 27.436 51.5061 27.028C50.8581 26.596 50.3181 26.116 49.8861 25.588C49.4541 25.036 49.1781 24.472 49.0581 23.896L50.2101 23.464L49.9581 27.928H45.1341V1.36H50.2461V13.42L49.2741 13.024C49.4181 12.448 49.6941 11.896 50.1021 11.368C50.5101 10.816 51.0261 10.336 51.6501 9.928C52.2741 9.496 52.9581 9.16 53.7021 8.92C54.4461 8.68 55.2141 8.56 56.0061 8.56C57.6621 8.56 59.1381 8.992 60.4341 9.856C61.7301 10.696 62.7501 11.86 63.4941 13.348C64.2621 14.836 64.6461 16.54 64.6461 18.46C64.6461 20.38 64.2741 22.084 63.5301 23.572C62.7861 25.06 61.7661 26.236 60.4701 27.1C59.1981 27.94 57.7461 28.36 56.1141 28.36ZM54.8901 24.004C55.8501 24.004 56.6781 23.776 57.3741 23.32C58.0941 22.84 58.6581 22.192 59.0661 21.376C59.4741 20.536 59.6781 19.564 59.6781 18.46C59.6781 17.38 59.4741 16.42 59.0661 15.58C58.6821 14.74 58.1301 14.092 57.4101 13.636C56.6901 13.18 55.8501 12.952 54.8901 12.952C53.9301 12.952 53.0901 13.18 52.3701 13.636C51.6501 14.092 51.0861 14.74 50.6781 15.58C50.2701 16.42 50.0661 17.38 50.0661 18.46C50.0661 19.564 50.2701 20.536 50.6781 21.376C51.0861 22.192 51.6501 22.84 52.3701 23.32C53.0901 23.776 53.9301 24.004 54.8901 24.004ZM75.641 28.36C74.057 28.36 72.629 27.928 71.357 27.064C70.085 26.2 69.077 25.024 68.333 23.536C67.589 22.048 67.217 20.344 67.217 18.424C67.217 16.504 67.589 14.812 68.333 13.348C69.101 11.86 70.133 10.696 71.429 9.856C72.725 8.992 74.201 8.56 75.857 8.56C76.793 8.56 77.645 8.704 78.413 8.992C79.205 9.256 79.889 9.628 80.465 10.108C81.065 10.588 81.569 11.14 81.977 11.764C82.385 12.388 82.673 13.06 82.841 13.78L81.761 13.6V8.956H86.837V28H81.689V23.428L82.841 23.32C82.649 23.992 82.337 24.628 81.905 25.228C81.473 25.828 80.933 26.368 80.285 26.848C79.661 27.304 78.953 27.676 78.161 27.964C77.369 28.228 76.529 28.36 75.641 28.36ZM77.045 23.932C78.005 23.932 78.845 23.704 79.565 23.248C80.285 22.792 80.837 22.156 81.221 21.34C81.629 20.5 81.833 19.528 81.833 18.424C81.833 17.344 81.629 16.396 81.221 15.58C80.837 14.764 80.285 14.128 79.565 13.672C78.845 13.192 78.005 12.952 77.045 12.952C76.109 12.952 75.281 13.192 74.561 13.672C73.865 14.128 73.313 14.764 72.905 15.58C72.497 16.396 72.293 17.344 72.293 18.424C72.293 19.528 72.497 20.5 72.905 21.34C73.313 22.156 73.865 22.792 74.561 23.248C75.281 23.704 76.109 23.932 77.045 23.932ZM99.4143 28.36C97.7583 28.36 96.2703 27.94 94.9503 27.1C93.6303 26.236 92.5863 25.072 91.8183 23.608C91.0743 22.12 90.7023 20.404 90.7023 18.46C90.7023 16.564 91.0743 14.872 91.8183 13.384C92.5863 11.896 93.6183 10.72 94.9143 9.856C96.2343 8.992 97.7343 8.56 99.4143 8.56C100.302 8.56 101.154 8.704 101.97 8.992C102.81 9.256 103.554 9.628 104.202 10.108C104.874 10.588 105.414 11.128 105.822 11.728C106.23 12.304 106.458 12.916 106.506 13.564L105.21 13.78V1.36H110.322V28H105.498L105.282 23.608L106.29 23.716C106.242 24.316 106.026 24.892 105.642 25.444C105.258 25.996 104.742 26.5 104.094 26.956C103.47 27.388 102.75 27.736 101.934 28C101.142 28.24 100.302 28.36 99.4143 28.36ZM100.566 24.112C101.526 24.112 102.366 23.872 103.086 23.392C103.806 22.912 104.37 22.252 104.778 21.412C105.186 20.572 105.39 19.588 105.39 18.46C105.39 17.356 105.186 16.384 104.778 15.544C104.37 14.68 103.806 14.02 103.086 13.564C102.366 13.084 101.526 12.844 100.566 12.844C99.6063 12.844 98.7663 13.084 98.0463 13.564C97.3503 14.02 96.7983 14.68 96.3903 15.544C96.0063 16.384 95.8143 17.356 95.8143 18.46C95.8143 19.588 96.0063 20.572 96.3903 21.412C96.7983 22.252 97.3503 22.912 98.0463 23.392C98.7663 23.872 99.6063 24.112 100.566 24.112ZM122.434 28.36C120.85 28.36 119.422 27.928 118.15 27.064C116.878 26.2 115.87 25.024 115.126 23.536C114.382 22.048 114.01 20.344 114.01 18.424C114.01 16.504 114.382 14.812 115.126 13.348C115.894 11.86 116.926 10.696 118.222 9.856C119.518 8.992 120.994 8.56 122.65 8.56C123.586 8.56 124.438 8.704 125.206 8.992C125.998 9.256 126.682 9.628 127.258 10.108C127.858 10.588 128.362 11.14 128.77 11.764C129.178 12.388 129.466 13.06 129.634 13.78L128.554 13.6V8.956H133.63V28H128.482V23.428L129.634 23.32C129.442 23.992 129.13 24.628 128.698 25.228C128.266 25.828 127.726 26.368 127.078 26.848C126.454 27.304 125.746 27.676 124.954 27.964C124.162 28.228 123.322 28.36 122.434 28.36ZM123.838 23.932C124.798 23.932 125.638 23.704 126.358 23.248C127.078 22.792 127.63 22.156 128.014 21.34C128.422 20.5 128.626 19.528 128.626 18.424C128.626 17.344 128.422 16.396 128.014 15.58C127.63 14.764 127.078 14.128 126.358 13.672C125.638 13.192 124.798 12.952 123.838 12.952C122.902 12.952 122.074 13.192 121.354 13.672C120.658 14.128 120.106 14.764 119.698 15.58C119.29 16.396 119.086 17.344 119.086 18.424C119.086 19.528 119.29 20.5 119.698 21.34C120.106 22.156 120.658 22.792 121.354 23.248C122.074 23.704 122.902 23.932 123.838 23.932Z"/>
</mask>
<path d="M1.276 28V2.8H6.676V23.14H18.088V28H1.276ZM28.8129 28.36C27.2289 28.36 25.8009 27.928 24.5289 27.064C23.2569 26.2 22.2489 25.024 21.5049 23.536C20.7609 22.048 20.3889 20.344 20.3889 18.424C20.3889 16.504 20.7609 14.812 21.5049 13.348C22.2729 11.86 23.3049 10.696 24.6009 9.856C25.8969 8.992 27.3729 8.56 29.0289 8.56C29.9649 8.56 30.8169 8.704 31.5849 8.992C32.3769 9.256 33.0609 9.628 33.6369 10.108C34.2369 10.588 34.7409 11.14 35.1489 11.764C35.5569 12.388 35.8449 13.06 36.0129 13.78L34.9329 13.6V8.956H40.0089V28H34.8609V23.428L36.0129 23.32C35.8209 23.992 35.5089 24.628 35.0769 25.228C34.6449 25.828 34.1049 26.368 33.4569 26.848C32.8329 27.304 32.1249 27.676 31.3329 27.964C30.5409 28.228 29.7009 28.36 28.8129 28.36ZM30.2169 23.932C31.1769 23.932 32.0169 23.704 32.7369 23.248C33.4569 22.792 34.0089 22.156 34.3929 21.34C34.8009 20.5 35.0049 19.528 35.0049 18.424C35.0049 17.344 34.8009 16.396 34.3929 15.58C34.0089 14.764 33.4569 14.128 32.7369 13.672C32.0169 13.192 31.1769 12.952 30.2169 12.952C29.2809 12.952 28.4529 13.192 27.7329 13.672C27.0369 14.128 26.4849 14.764 26.0769 15.58C25.6689 16.396 25.4649 17.344 25.4649 18.424C25.4649 19.528 25.6689 20.5 26.0769 21.34C26.4849 22.156 27.0369 22.792 27.7329 23.248C28.4529 23.704 29.2809 23.932 30.2169 23.932ZM56.1141 28.36C55.2741 28.36 54.4581 28.24 53.6661 28C52.8741 27.76 52.1541 27.436 51.5061 27.028C50.8581 26.596 50.3181 26.116 49.8861 25.588C49.4541 25.036 49.1781 24.472 49.0581 23.896L50.2101 23.464L49.9581 27.928H45.1341V1.36H50.2461V13.42L49.2741 13.024C49.4181 12.448 49.6941 11.896 50.1021 11.368C50.5101 10.816 51.0261 10.336 51.6501 9.928C52.2741 9.496 52.9581 9.16 53.7021 8.92C54.4461 8.68 55.2141 8.56 56.0061 8.56C57.6621 8.56 59.1381 8.992 60.4341 9.856C61.7301 10.696 62.7501 11.86 63.4941 13.348C64.2621 14.836 64.6461 16.54 64.6461 18.46C64.6461 20.38 64.2741 22.084 63.5301 23.572C62.7861 25.06 61.7661 26.236 60.4701 27.1C59.1981 27.94 57.7461 28.36 56.1141 28.36ZM54.8901 24.004C55.8501 24.004 56.6781 23.776 57.3741 23.32C58.0941 22.84 58.6581 22.192 59.0661 21.376C59.4741 20.536 59.6781 19.564 59.6781 18.46C59.6781 17.38 59.4741 16.42 59.0661 15.58C58.6821 14.74 58.1301 14.092 57.4101 13.636C56.6901 13.18 55.8501 12.952 54.8901 12.952C53.9301 12.952 53.0901 13.18 52.3701 13.636C51.6501 14.092 51.0861 14.74 50.6781 15.58C50.2701 16.42 50.0661 17.38 50.0661 18.46C50.0661 19.564 50.2701 20.536 50.6781 21.376C51.0861 22.192 51.6501 22.84 52.3701 23.32C53.0901 23.776 53.9301 24.004 54.8901 24.004ZM75.641 28.36C74.057 28.36 72.629 27.928 71.357 27.064C70.085 26.2 69.077 25.024 68.333 23.536C67.589 22.048 67.217 20.344 67.217 18.424C67.217 16.504 67.589 14.812 68.333 13.348C69.101 11.86 70.133 10.696 71.429 9.856C72.725 8.992 74.201 8.56 75.857 8.56C76.793 8.56 77.645 8.704 78.413 8.992C79.205 9.256 79.889 9.628 80.465 10.108C81.065 10.588 81.569 11.14 81.977 11.764C82.385 12.388 82.673 13.06 82.841 13.78L81.761 13.6V8.956H86.837V28H81.689V23.428L82.841 23.32C82.649 23.992 82.337 24.628 81.905 25.228C81.473 25.828 80.933 26.368 80.285 26.848C79.661 27.304 78.953 27.676 78.161 27.964C77.369 28.228 76.529 28.36 75.641 28.36ZM77.045 23.932C78.005 23.932 78.845 23.704 79.565 23.248C80.285 22.792 80.837 22.156 81.221 21.34C81.629 20.5 81.833 19.528 81.833 18.424C81.833 17.344 81.629 16.396 81.221 15.58C80.837 14.764 80.285 14.128 79.565 13.672C78.845 13.192 78.005 12.952 77.045 12.952C76.109 12.952 75.281 13.192 74.561 13.672C73.865 14.128 73.313 14.764 72.905 15.58C72.497 16.396 72.293 17.344 72.293 18.424C72.293 19.528 72.497 20.5 72.905 21.34C73.313 22.156 73.865 22.792 74.561 23.248C75.281 23.704 76.109 23.932 77.045 23.932ZM99.4143 28.36C97.7583 28.36 96.2703 27.94 94.9503 27.1C93.6303 26.236 92.5863 25.072 91.8183 23.608C91.0743 22.12 90.7023 20.404 90.7023 18.46C90.7023 16.564 91.0743 14.872 91.8183 13.384C92.5863 11.896 93.6183 10.72 94.9143 9.856C96.2343 8.992 97.7343 8.56 99.4143 8.56C100.302 8.56 101.154 8.704 101.97 8.992C102.81 9.256 103.554 9.628 104.202 10.108C104.874 10.588 105.414 11.128 105.822 11.728C106.23 12.304 106.458 12.916 106.506 13.564L105.21 13.78V1.36H110.322V28H105.498L105.282 23.608L106.29 23.716C106.242 24.316 106.026 24.892 105.642 25.444C105.258 25.996 104.742 26.5 104.094 26.956C103.47 27.388 102.75 27.736 101.934 28C101.142 28.24 100.302 28.36 99.4143 28.36ZM100.566 24.112C101.526 24.112 102.366 23.872 103.086 23.392C103.806 22.912 104.37 22.252 104.778 21.412C105.186 20.572 105.39 19.588 105.39 18.46C105.39 17.356 105.186 16.384 104.778 15.544C104.37 14.68 103.806 14.02 103.086 13.564C102.366 13.084 101.526 12.844 100.566 12.844C99.6063 12.844 98.7663 13.084 98.0463 13.564C97.3503 14.02 96.7983 14.68 96.3903 15.544C96.0063 16.384 95.8143 17.356 95.8143 18.46C95.8143 19.588 96.0063 20.572 96.3903 21.412C96.7983 22.252 97.3503 22.912 98.0463 23.392C98.7663 23.872 99.6063 24.112 100.566 24.112ZM122.434 28.36C120.85 28.36 119.422 27.928 118.15 27.064C116.878 26.2 115.87 25.024 115.126 23.536C114.382 22.048 114.01 20.344 114.01 18.424C114.01 16.504 114.382 14.812 115.126 13.348C115.894 11.86 116.926 10.696 118.222 9.856C119.518 8.992 120.994 8.56 122.65 8.56C123.586 8.56 124.438 8.704 125.206 8.992C125.998 9.256 126.682 9.628 127.258 10.108C127.858 10.588 128.362 11.14 128.77 11.764C129.178 12.388 129.466 13.06 129.634 13.78L128.554 13.6V8.956H133.63V28H128.482V23.428L129.634 23.32C129.442 23.992 129.13 24.628 128.698 25.228C128.266 25.828 127.726 26.368 127.078 26.848C126.454 27.304 125.746 27.676 124.954 27.964C124.162 28.228 123.322 28.36 122.434 28.36ZM123.838 23.932C124.798 23.932 125.638 23.704 126.358 23.248C127.078 22.792 127.63 22.156 128.014 21.34C128.422 20.5 128.626 19.528 128.626 18.424C128.626 17.344 128.422 16.396 128.014 15.58C127.63 14.764 127.078 14.128 126.358 13.672C125.638 13.192 124.798 12.952 123.838 12.952C122.902 12.952 122.074 13.192 121.354 13.672C120.658 14.128 120.106 14.764 119.698 15.58C119.29 16.396 119.086 17.344 119.086 18.424C119.086 19.528 119.29 20.5 119.698 21.34C120.106 22.156 120.658 22.792 121.354 23.248C122.074 23.704 122.902 23.932 123.838 23.932Z" fill="#FFB847"/>
<path d="M1.276 28H0.276V29H1.276V28ZM1.276 2.8V1.8H0.276V2.8H1.276ZM6.676 2.8H7.676V1.8H6.676V2.8ZM6.676 23.14H5.676V24.14H6.676V23.14ZM18.088 23.14H19.088V22.14H18.088V23.14ZM18.088 28V29H19.088V28H18.088ZM2.276 28V2.8H0.276V28H2.276ZM1.276 3.8H6.676V1.8H1.276V3.8ZM5.676 2.8V23.14H7.676V2.8H5.676ZM6.676 24.14H18.088V22.14H6.676V24.14ZM17.088 23.14V28H19.088V23.14H17.088ZM18.088 27H1.276V29H18.088V27ZM24.5289 27.064L23.967 27.8912L24.5289 27.064ZM21.5049 23.536L20.6105 23.9832L21.5049 23.536ZM21.5049 13.348L20.6163 12.8893L20.6134 12.8949L21.5049 13.348ZM24.6009 9.856L25.1448 10.6952L25.1556 10.688L24.6009 9.856ZM31.5849 8.992L31.2338 9.92833L31.2511 9.93483L31.2687 9.94068L31.5849 8.992ZM33.6369 10.108L32.9967 10.8762L33.0044 10.8826L33.0122 10.8889L33.6369 10.108ZM35.1489 11.764L35.9859 11.2167L35.1489 11.764ZM36.0129 13.78L35.8485 14.7664L37.3274 15.0129L36.9867 13.5528L36.0129 13.78ZM34.9329 13.6H33.9329V14.4471L34.7685 14.5864L34.9329 13.6ZM34.9329 8.956V7.956H33.9329V8.956H34.9329ZM40.0089 8.956H41.0089V7.956H40.0089V8.956ZM40.0089 28V29H41.0089V28H40.0089ZM34.8609 28H33.8609V29H34.8609V28ZM34.8609 23.428L34.7676 22.4324L33.8609 22.5174V23.428H34.8609ZM36.0129 23.32L36.9744 23.5947L37.3764 22.1878L35.9196 22.3244L36.0129 23.32ZM35.0769 25.228L34.2654 24.6437L35.0769 25.228ZM33.4569 26.848L34.0469 27.6554L34.0521 27.6516L33.4569 26.848ZM31.3329 27.964L31.6491 28.9127L31.662 28.9084L31.6746 28.9038L31.3329 27.964ZM32.7369 23.248L33.272 24.0928L32.7369 23.248ZM34.3929 21.34L33.4933 20.9031L33.4881 20.9142L34.3929 21.34ZM34.3929 15.58L33.4881 16.0058L33.4932 16.0166L33.4985 16.0272L34.3929 15.58ZM32.7369 13.672L32.1822 14.504L32.192 14.5105L32.2019 14.5168L32.7369 13.672ZM27.7329 13.672L28.281 14.5085L28.2876 14.504L27.7329 13.672ZM26.0769 15.58L25.1825 15.1328L26.0769 15.58ZM26.0769 21.34L25.1773 21.7769L25.1825 21.7872L26.0769 21.34ZM27.7329 23.248L27.1849 24.0845L27.1913 24.0887L27.1979 24.0928L27.7329 23.248ZM28.8129 27.36C27.4229 27.36 26.1918 26.9846 25.0908 26.2368L23.967 27.8912C25.41 28.8714 27.0349 29.36 28.8129 29.36V27.36ZM25.0908 26.2368C23.9718 25.4767 23.0733 24.4367 22.3993 23.0888L20.6105 23.9832C21.4245 25.6113 22.542 26.9233 23.967 27.8912L25.0908 26.2368ZM22.3993 23.0888C21.7347 21.7596 21.3889 20.2127 21.3889 18.424H19.3889C19.3889 20.4753 19.7871 22.3364 20.6105 23.9832L22.3993 23.0888ZM21.3889 18.424C21.3889 16.6348 21.7349 15.1027 22.3964 13.8011L20.6134 12.8949C19.7869 14.5213 19.3889 16.3731 19.3889 18.424H21.3889ZM22.3935 13.8066C23.0886 12.4599 24.007 11.4326 25.1448 10.6952L24.057 9.01685C22.6028 9.95941 21.4572 11.2601 20.6163 12.8894L22.3935 13.8066ZM25.1556 10.688C26.2768 9.94061 27.5572 9.56 29.0289 9.56V7.56C27.1886 7.56 25.5171 8.04338 24.0462 9.02395L25.1556 10.688ZM29.0289 9.56C29.8617 9.56 30.5927 9.68793 31.2338 9.92833L31.936 8.05567C31.0411 7.72007 30.0681 7.56 29.0289 7.56V9.56ZM31.2687 9.94068C31.9558 10.1697 32.5268 10.4846 32.9967 10.8762L34.2771 9.33978C33.595 8.77139 32.798 8.34229 31.9011 8.04332L31.2687 9.94068ZM33.0122 10.8889C33.5321 11.3048 33.9636 11.7786 34.3119 12.3112L35.9859 11.2167C35.5182 10.5014 34.9417 9.87123 34.2616 9.32713L33.0122 10.8889ZM34.3119 12.3112C34.6565 12.8382 34.8979 13.4021 35.0391 14.0072L36.9867 13.5528C36.792 12.7179 36.4573 11.9378 35.9859 11.2167L34.3119 12.3112ZM36.1773 12.7936L35.0973 12.6136L34.7685 14.5864L35.8485 14.7664L36.1773 12.7936ZM35.9329 13.6V8.956H33.9329V13.6H35.9329ZM34.9329 9.956H40.0089V7.956H34.9329V9.956ZM39.0089 8.956V28H41.0089V8.956H39.0089ZM40.0089 27H34.8609V29H40.0089V27ZM35.8609 28V23.428H33.8609V28H35.8609ZM34.9542 24.4236L36.1062 24.3156L35.9196 22.3244L34.7676 22.4324L34.9542 24.4236ZM35.0514 23.0453C34.8929 23.5999 34.6338 24.132 34.2654 24.6437L35.8884 25.8123C36.384 25.124 36.7489 24.3841 36.9744 23.5947L35.0514 23.0453ZM34.2654 24.6437C33.8989 25.1526 33.4342 25.6204 32.8617 26.0444L34.0521 27.6516C34.7756 27.1156 35.3909 26.5034 35.8884 25.8123L34.2654 24.6437ZM32.8669 26.0406C32.3255 26.4362 31.7025 26.7655 30.9912 27.0242L31.6746 28.9038C32.5473 28.5865 33.3403 28.1718 34.0469 27.6554L32.8669 26.0406ZM31.0167 27.0153C30.333 27.2432 29.6003 27.36 28.8129 27.36V29.36C29.8015 29.36 30.7489 29.2128 31.6491 28.9127L31.0167 27.0153ZM30.2169 24.932C31.3417 24.932 32.3723 24.6626 33.272 24.0928L32.2019 22.4032C31.6615 22.7454 31.0121 22.932 30.2169 22.932V24.932ZM33.272 24.0928C34.162 23.5291 34.8377 22.7433 35.2977 21.7658L33.4881 20.9142C33.1801 21.5687 32.7518 22.0549 32.2019 22.4032L33.272 24.0928ZM35.2924 21.7769C35.7775 20.7781 36.0049 19.652 36.0049 18.424H34.0049C34.0049 19.404 33.8243 20.2219 33.4934 20.9031L35.2924 21.7769ZM36.0049 18.424C36.0049 17.2171 35.7764 16.111 35.2873 15.1328L33.4985 16.0272C33.8254 16.681 34.0049 17.4709 34.0049 18.424H36.0049ZM35.2977 15.1542C34.8377 14.1767 34.162 13.3909 33.272 12.8272L32.2019 14.5168C32.7518 14.8651 33.1801 15.3513 33.4881 16.0058L35.2977 15.1542ZM33.2916 12.8399C32.3896 12.2386 31.3519 11.952 30.2169 11.952V13.952C31.0019 13.952 31.6442 14.1454 32.1822 14.504L33.2916 12.8399ZM30.2169 11.952C29.1004 11.952 28.076 12.2414 27.1782 12.8399L28.2876 14.504C28.8298 14.1426 29.4615 13.952 30.2169 13.952V11.952ZM27.1849 12.8355C26.327 13.3976 25.6617 14.1744 25.1825 15.1328L26.9713 16.0272C27.3081 15.3536 27.7468 14.8584 28.2809 14.5085L27.1849 12.8355ZM25.1825 15.1328C24.6934 16.111 24.4649 17.2171 24.4649 18.424H26.4649C26.4649 17.4709 26.6444 16.681 26.9713 16.0272L25.1825 15.1328ZM24.4649 18.424C24.4649 19.652 24.6923 20.7781 25.1774 21.7769L26.9764 20.9031C26.6455 20.2219 26.4649 19.404 26.4649 18.424H24.4649ZM25.1825 21.7872C25.6617 22.7456 26.327 23.5224 27.1849 24.0845L28.2809 22.4115C27.7468 22.0616 27.3081 21.5664 26.9713 20.8928L25.1825 21.7872ZM27.1979 24.0928C28.0935 24.66 29.1108 24.932 30.2169 24.932V22.932C29.4511 22.932 28.8124 22.748 28.268 22.4032L27.1979 24.0928ZM53.6661 28L53.9561 27.043L53.6661 28ZM51.5061 27.028L50.9514 27.8601L50.9623 27.8673L50.9733 27.8742L51.5061 27.028ZM49.8861 25.588L49.0986 26.2043L49.1053 26.2128L49.1122 26.2212L49.8861 25.588ZM49.0581 23.896L48.707 22.9597L47.9043 23.2607L48.0791 24.1L49.0581 23.896ZM50.2101 23.464L51.2085 23.5204L51.295 21.9892L49.859 22.5277L50.2101 23.464ZM49.9581 27.928V28.928H50.9033L50.9565 27.9844L49.9581 27.928ZM45.1341 27.928H44.1341V28.928H45.1341V27.928ZM45.1341 1.36V0.36H44.1341V1.36H45.1341ZM50.2461 1.36H51.2461V0.36H50.2461V1.36ZM50.2461 13.42L49.8688 14.3461L51.2461 14.9072V13.42H50.2461ZM49.2741 13.024L48.304 12.7815L48.0936 13.6229L48.8968 13.9501L49.2741 13.024ZM50.1021 11.368L50.8934 11.9794L50.8999 11.971L50.9063 11.9624L50.1021 11.368ZM51.6501 9.928L52.1974 10.765L52.2085 10.7577L52.2193 10.7502L51.6501 9.928ZM60.4341 9.856L59.8794 10.6881L59.8902 10.6952L60.4341 9.856ZM63.4941 13.348L62.5996 13.7952L62.6055 13.8066L63.4941 13.348ZM60.4701 27.1L61.0212 27.9345L61.0248 27.932L60.4701 27.1ZM57.3741 23.32L57.9222 24.1565L57.9288 24.1521L57.3741 23.32ZM59.0661 21.376L59.9606 21.8232L59.9656 21.8129L59.0661 21.376ZM59.0661 15.58L58.1567 15.9958L58.1615 16.0064L58.1666 16.0169L59.0661 15.58ZM50.6781 15.58L49.7786 15.1431L50.6781 15.58ZM50.6781 21.376L49.7786 21.8129L49.7837 21.8232L50.6781 21.376ZM52.3701 23.32L51.8154 24.1521L51.8252 24.1586L51.8351 24.1648L52.3701 23.32ZM56.1141 27.36C55.3709 27.36 54.6527 27.2541 53.9561 27.043L53.3761 28.957C54.2636 29.2259 55.1774 29.36 56.1141 29.36V27.36ZM53.9561 27.043C53.2428 26.8268 52.6055 26.5385 52.0389 26.1818L50.9733 27.8742C51.7028 28.3335 52.5055 28.6932 53.3761 28.957L53.9561 27.043ZM52.0608 26.1959C51.4839 25.8113 51.0211 25.396 50.6601 24.9548L49.1122 26.2212C49.6152 26.836 50.2323 27.3807 50.9514 27.8601L52.0608 26.1959ZM50.6736 24.9717C50.3183 24.5177 50.1203 24.0916 50.0371 23.692L48.0791 24.1C48.2359 24.8524 48.5899 25.5543 49.0986 26.2043L50.6736 24.9717ZM49.4092 24.8323L50.5612 24.4003L49.859 22.5277L48.707 22.9597L49.4092 24.8323ZM49.2117 23.4076L48.9597 27.8716L50.9565 27.9844L51.2085 23.5204L49.2117 23.4076ZM49.9581 26.928H45.1341V28.928H49.9581V26.928ZM46.1341 27.928V1.36H44.1341V27.928H46.1341ZM45.1341 2.36H50.2461V0.36H45.1341V2.36ZM49.2461 1.36V13.42H51.2461V1.36H49.2461ZM50.6234 12.4939L49.6514 12.0979L48.8968 13.9501L49.8688 14.3461L50.6234 12.4939ZM50.2443 13.2665C50.3508 12.8402 50.5594 12.4117 50.8934 11.9794L49.3108 10.7566C48.8289 11.3803 48.4854 12.0558 48.304 12.7815L50.2443 13.2665ZM50.9063 11.9624C51.2379 11.5138 51.6642 11.1136 52.1974 10.765L51.1029 9.09103C50.3881 9.55839 49.7824 10.1182 49.298 10.7736L50.9063 11.9624ZM52.2193 10.7502C52.7603 10.3756 53.3556 10.0825 54.0091 9.87171L53.3951 7.96829C52.5607 8.23747 51.7879 8.61635 51.0809 9.10581L52.2193 10.7502ZM54.0091 9.87171C54.6526 9.66413 55.317 9.56 56.0061 9.56V7.56C55.1113 7.56 54.2396 7.69587 53.3951 7.96829L54.0091 9.87171ZM56.0061 9.56C57.4778 9.56 58.7583 9.94062 59.8794 10.688L60.9888 9.02395C59.518 8.04338 57.8464 7.56 56.0061 7.56V9.56ZM59.8902 10.6952C61.025 11.4306 61.9291 12.454 62.5997 13.7952L64.3885 12.9008C63.5711 11.266 62.4353 9.96135 60.978 9.01685L59.8902 10.6952ZM62.6055 13.8066C63.2902 15.1333 63.6461 16.676 63.6461 18.46H65.6461C65.6461 16.404 65.234 14.5387 64.3827 12.8894L62.6055 13.8066ZM63.6461 18.46C63.6461 20.2487 63.3003 21.7956 62.6357 23.1248L64.4246 24.0192C65.248 22.3724 65.6461 20.5113 65.6461 18.46H63.6461ZM62.6357 23.1248C61.964 24.4681 61.0568 25.5071 59.9154 26.2679L61.0248 27.932C62.4755 26.9649 63.6082 25.6519 64.4246 24.0192L62.6357 23.1248ZM59.9191 26.2655C58.8223 26.9898 57.5647 27.36 56.1141 27.36V29.36C57.9276 29.36 59.574 28.8902 61.0212 27.9345L59.9191 26.2655ZM54.8901 25.004C56.0141 25.004 57.0394 24.7348 57.9222 24.1565L56.8261 22.4835C56.3169 22.8172 55.6861 23.004 54.8901 23.004V25.004ZM57.9288 24.1521C58.8016 23.5702 59.4791 22.7861 59.9606 21.8232L58.1717 20.9288C57.8371 21.5979 57.3867 22.1098 56.8194 22.4879L57.9288 24.1521ZM59.9656 21.8129C60.4508 20.8141 60.6781 19.688 60.6781 18.46H58.6781C58.6781 19.44 58.4975 20.2579 58.1666 20.9391L59.9656 21.8129ZM60.6781 18.46C60.6781 17.2523 60.4494 16.139 59.9656 15.1431L58.1666 16.0169C58.4989 16.701 58.6781 17.5077 58.6781 18.46H60.6781ZM59.9756 15.1642C59.5181 14.1634 58.8427 13.3596 57.9452 12.7912L56.8751 14.4808C57.4176 14.8244 57.8462 15.3166 58.1567 15.9958L59.9756 15.1642ZM57.9452 12.7912C57.0455 12.2214 56.0149 11.952 54.8901 11.952V13.952C55.6853 13.952 56.3347 14.1386 56.8751 14.4808L57.9452 12.7912ZM54.8901 11.952C53.7653 11.952 52.7347 12.2214 51.8351 12.7912L52.9052 14.4808C53.4455 14.1386 54.0949 13.952 54.8901 13.952V11.952ZM51.8351 12.7912C50.9432 13.356 50.2598 14.1525 49.7786 15.1431L51.5776 16.0169C51.9125 15.3275 52.3571 14.8279 52.9052 14.4808L51.8351 12.7912ZM49.7786 15.1431C49.2949 16.139 49.0661 17.2523 49.0661 18.46H51.0661C51.0661 17.5077 51.2454 16.701 51.5776 16.0169L49.7786 15.1431ZM49.0661 18.46C49.0661 19.688 49.2935 20.8141 49.7786 21.8129L51.5776 20.9391C51.2468 20.2579 51.0661 19.44 51.0661 18.46H49.0661ZM49.7837 21.8232C50.2651 22.7861 50.9427 23.5702 51.8154 24.1521L52.9248 22.4879C52.3576 22.1098 51.9071 21.5979 51.5726 20.9288L49.7837 21.8232ZM51.8351 24.1648C52.7347 24.7346 53.7653 25.004 54.8901 25.004V23.004C54.0949 23.004 53.4455 22.8174 52.9052 22.4752L51.8351 24.1648ZM71.357 27.064L70.7952 27.8912L71.357 27.064ZM68.333 23.536L67.4386 23.9832L68.333 23.536ZM68.333 13.348L67.4444 12.8893L67.4415 12.8949L68.333 13.348ZM71.429 9.856L71.973 10.6952L71.9837 10.688L71.429 9.856ZM78.413 8.992L78.0619 9.92833L78.0792 9.93483L78.0968 9.94068L78.413 8.992ZM80.465 10.108L79.8248 10.8762L79.8325 10.8826L79.8403 10.8889L80.465 10.108ZM81.977 11.764L82.814 11.2167L81.977 11.764ZM82.841 13.78L82.6766 14.7664L84.1556 15.0129L83.8149 13.5528L82.841 13.78ZM81.761 13.6H80.761V14.4471L81.5966 14.5864L81.761 13.6ZM81.761 8.956V7.956H80.761V8.956H81.761ZM86.837 8.956H87.837V7.956H86.837V8.956ZM86.837 28V29H87.837V28H86.837ZM81.689 28H80.689V29H81.689V28ZM81.689 23.428L81.5957 22.4324L80.689 22.5174V23.428H81.689ZM82.841 23.32L83.8026 23.5947L84.2045 22.1878L82.7477 22.3244L82.841 23.32ZM81.905 25.228L81.0935 24.6437L81.905 25.228ZM80.285 26.848L80.8751 27.6554L80.8803 27.6516L80.285 26.848ZM78.161 27.964L78.4773 28.9127L78.4901 28.9084L78.5028 28.9038L78.161 27.964ZM79.565 23.248L80.1001 24.0928L79.565 23.248ZM81.221 21.34L80.3215 20.9031L80.3162 20.9142L81.221 21.34ZM81.221 15.58L80.3162 16.0058L80.3213 16.0166L80.3266 16.0272L81.221 15.58ZM79.565 13.672L79.0103 14.504L79.0201 14.5105L79.03 14.5168L79.565 13.672ZM74.561 13.672L75.1091 14.5085L75.1157 14.504L74.561 13.672ZM72.905 15.58L72.0106 15.1328L72.905 15.58ZM72.905 21.34L72.0055 21.7769L72.0106 21.7872L72.905 21.34ZM74.561 23.248L74.013 24.0845L74.0195 24.0887L74.026 24.0928L74.561 23.248ZM75.641 27.36C74.251 27.36 73.0199 26.9846 71.9189 26.2368L70.7952 27.8912C72.2381 28.8714 73.8631 29.36 75.641 29.36V27.36ZM71.9189 26.2368C70.7999 25.4767 69.9014 24.4367 69.2275 23.0888L67.4386 23.9832C68.2527 25.6113 69.3701 26.9233 70.7952 27.8912L71.9189 26.2368ZM69.2275 23.0888C68.5629 21.7596 68.217 20.2127 68.217 18.424H66.217C66.217 20.4753 66.6152 22.3364 67.4386 23.9832L69.2275 23.0888ZM68.217 18.424C68.217 16.6348 68.563 15.1027 69.2245 13.8011L67.4415 12.8949C66.6151 14.5213 66.217 16.3731 66.217 18.424H68.217ZM69.2216 13.8066C69.9167 12.4599 70.8352 11.4326 71.9729 10.6952L70.8851 9.01685C69.4309 9.95941 68.2853 11.2601 67.4444 12.8894L69.2216 13.8066ZM71.9837 10.688C73.1049 9.94061 74.3853 9.56 75.857 9.56V7.56C74.0167 7.56 72.3452 8.04338 70.8743 9.02395L71.9837 10.688ZM75.857 9.56C76.6898 9.56 77.4209 9.68793 78.0619 9.92833L78.7642 8.05567C77.8692 7.72007 76.8962 7.56 75.857 7.56V9.56ZM78.0968 9.94068C78.7839 10.1697 79.3549 10.4846 79.8248 10.8762L81.1052 9.33978C80.4231 8.77139 79.6262 8.34229 78.7293 8.04332L78.0968 9.94068ZM79.8403 10.8889C80.3602 11.3048 80.7918 11.7786 81.1401 12.3112L82.814 11.2167C82.3463 10.5014 81.7698 9.87123 81.0897 9.32713L79.8403 10.8889ZM81.1401 12.3112C81.4846 12.8382 81.726 13.4021 81.8672 14.0072L83.8149 13.5528C83.6201 12.7179 83.2854 11.9378 82.814 11.2167L81.1401 12.3112ZM83.0054 12.7936L81.9254 12.6136L81.5966 14.5864L82.6766 14.7664L83.0054 12.7936ZM82.761 13.6V8.956H80.761V13.6H82.761ZM81.761 9.956H86.837V7.956H81.761V9.956ZM85.837 8.956V28H87.837V8.956H85.837ZM86.837 27H81.689V29H86.837V27ZM82.689 28V23.428H80.689V28H82.689ZM81.7824 24.4236L82.9344 24.3156L82.7477 22.3244L81.5957 22.4324L81.7824 24.4236ZM81.8795 23.0453C81.721 23.5999 81.4619 24.132 81.0935 24.6437L82.7166 25.8123C83.2121 25.124 83.577 24.3841 83.8026 23.5947L81.8795 23.0453ZM81.0935 24.6437C80.7271 25.1526 80.2623 25.6204 79.6898 26.0444L80.8803 27.6516C81.6038 27.1156 82.219 26.5034 82.7166 25.8123L81.0935 24.6437ZM79.695 26.0406C79.1537 26.4362 78.5307 26.7655 77.8193 27.0242L78.5028 28.9038C79.3754 28.5865 80.1684 28.1718 80.875 27.6554L79.695 26.0406ZM77.8448 27.0153C77.1611 27.2432 76.4284 27.36 75.641 27.36V29.36C76.6296 29.36 77.577 29.2128 78.4773 28.9127L77.8448 27.0153ZM77.045 24.932C78.1698 24.932 79.2004 24.6626 80.1001 24.0928L79.03 22.4032C78.4896 22.7454 77.8402 22.932 77.045 22.932V24.932ZM80.1001 24.0928C80.9902 23.5291 81.6659 22.7433 82.1259 21.7658L80.3162 20.9142C80.0082 21.5687 79.5799 22.0549 79.03 22.4032L80.1001 24.0928ZM82.1205 21.7769C82.6057 20.7781 82.833 19.652 82.833 18.424H80.833C80.833 19.404 80.6524 20.2219 80.3215 20.9031L82.1205 21.7769ZM82.833 18.424C82.833 17.2171 82.6045 16.111 82.1155 15.1328L80.3266 16.0272C80.6535 16.681 80.833 17.4709 80.833 18.424H82.833ZM82.1259 15.1542C81.6659 14.1767 80.9902 13.3909 80.1001 12.8272L79.03 14.5168C79.5799 14.8651 80.0082 15.3513 80.3162 16.0058L82.1259 15.1542ZM80.1197 12.8399C79.2177 12.2386 78.18 11.952 77.045 11.952V13.952C77.83 13.952 78.4723 14.1454 79.0103 14.504L80.1197 12.8399ZM77.045 11.952C75.9285 11.952 74.9041 12.2414 74.0063 12.8399L75.1157 14.504C75.658 14.1426 76.2896 13.952 77.045 13.952V11.952ZM74.013 12.8355C73.1552 13.3976 72.4898 14.1744 72.0106 15.1328L73.7995 16.0272C74.1363 15.3536 74.5749 14.8584 75.1091 14.5085L74.013 12.8355ZM72.0106 15.1328C71.5215 16.111 71.293 17.2171 71.293 18.424H73.293C73.293 17.4709 73.4725 16.681 73.7995 16.0272L72.0106 15.1328ZM71.293 18.424C71.293 19.652 71.5204 20.7781 72.0055 21.7769L73.8045 20.9031C73.4737 20.2219 73.293 19.404 73.293 18.424H71.293ZM72.0106 21.7872C72.4898 22.7456 73.1552 23.5224 74.013 24.0845L75.1091 22.4115C74.5749 22.0616 74.1363 21.5664 73.7995 20.8928L72.0106 21.7872ZM74.026 24.0928C74.9216 24.66 75.9389 24.932 77.045 24.932V22.932C76.2792 22.932 75.6405 22.748 75.0961 22.4032L74.026 24.0928ZM94.9502 27.1L94.4025 27.9368L94.4134 27.9437L94.9502 27.1ZM91.8183 23.608L90.9238 24.0552L90.9282 24.0639L90.9327 24.0725L91.8183 23.608ZM91.8183 13.384L90.9296 12.9253L90.9238 12.9368L91.8183 13.384ZM94.9143 9.856L94.3666 9.01927L94.3596 9.02395L94.9143 9.856ZM101.97 8.992L101.637 9.93499L101.654 9.94078L101.67 9.94599L101.97 8.992ZM104.202 10.108L103.607 10.9116L103.614 10.9167L103.621 10.9217L104.202 10.108ZM105.822 11.728L104.995 12.2903L105.001 12.2982L105.006 12.306L105.822 11.728ZM106.506 13.564L106.671 14.5504L107.571 14.4003L107.504 13.4901L106.506 13.564ZM105.21 13.78H104.21V14.9605L105.375 14.7664L105.21 13.78ZM105.21 1.36V0.36H104.21V1.36H105.21ZM110.322 1.36H111.322V0.36H110.322V1.36ZM110.322 28V29H111.322V28H110.322ZM105.498 28L104.499 28.0491L104.546 29H105.498V28ZM105.282 23.608L105.389 22.6137L104.226 22.4891L104.283 23.6571L105.282 23.608ZM106.29 23.716L107.287 23.7957L107.365 22.8254L106.397 22.7217L106.29 23.716ZM105.642 25.444L106.463 26.0151L105.642 25.444ZM104.094 26.956L104.663 27.7782L104.67 27.7738L104.094 26.956ZM101.934 28L102.224 28.957L102.233 28.9543L102.242 28.9514L101.934 28ZM103.086 23.392L102.532 22.5599L103.086 23.392ZM104.778 21.412L103.879 20.9751L104.778 21.412ZM104.778 15.544L103.874 15.971L103.879 15.9809L104.778 15.544ZM103.086 13.564L102.532 14.396L102.541 14.4025L102.551 14.4088L103.086 13.564ZM98.0462 13.564L98.5943 14.4005L98.601 14.396L98.0462 13.564ZM96.3903 15.544L95.4859 15.117L95.4808 15.1282L96.3903 15.544ZM96.3903 21.412L95.4808 21.8278L95.4856 21.8384L95.4907 21.8489L96.3903 21.412ZM98.0462 23.392L97.4785 24.2152L97.485 24.2197L97.4915 24.224L98.0462 23.392ZM99.4143 27.36C97.9368 27.36 96.6371 26.9882 95.4871 26.2563L94.4134 27.9437C95.9034 28.8918 97.5797 29.36 99.4143 29.36V27.36ZM95.4979 26.2633C94.3273 25.4971 93.3966 24.4642 92.7038 23.1434L90.9327 24.0725C91.7759 25.6798 92.9332 26.9749 94.4026 27.9367L95.4979 26.2633ZM92.7127 23.1608C92.0489 21.8332 91.7022 20.2749 91.7022 18.46H89.7022C89.7022 20.5331 90.0996 22.4068 90.9238 24.0552L92.7127 23.1608ZM91.7022 18.46C91.7022 16.6974 92.0472 15.1621 92.7127 13.8312L90.9238 12.9368C90.1013 14.5819 89.7022 16.4306 89.7022 18.46H91.7022ZM92.7069 13.8426C93.4031 12.4938 94.3247 11.4509 95.4689 10.688L94.3596 9.02395C92.9118 9.98909 91.7694 11.2982 90.9296 12.9254L92.7069 13.8426ZM95.4619 10.6927C96.6084 9.94228 97.9156 9.56 99.4143 9.56V7.56C97.5529 7.56 95.8601 8.04172 94.3666 9.0193L95.4619 10.6927ZM99.4143 9.56C100.192 9.56 100.931 9.68571 101.637 9.93499L102.303 8.04901C101.377 7.72229 100.413 7.56 99.4143 7.56V9.56ZM101.67 9.94599C102.414 10.1797 103.056 10.5036 103.607 10.9116L104.797 9.30444C104.052 8.7524 103.206 8.33231 102.27 8.03801L101.67 9.94599ZM103.621 10.9217C104.21 11.3425 104.662 11.8005 104.995 12.2903L106.649 11.1657C106.166 10.4555 105.538 9.83353 104.783 9.29427L103.621 10.9217ZM105.006 12.306C105.318 12.7468 105.476 13.1868 105.509 13.6379L107.504 13.4901C107.441 12.6452 107.142 11.8612 106.638 11.15L105.006 12.306ZM106.342 12.5776L105.046 12.7936L105.375 14.7664L106.671 14.5504L106.342 12.5776ZM106.21 13.78V1.36H104.21V13.78H106.21ZM105.21 2.36H110.322V0.36H105.21V2.36ZM109.322 1.36V28H111.322V1.36H109.322ZM110.322 27H105.498V29H110.322V27ZM106.497 27.9509L106.281 23.5589L104.283 23.6571L104.499 28.0491L106.497 27.9509ZM105.176 24.6023L106.184 24.7103L106.397 22.7217L105.389 22.6137L105.176 24.6023ZM105.293 23.6363C105.261 24.0398 105.116 24.4488 104.821 24.8729L106.463 26.0151C106.936 25.3352 107.223 24.5922 107.287 23.7957L105.293 23.6363ZM104.821 24.8729C104.515 25.3136 104.088 25.7377 103.519 26.1382L104.67 27.7738C105.397 27.2623 106.002 26.6784 106.463 26.0151L104.821 24.8729ZM103.525 26.1338C102.991 26.5035 102.361 26.8108 101.626 27.0486L102.242 28.9514C103.139 28.6612 103.949 28.2725 104.663 27.7782L103.525 26.1338ZM101.644 27.043C100.953 27.2525 100.211 27.36 99.4143 27.36V29.36C100.393 29.36 101.332 29.2275 102.224 28.957L101.644 27.043ZM100.566 25.112C101.701 25.112 102.739 24.8254 103.641 24.224L102.532 22.5599C101.994 22.9186 101.351 23.112 100.566 23.112V25.112ZM103.641 24.224C104.521 23.6376 105.198 22.8358 105.678 21.8489L103.879 20.9751C103.542 21.6682 103.092 22.1864 102.532 22.5599L103.641 24.224ZM105.678 21.8489C106.164 20.8474 106.39 19.7083 106.39 18.46H104.39C104.39 19.4677 104.208 20.2966 103.879 20.9751L105.678 21.8489ZM106.39 18.46C106.39 17.232 106.163 16.1059 105.678 15.1071L103.879 15.9809C104.21 16.6621 104.39 17.48 104.39 18.46H106.39ZM105.683 15.117C105.204 14.1029 104.52 13.2886 103.621 12.7192L102.551 14.4088C103.092 14.7514 103.537 15.2571 103.874 15.971L105.683 15.117ZM103.641 12.7319C102.739 12.1306 101.701 11.844 100.566 11.844V13.844C101.351 13.844 101.994 14.0374 102.532 14.396L103.641 12.7319ZM100.566 11.844C99.4313 11.844 98.3935 12.1306 97.4915 12.7319L98.601 14.396C99.139 14.0374 99.7812 13.844 100.566 13.844V11.844ZM97.4982 12.7275C96.6262 13.2988 95.9608 14.1115 95.486 15.117L97.2945 15.971C97.6357 15.2485 98.0743 14.7412 98.5943 14.4005L97.4982 12.7275ZM95.4808 15.1282C95.0266 16.1217 94.8142 17.2401 94.8142 18.46H96.8142C96.8142 17.4719 96.9859 16.6463 97.2997 15.9598L95.4808 15.1282ZM94.8142 18.46C94.8142 19.7004 95.0254 20.8317 95.4808 21.8278L97.2997 20.9962C96.9871 20.3123 96.8142 19.4756 96.8142 18.46H94.8142ZM95.4907 21.8489C95.9661 22.8275 96.626 23.6272 97.4785 24.2152L98.614 22.5688C98.0745 22.1968 97.6304 21.6765 97.2898 20.9751L95.4907 21.8489ZM97.4915 24.224C98.3935 24.8254 99.4313 25.112 100.566 25.112V23.112C99.7812 23.112 99.139 22.9186 98.601 22.5599L97.4915 24.224ZM118.15 27.064L117.588 27.8912L118.15 27.064ZM115.126 23.536L114.232 23.9832L115.126 23.536ZM115.126 13.348L114.237 12.8893L114.235 12.8949L115.126 13.348ZM118.222 9.856L118.766 10.6952L118.777 10.688L118.222 9.856ZM125.206 8.992L124.855 9.92833L124.872 9.93483L124.89 9.94068L125.206 8.992ZM127.258 10.108L126.618 10.8762L126.626 10.8826L126.633 10.8889L127.258 10.108ZM128.77 11.764L129.607 11.2167L128.77 11.764ZM129.634 13.78L129.47 14.7664L130.949 15.0129L130.608 13.5528L129.634 13.78ZM128.554 13.6H127.554V14.4471L128.39 14.5864L128.554 13.6ZM128.554 8.956V7.956H127.554V8.956H128.554ZM133.63 8.956H134.63V7.956H133.63V8.956ZM133.63 28V29H134.63V28H133.63ZM128.482 28H127.482V29H128.482V28ZM128.482 23.428L128.389 22.4324L127.482 22.5174V23.428H128.482ZM129.634 23.32L130.596 23.5947L130.997 22.1878L129.541 22.3244L129.634 23.32ZM128.698 25.228L127.886 24.6437L128.698 25.228ZM127.078 26.848L127.668 27.6554L127.673 27.6516L127.078 26.848ZM124.954 27.964L125.27 28.9127L125.283 28.9084L125.296 28.9038L124.954 27.964ZM126.358 23.248L126.893 24.0928L126.358 23.248ZM128.014 21.34L127.114 20.9031L127.109 20.9142L128.014 21.34ZM128.014 15.58L127.109 16.0058L127.114 16.0166L127.12 16.0272L128.014 15.58ZM126.358 13.672L125.803 14.504L125.813 14.5105L125.823 14.5168L126.358 13.672ZM121.354 13.672L121.902 14.5085L121.909 14.504L121.354 13.672ZM119.698 15.58L118.804 15.1328L119.698 15.58ZM119.698 21.34L118.798 21.7769L118.804 21.7872L119.698 21.34ZM121.354 23.248L120.806 24.0845L120.812 24.0887L120.819 24.0928L121.354 23.248ZM122.434 27.36C121.044 27.36 119.813 26.9846 118.712 26.2368L117.588 27.8912C119.031 28.8714 120.656 29.36 122.434 29.36V27.36ZM118.712 26.2368C117.593 25.4767 116.694 24.4367 116.02 23.0888L114.232 23.9832C115.046 25.6113 116.163 26.9233 117.588 27.8912L118.712 26.2368ZM116.02 23.0888C115.356 21.7596 115.01 20.2127 115.01 18.424H113.01C113.01 20.4753 113.408 22.3364 114.232 23.9832L116.02 23.0888ZM115.01 18.424C115.01 16.6348 115.356 15.1027 116.017 13.8011L114.235 12.8949C113.408 14.5213 113.01 16.3731 113.01 18.424H115.01ZM116.015 13.8066C116.71 12.4599 117.628 11.4326 118.766 10.6952L117.678 9.01685C116.224 9.95941 115.078 11.2601 114.237 12.8894L116.015 13.8066ZM118.777 10.688C119.898 9.94061 121.178 9.56 122.65 9.56V7.56C120.81 7.56 119.138 8.04338 117.667 9.02395L118.777 10.688ZM122.65 9.56C123.483 9.56 124.214 9.68793 124.855 9.92833L125.557 8.05567C124.662 7.72007 123.689 7.56 122.65 7.56V9.56ZM124.89 9.94068C125.577 10.1697 126.148 10.4846 126.618 10.8762L127.898 9.33978C127.216 8.77139 126.419 8.34229 125.522 8.04332L124.89 9.94068ZM126.633 10.8889C127.153 11.3048 127.585 11.7786 127.933 12.3112L129.607 11.2167C129.139 10.5014 128.563 9.87123 127.883 9.32713L126.633 10.8889ZM127.933 12.3112C128.278 12.8382 128.519 13.4021 128.66 14.0072L130.608 13.5528C130.413 12.7179 130.078 11.9378 129.607 11.2167L127.933 12.3112ZM129.798 12.7936L128.718 12.6136L128.39 14.5864L129.47 14.7664L129.798 12.7936ZM129.554 13.6V8.956H127.554V13.6H129.554ZM128.554 9.956H133.63V7.956H128.554V9.956ZM132.63 8.956V28H134.63V8.956H132.63ZM133.63 27H128.482V29H133.63V27ZM129.482 28V23.428H127.482V28H129.482ZM128.575 24.4236L129.727 24.3156L129.541 22.3244L128.389 22.4324L128.575 24.4236ZM128.672 23.0453C128.514 23.5999 128.255 24.132 127.886 24.6437L129.51 25.8123C130.005 25.124 130.37 24.3841 130.596 23.5947L128.672 23.0453ZM127.886 24.6437C127.52 25.1526 127.055 25.6204 126.483 26.0444L127.673 27.6516C128.397 27.1156 129.012 26.5034 129.51 25.8123L127.886 24.6437ZM126.488 26.0406C125.947 26.4362 125.324 26.7655 124.612 27.0242L125.296 28.9038C126.168 28.5865 126.961 28.1718 127.668 27.6554L126.488 26.0406ZM124.638 27.0153C123.954 27.2432 123.221 27.36 122.434 27.36V29.36C123.423 29.36 124.37 29.2128 125.27 28.9127L124.638 27.0153ZM123.838 24.932C124.963 24.932 125.993 24.6626 126.893 24.0928L125.823 22.4032C125.283 22.7454 124.633 22.932 123.838 22.932V24.932ZM126.893 24.0928C127.783 23.5291 128.459 22.7433 128.919 21.7658L127.109 20.9142C126.801 21.5687 126.373 22.0549 125.823 22.4032L126.893 24.0928ZM128.914 21.7769C129.399 20.7781 129.626 19.652 129.626 18.424H127.626C127.626 19.404 127.445 20.2219 127.114 20.9031L128.914 21.7769ZM129.626 18.424C129.626 17.2171 129.398 16.111 128.908 15.1328L127.12 16.0272C127.446 16.681 127.626 17.4709 127.626 18.424H129.626ZM128.919 15.1542C128.459 14.1767 127.783 13.3909 126.893 12.8272L125.823 14.5168C126.373 14.8651 126.801 15.3513 127.109 16.0058L128.919 15.1542ZM126.913 12.8399C126.011 12.2386 124.973 11.952 123.838 11.952V13.952C124.623 13.952 125.265 14.1454 125.803 14.504L126.913 12.8399ZM123.838 11.952C122.721 11.952 121.697 12.2414 120.799 12.8399L121.909 14.504C122.451 14.1426 123.083 13.952 123.838 13.952V11.952ZM120.806 12.8355C119.948 13.3976 119.283 14.1744 118.804 15.1328L120.592 16.0272C120.929 15.3536 121.368 14.8584 121.902 14.5085L120.806 12.8355ZM118.804 15.1328C118.314 16.111 118.086 17.2171 118.086 18.424H120.086C120.086 17.4709 120.266 16.681 120.592 16.0272L118.804 15.1328ZM118.086 18.424C118.086 19.652 118.313 20.7781 118.798 21.7769L120.598 20.9031C120.267 20.2219 120.086 19.404 120.086 18.424H118.086ZM118.804 21.7872C119.283 22.7456 119.948 23.5224 120.806 24.0845L121.902 22.4115C121.368 22.0616 120.929 21.5664 120.592 20.8928L118.804 21.7872ZM120.819 24.0928C121.715 24.66 122.732 24.932 123.838 24.932V22.932C123.072 22.932 122.433 22.748 121.889 22.4032L120.819 24.0928Z" fill="#191919" mask="url(#path-1-outside-1_122_184)"/>
</g>
<defs>
<filter id="filter0_d_122_184" x="0.276001" y="0.360107" width="135.854" height="30.5" filterUnits="userSpaceOnUse" color-interpolation-filters="sRGB">
<feFlood flood-opacity="0" result="BackgroundImageFix"/>
<feColorMatrix in="SourceAlpha" type="matrix" values="0 0 0 0 0 0 0 0 0 0 0 0 0 0 0 0 0 0 127 0" result="hardAlpha"/>
<feOffset dx="1.5" dy="1.5"/>
<feColorMatrix type="matrix" values="0 0 0 0 0.0980392 0 0 0 0 0.0980392 0 0 0 0 0.0980392 0 0 0 1 0"/>
<feBlend mode="normal" in2="BackgroundImageFix" result="effect1_dropShadow_122_184"/>
<feBlend mode="normal" in="SourceGraphic" in2="effect1_dropShadow_122_184" result="shape"/>
</filter>
</defs>
</svg>
