<svg width="90" height="31" viewBox="0 0 90 31" fill="none" xmlns="http://www.w3.org/2000/svg">
<g filter="url(#filter0_d_122_351)">
<mask id="path-1-outside-1_122_351" maskUnits="userSpaceOnUse" x="0" y="0" width="88" height="30" fill="black">
<rect fill="white" width="88" height="30"/>
<path d="M8.532 28V7.66H1.188V2.8H21.492V7.66H13.932V28H8.532ZM30.5018 28.36C28.5578 28.36 26.8178 27.94 25.2818 27.1C23.7698 26.236 22.5698 25.06 21.6818 23.572C20.8178 22.084 20.3858 20.38 20.3858 18.46C20.3858 16.54 20.8178 14.848 21.6818 13.384C22.5698 11.896 23.7698 10.72 25.2818 9.856C26.8178 8.992 28.5578 8.56 30.5018 8.56C32.4218 8.56 34.1378 8.992 35.6498 9.856C37.1858 10.72 38.3858 11.896 39.2498 13.384C40.1138 14.848 40.5458 16.54 40.5458 18.46C40.5458 20.38 40.1138 22.084 39.2498 23.572C38.3858 25.06 37.1858 26.236 35.6498 27.1C34.1378 27.94 32.4218 28.36 30.5018 28.36ZM30.5018 23.896C31.4378 23.896 32.2778 23.668 33.0218 23.212C33.7658 22.732 34.3418 22.084 34.7498 21.268C35.1818 20.428 35.3978 19.492 35.3978 18.46C35.3978 17.404 35.1818 16.468 34.7498 15.652C34.3418 14.812 33.7658 14.164 33.0218 13.708C32.2778 13.228 31.4378 12.988 30.5018 12.988C29.5418 12.988 28.6898 13.228 27.9458 13.708C27.2018 14.188 26.6138 14.836 26.1818 15.652C25.7498 16.468 25.5458 17.404 25.5698 18.46C25.5458 19.492 25.7498 20.428 26.1818 21.268C26.6138 22.084 27.2018 22.732 27.9458 23.212C28.6898 23.668 29.5418 23.896 30.5018 23.896ZM51.8439 28.36C50.1879 28.36 48.6999 27.94 47.3799 27.1C46.0599 26.236 45.0159 25.072 44.2479 23.608C43.5039 22.12 43.1319 20.404 43.1319 18.46C43.1319 16.564 43.5039 14.872 44.2479 13.384C45.0159 11.896 46.0479 10.72 47.3439 9.856C48.6639 8.992 50.1639 8.56 51.8439 8.56C52.7319 8.56 53.5839 8.704 54.3999 8.992C55.2399 9.256 55.9839 9.628 56.6319 10.108C57.3039 10.588 57.8439 11.128 58.2519 11.728C58.6599 12.304 58.8879 12.916 58.9359 13.564L57.6399 13.78V1.36H62.7519V28H57.9279L57.7119 23.608L58.7199 23.716C58.6719 24.316 58.4559 24.892 58.0719 25.444C57.6879 25.996 57.1719 26.5 56.5239 26.956C55.8999 27.388 55.1799 27.736 54.3639 28C53.5719 28.24 52.7319 28.36 51.8439 28.36ZM52.9959 24.112C53.9559 24.112 54.7959 23.872 55.5159 23.392C56.2359 22.912 56.7999 22.252 57.2079 21.412C57.6159 20.572 57.8199 19.588 57.8199 18.46C57.8199 17.356 57.6159 16.384 57.2079 15.544C56.7999 14.68 56.2359 14.02 55.5159 13.564C54.7959 13.084 53.9559 12.844 52.9959 12.844C52.0359 12.844 51.1959 13.084 50.4759 13.564C49.7799 14.02 49.2279 14.68 48.8199 15.544C48.4359 16.384 48.2439 17.356 48.2439 18.46C48.2439 19.588 48.4359 20.572 48.8199 21.412C49.2279 22.252 49.7799 22.912 50.4759 23.392C51.1959 23.872 52.0359 24.112 52.9959 24.112ZM76.5917 28.36C74.6477 28.36 72.9077 27.94 71.3717 27.1C69.8597 26.236 68.6597 25.06 67.7717 23.572C66.9077 22.084 66.4757 20.38 66.4757 18.46C66.4757 16.54 66.9077 14.848 67.7717 13.384C68.6597 11.896 69.8597 10.72 71.3717 9.856C72.9077 8.992 74.6477 8.56 76.5917 8.56C78.5117 8.56 80.2277 8.992 81.7397 9.856C83.2757 10.72 84.4757 11.896 85.3397 13.384C86.2037 14.848 86.6357 16.54 86.6357 18.46C86.6357 20.38 86.2037 22.084 85.3397 23.572C84.4757 25.06 83.2757 26.236 81.7397 27.1C80.2277 27.94 78.5117 28.36 76.5917 28.36ZM76.5917 23.896C77.5277 23.896 78.3677 23.668 79.1117 23.212C79.8557 22.732 80.4317 22.084 80.8397 21.268C81.2717 20.428 81.4877 19.492 81.4877 18.46C81.4877 17.404 81.2717 16.468 80.8397 15.652C80.4317 14.812 79.8557 14.164 79.1117 13.708C78.3677 13.228 77.5277 12.988 76.5917 12.988C75.6317 12.988 74.7797 13.228 74.0357 13.708C73.2917 14.188 72.7037 14.836 72.2717 15.652C71.8397 16.468 71.6357 17.404 71.6597 18.46C71.6357 19.492 71.8397 20.428 72.2717 21.268C72.7037 22.084 73.2917 22.732 74.0357 23.212C74.7797 23.668 75.6317 23.896 76.5917 23.896Z"/>
</mask>
<path d="M8.532 28V7.66H1.188V2.8H21.492V7.66H13.932V28H8.532ZM30.5018 28.36C28.5578 28.36 26.8178 27.94 25.2818 27.1C23.7698 26.236 22.5698 25.06 21.6818 23.572C20.8178 22.084 20.3858 20.38 20.3858 18.46C20.3858 16.54 20.8178 14.848 21.6818 13.384C22.5698 11.896 23.7698 10.72 25.2818 9.856C26.8178 8.992 28.5578 8.56 30.5018 8.56C32.4218 8.56 34.1378 8.992 35.6498 9.856C37.1858 10.72 38.3858 11.896 39.2498 13.384C40.1138 14.848 40.5458 16.54 40.5458 18.46C40.5458 20.38 40.1138 22.084 39.2498 23.572C38.3858 25.06 37.1858 26.236 35.6498 27.1C34.1378 27.94 32.4218 28.36 30.5018 28.36ZM30.5018 23.896C31.4378 23.896 32.2778 23.668 33.0218 23.212C33.7658 22.732 34.3418 22.084 34.7498 21.268C35.1818 20.428 35.3978 19.492 35.3978 18.46C35.3978 17.404 35.1818 16.468 34.7498 15.652C34.3418 14.812 33.7658 14.164 33.0218 13.708C32.2778 13.228 31.4378 12.988 30.5018 12.988C29.5418 12.988 28.6898 13.228 27.9458 13.708C27.2018 14.188 26.6138 14.836 26.1818 15.652C25.7498 16.468 25.5458 17.404 25.5698 18.46C25.5458 19.492 25.7498 20.428 26.1818 21.268C26.6138 22.084 27.2018 22.732 27.9458 23.212C28.6898 23.668 29.5418 23.896 30.5018 23.896ZM51.8439 28.36C50.1879 28.36 48.6999 27.94 47.3799 27.1C46.0599 26.236 45.0159 25.072 44.2479 23.608C43.5039 22.12 43.1319 20.404 43.1319 18.46C43.1319 16.564 43.5039 14.872 44.2479 13.384C45.0159 11.896 46.0479 10.72 47.3439 9.856C48.6639 8.992 50.1639 8.56 51.8439 8.56C52.7319 8.56 53.5839 8.704 54.3999 8.992C55.2399 9.256 55.9839 9.628 56.6319 10.108C57.3039 10.588 57.8439 11.128 58.2519 11.728C58.6599 12.304 58.8879 12.916 58.9359 13.564L57.6399 13.78V1.36H62.7519V28H57.9279L57.7119 23.608L58.7199 23.716C58.6719 24.316 58.4559 24.892 58.0719 25.444C57.6879 25.996 57.1719 26.5 56.5239 26.956C55.8999 27.388 55.1799 27.736 54.3639 28C53.5719 28.24 52.7319 28.36 51.8439 28.36ZM52.9959 24.112C53.9559 24.112 54.7959 23.872 55.5159 23.392C56.2359 22.912 56.7999 22.252 57.2079 21.412C57.6159 20.572 57.8199 19.588 57.8199 18.46C57.8199 17.356 57.6159 16.384 57.2079 15.544C56.7999 14.68 56.2359 14.02 55.5159 13.564C54.7959 13.084 53.9559 12.844 52.9959 12.844C52.0359 12.844 51.1959 13.084 50.4759 13.564C49.7799 14.02 49.2279 14.68 48.8199 15.544C48.4359 16.384 48.2439 17.356 48.2439 18.46C48.2439 19.588 48.4359 20.572 48.8199 21.412C49.2279 22.252 49.7799 22.912 50.4759 23.392C51.1959 23.872 52.0359 24.112 52.9959 24.112ZM76.5917 28.36C74.6477 28.36 72.9077 27.94 71.3717 27.1C69.8597 26.236 68.6597 25.06 67.7717 23.572C66.9077 22.084 66.4757 20.38 66.4757 18.46C66.4757 16.54 66.9077 14.848 67.7717 13.384C68.6597 11.896 69.8597 10.72 71.3717 9.856C72.9077 8.992 74.6477 8.56 76.5917 8.56C78.5117 8.56 80.2277 8.992 81.7397 9.856C83.2757 10.72 84.4757 11.896 85.3397 13.384C86.2037 14.848 86.6357 16.54 86.6357 18.46C86.6357 20.38 86.2037 22.084 85.3397 23.572C84.4757 25.06 83.2757 26.236 81.7397 27.1C80.2277 27.94 78.5117 28.36 76.5917 28.36ZM76.5917 23.896C77.5277 23.896 78.3677 23.668 79.1117 23.212C79.8557 22.732 80.4317 22.084 80.8397 21.268C81.2717 20.428 81.4877 19.492 81.4877 18.46C81.4877 17.404 81.2717 16.468 80.8397 15.652C80.4317 14.812 79.8557 14.164 79.1117 13.708C78.3677 13.228 77.5277 12.988 76.5917 12.988C75.6317 12.988 74.7797 13.228 74.0357 13.708C73.2917 14.188 72.7037 14.836 72.2717 15.652C71.8397 16.468 71.6357 17.404 71.6597 18.46C71.6357 19.492 71.8397 20.428 72.2717 21.268C72.7037 22.084 73.2917 22.732 74.0357 23.212C74.7797 23.668 75.6317 23.896 76.5917 23.896Z" fill="#B0586F"/>
<path d="M8.532 28H7.532V29H8.532V28ZM8.532 7.66H9.532V6.66H8.532V7.66ZM1.188 7.66H0.188V8.66H1.188V7.66ZM1.188 2.8V1.8H0.188V2.8H1.188ZM21.492 2.8H22.492V1.8H21.492V2.8ZM21.492 7.66V8.66H22.492V7.66H21.492ZM13.932 7.66V6.66H12.932V7.66H13.932ZM13.932 28V29H14.932V28H13.932ZM9.532 28V7.66H7.532V28H9.532ZM8.532 6.66H1.188V8.66H8.532V6.66ZM2.188 7.66V2.8H0.188V7.66H2.188ZM1.188 3.8H21.492V1.8H1.188V3.8ZM20.492 2.8V7.66H22.492V2.8H20.492ZM21.492 6.66H13.932V8.66H21.492V6.66ZM12.932 7.66V28H14.932V7.66H12.932ZM13.932 27H8.532V29H13.932V27ZM25.2818 27.1L24.7857 27.9682L24.7938 27.9729L24.802 27.9774L25.2818 27.1ZM21.6818 23.572L20.817 24.0742L20.8231 24.0845L21.6818 23.572ZM21.6818 13.384L20.8231 12.8715L20.8206 12.8757L21.6818 13.384ZM25.2818 9.856L24.7916 8.9844L24.7857 8.98776L25.2818 9.856ZM35.6498 9.856L35.1537 10.7243L35.1596 10.7276L35.6498 9.856ZM39.2498 13.384L38.385 13.8861L38.3886 13.8923L39.2498 13.384ZM39.2498 23.572L38.3851 23.0699L39.2498 23.572ZM35.6498 27.1L36.1355 27.9742L36.1401 27.9716L35.6498 27.1ZM33.0218 23.212L33.5444 24.0646L33.5543 24.0586L33.564 24.0523L33.0218 23.212ZM34.7498 21.268L33.8605 20.8106L33.8554 20.8208L34.7498 21.268ZM34.7498 15.652L33.8503 16.0889L33.8579 16.1045L33.8661 16.1199L34.7498 15.652ZM33.0218 13.708L32.4797 14.5483L32.4894 14.5546L32.4993 14.5606L33.0218 13.708ZM26.1818 15.652L25.2981 15.1841L26.1818 15.652ZM25.5698 18.46L26.5696 18.4832L26.5701 18.4603L26.5696 18.4373L25.5698 18.46ZM26.1818 21.268L25.2925 21.7254L25.2981 21.7359L26.1818 21.268ZM27.9458 23.212L27.4037 24.0523L27.4134 24.0586L27.4233 24.0646L27.9458 23.212ZM30.5018 27.36C28.7067 27.36 27.1348 26.9736 25.7617 26.2226L24.802 27.9774C26.5009 28.9064 28.409 29.36 30.5018 29.36V27.36ZM25.778 26.2318C24.4147 25.4527 23.3399 24.3989 22.5406 23.0595L20.8231 24.0845C21.7998 25.7211 23.125 27.0193 24.7857 27.9682L25.778 26.2318ZM22.5466 23.0699C21.7811 21.7515 21.3858 20.2245 21.3858 18.46H19.3858C19.3858 20.5355 19.8545 22.4165 20.8171 24.0741L22.5466 23.0699ZM21.3858 18.46C21.3858 16.6951 21.7812 15.1831 22.5431 13.8923L20.8206 12.8757C19.8545 14.5129 19.3858 16.3849 19.3858 18.46H21.3858ZM22.5406 13.8965C23.3399 12.5571 24.4147 11.5033 25.778 10.7242L24.7857 8.98776C23.125 9.93672 21.7998 11.2349 20.8231 12.8715L22.5406 13.8965ZM25.7721 10.7276C27.1434 9.95623 28.7115 9.56 30.5018 9.56V7.56C28.4042 7.56 26.4923 8.02777 24.7916 8.98442L25.7721 10.7276ZM30.5018 9.56C32.2661 9.56 33.8079 9.95523 35.1537 10.7242L36.146 8.98776C34.4678 8.02877 32.5776 7.56 30.5018 7.56V9.56ZM35.1596 10.7276C36.544 11.5063 37.6129 12.5564 38.3851 13.8861L40.1146 12.8819C39.1588 11.2356 37.8277 9.93371 36.1401 8.98442L35.1596 10.7276ZM38.3886 13.8923C39.1505 15.1831 39.5458 16.6951 39.5458 18.46H41.5458C41.5458 16.3849 41.0772 14.5129 40.111 12.8757L38.3886 13.8923ZM39.5458 18.46C39.5458 20.2245 39.1506 21.7515 38.3851 23.0699L40.1146 24.0741C41.0771 22.4165 41.5458 20.5355 41.5458 18.46H39.5458ZM38.3851 23.0699C37.6129 24.3996 36.544 25.4497 35.1596 26.2284L36.1401 27.9716C37.8277 27.0223 39.1588 25.7204 40.1146 24.0741L38.3851 23.0699ZM35.1642 26.2258C33.8166 26.9745 32.271 27.36 30.5018 27.36V29.36C32.5727 29.36 34.4591 28.9055 36.1355 27.9742L35.1642 26.2258ZM30.5018 24.896C31.6084 24.896 32.6317 24.624 33.5444 24.0646L32.4993 22.3594C31.924 22.712 31.2673 22.896 30.5018 22.896V24.896ZM33.564 24.0523C34.4632 23.4721 35.1587 22.6863 35.6443 21.7152L33.8554 20.8208C33.525 21.4817 33.0685 21.9919 32.4797 22.3717L33.564 24.0523ZM35.6391 21.7253C36.1505 20.7311 36.3978 19.6361 36.3978 18.46H34.3978C34.3978 19.3479 34.2132 20.1249 33.8606 20.8107L35.6391 21.7253ZM36.3978 18.46C36.3978 17.2645 36.1523 16.1638 35.6336 15.1841L33.8661 16.1199C34.2114 16.7722 34.3978 17.5435 34.3978 18.46H36.3978ZM35.6494 15.2151C35.1641 14.216 34.4627 13.4182 33.5444 12.8554L32.4993 14.5606C33.069 14.9098 33.5196 15.408 33.8503 16.0889L35.6494 15.2151ZM33.564 12.8677C32.649 12.2774 31.6186 11.988 30.5018 11.988V13.988C31.2571 13.988 31.9067 14.1786 32.4797 14.5483L33.564 12.8677ZM30.5018 11.988C29.3664 11.988 28.3229 12.2747 27.4037 12.8677L28.488 14.5483C29.0568 14.1813 29.7173 13.988 30.5018 13.988V11.988ZM27.4037 12.8677C26.5096 13.4446 25.8066 14.2235 25.2981 15.1841L27.0656 16.1199C27.4211 15.4485 27.8941 14.9314 28.488 14.5483L27.4037 12.8677ZM25.2981 15.1841C24.7752 16.1716 24.5428 17.2809 24.5701 18.4827L26.5696 18.4373C26.5489 17.5271 26.7244 16.7643 27.0656 16.1199L25.2981 15.1841ZM24.5701 18.4368C24.5426 19.6198 24.7773 20.7234 25.2926 21.7253L27.0711 20.8107C26.7224 20.1326 26.5491 19.3642 26.5696 18.4832L24.5701 18.4368ZM25.2981 21.7359C25.8066 22.6965 26.5096 23.4754 27.4037 24.0523L28.488 22.3717C27.8941 21.9886 27.4211 21.4715 27.0656 20.8001L25.2981 21.7359ZM27.4233 24.0646C28.34 24.6265 29.3765 24.896 30.5018 24.896V22.896C29.7072 22.896 29.0396 22.7095 28.4684 22.3594L27.4233 24.0646ZM47.3799 27.1L46.8322 27.9368L46.8431 27.9437L47.3799 27.1ZM44.2479 23.608L43.3535 24.0552L43.3579 24.0639L43.3624 24.0725L44.2479 23.608ZM44.2479 13.384L43.3592 12.9253L43.3535 12.9368L44.2479 13.384ZM47.3439 9.856L46.7963 9.01927L46.7892 9.02395L47.3439 9.856ZM54.3999 8.992L54.0671 9.93499L54.0835 9.94078L54.1001 9.94599L54.3999 8.992ZM56.6319 10.108L56.0367 10.9116L56.0437 10.9167L56.0507 10.9217L56.6319 10.108ZM58.2519 11.728L57.425 12.2903L57.4304 12.2982L57.4359 12.306L58.2519 11.728ZM58.9359 13.564L59.1003 14.5504L60.0006 14.4003L59.9332 13.4901L58.9359 13.564ZM57.6399 13.78H56.6399V14.9605L57.8043 14.7664L57.6399 13.78ZM57.6399 1.36V0.36H56.6399V1.36H57.6399ZM62.7519 1.36H63.7519V0.36H62.7519V1.36ZM62.7519 28V29H63.7519V28H62.7519ZM57.9279 28L56.9291 28.0491L56.9759 29H57.9279V28ZM57.7119 23.608L57.8185 22.6137L56.6557 22.4891L56.7131 23.6571L57.7119 23.608ZM58.7199 23.716L59.7168 23.7957L59.7944 22.8254L58.8265 22.7217L58.7199 23.716ZM58.0719 25.444L58.8928 26.0151L58.0719 25.444ZM56.5239 26.956L57.0932 27.7782L57.0994 27.7738L56.5239 26.956ZM54.3639 28L54.6539 28.957L54.6629 28.9543L54.6718 28.9514L54.3639 28ZM55.5159 23.392L54.9612 22.5599L55.5159 23.392ZM57.2079 21.412L56.3084 20.9751L57.2079 21.412ZM57.2079 15.544L56.3036 15.971L56.3084 15.9809L57.2079 15.544ZM55.5159 13.564L54.9612 14.396L54.971 14.4025L54.9809 14.4088L55.5159 13.564ZM50.4759 13.564L51.024 14.4005L51.0306 14.396L50.4759 13.564ZM48.8199 15.544L47.9156 15.117L47.9105 15.1282L48.8199 15.544ZM48.8199 21.412L47.9105 21.8278L47.9153 21.8384L47.9204 21.8489L48.8199 21.412ZM50.4759 23.392L49.9082 24.2152L49.9147 24.2197L49.9212 24.224L50.4759 23.392ZM51.8439 27.36C50.3665 27.36 49.0668 26.9882 47.9168 26.2563L46.8431 27.9437C48.3331 28.8918 50.0094 29.36 51.8439 29.36V27.36ZM47.9276 26.2633C46.757 25.4971 45.8263 24.4642 45.1335 23.1434L43.3624 24.0725C44.2056 25.6798 45.3629 26.9749 46.8323 27.9367L47.9276 26.2633ZM45.1424 23.1608C44.4786 21.8332 44.1319 20.2749 44.1319 18.46H42.1319C42.1319 20.5331 42.5293 22.4068 43.3535 24.0552L45.1424 23.1608ZM44.1319 18.46C44.1319 16.6974 44.4769 15.1621 45.1424 13.8312L43.3535 12.9368C42.531 14.5819 42.1319 16.4306 42.1319 18.46H44.1319ZM45.1366 13.8426C45.8328 12.4938 46.7544 11.4509 47.8986 10.688L46.7892 9.02395C45.3415 9.98909 44.1991 11.2982 43.3593 12.9254L45.1366 13.8426ZM47.8916 10.6927C49.0381 9.94228 50.3452 9.56 51.8439 9.56V7.56C49.9826 7.56 48.2898 8.04172 46.7963 9.0193L47.8916 10.6927ZM51.8439 9.56C52.6216 9.56 53.3608 9.68571 54.0671 9.93499L54.7328 8.04901C53.807 7.72229 52.8423 7.56 51.8439 7.56V9.56ZM54.1001 9.94599C54.8437 10.1797 55.486 10.5036 56.0367 10.9116L57.2272 9.30444C56.4819 8.7524 55.6362 8.33231 54.6998 8.03801L54.1001 9.94599ZM56.0507 10.9217C56.6397 11.3425 57.0919 11.8005 57.425 12.2903L59.0789 11.1657C58.596 10.4555 57.9682 9.83353 57.2132 9.29427L56.0507 10.9217ZM57.4359 12.306C57.7482 12.7468 57.9053 13.1868 57.9387 13.6379L59.9332 13.4901C59.8706 12.6452 59.5717 11.8612 59.068 11.15L57.4359 12.306ZM58.7715 12.5776L57.4755 12.7936L57.8043 14.7664L59.1003 14.5504L58.7715 12.5776ZM58.6399 13.78V1.36H56.6399V13.78H58.6399ZM57.6399 2.36H62.7519V0.36H57.6399V2.36ZM61.7519 1.36V28H63.7519V1.36H61.7519ZM62.7519 27H57.9279V29H62.7519V27ZM58.9267 27.9509L58.7107 23.5589L56.7131 23.6571L56.9291 28.0491L58.9267 27.9509ZM57.6054 24.6023L58.6134 24.7103L58.8265 22.7217L57.8185 22.6137L57.6054 24.6023ZM57.7231 23.6363C57.6908 24.0398 57.5461 24.4488 57.251 24.8729L58.8928 26.0151C59.3658 25.3352 59.653 24.5922 59.7168 23.7957L57.7231 23.6363ZM57.251 24.8729C56.9445 25.3136 56.5175 25.7377 55.9484 26.1382L57.0994 27.7738C57.8264 27.2623 58.4314 26.6784 58.8928 26.0151L57.251 24.8729ZM55.9547 26.1338C55.4207 26.5035 54.791 26.8108 54.0561 27.0486L54.6718 28.9514C55.5688 28.6612 56.3791 28.2725 57.0931 27.7782L55.9547 26.1338ZM54.0739 27.043C53.3826 27.2525 52.6408 27.36 51.8439 27.36V29.36C52.823 29.36 53.7613 29.2275 54.6539 28.957L54.0739 27.043ZM52.9959 25.112C54.1309 25.112 55.1686 24.8254 56.0706 24.224L54.9612 22.5599C54.4232 22.9186 53.781 23.112 52.9959 23.112V25.112ZM56.0706 24.224C56.9503 23.6376 57.6281 22.8358 58.1074 21.8489L56.3084 20.9751C55.9718 21.6682 55.5215 22.1864 54.9612 22.5599L56.0706 24.224ZM58.1074 21.8489C58.5939 20.8474 58.8199 19.7083 58.8199 18.46H56.8199C56.8199 19.4677 56.638 20.2966 56.3084 20.9751L58.1074 21.8489ZM58.8199 18.46C58.8199 17.232 58.5926 16.1059 58.1074 15.1071L56.3084 15.9809C56.6393 16.6621 56.8199 17.48 56.8199 18.46H58.8199ZM58.1122 15.117C57.6333 14.1029 56.9501 13.2886 56.051 12.7192L54.9809 14.4088C55.5218 14.7514 55.9665 15.2571 56.3037 15.971L58.1122 15.117ZM56.0706 12.7319C55.1686 12.1306 54.1309 11.844 52.9959 11.844V13.844C53.781 13.844 54.4232 14.0374 54.9612 14.396L56.0706 12.7319ZM52.9959 11.844C51.861 11.844 50.8232 12.1306 49.9212 12.7319L51.0306 14.396C51.5686 14.0374 52.2109 13.844 52.9959 13.844V11.844ZM49.9279 12.7275C49.0559 13.2988 48.3905 14.1115 47.9157 15.117L49.7242 15.971C50.0654 15.2485 50.504 14.7412 51.024 14.4005L49.9279 12.7275ZM47.9105 15.1282C47.4563 16.1217 47.2439 17.2401 47.2439 18.46H49.2439C49.2439 17.4719 49.4156 16.6463 49.7294 15.9598L47.9105 15.1282ZM47.2439 18.46C47.2439 19.7004 47.4551 20.8317 47.9105 21.8278L49.7294 20.9962C49.4168 20.3123 49.2439 19.4756 49.2439 18.46H47.2439ZM47.9204 21.8489C48.3958 22.8275 49.0557 23.6272 49.9082 24.2152L51.0437 22.5688C50.5042 22.1968 50.0601 21.6765 49.7194 20.9751L47.9204 21.8489ZM49.9212 24.224C50.8232 24.8254 51.861 25.112 52.9959 25.112V23.112C52.2109 23.112 51.5686 22.9186 51.0306 22.5599L49.9212 24.224ZM71.3717 27.1L70.8755 27.9682L70.8837 27.9729L70.8919 27.9774L71.3717 27.1ZM67.7717 23.572L66.9068 24.0742L66.913 24.0845L67.7717 23.572ZM67.7717 13.384L66.913 12.8715L66.9105 12.8757L67.7717 13.384ZM71.3717 9.856L70.8814 8.9844L70.8755 8.98776L71.3717 9.856ZM81.7397 9.856L81.2435 10.7243L81.2494 10.7276L81.7397 9.856ZM85.3397 13.384L84.4749 13.8861L84.4785 13.8923L85.3397 13.384ZM85.3397 23.572L84.4749 23.0699L85.3397 23.572ZM81.7397 27.1L82.2253 27.9742L82.2299 27.9716L81.7397 27.1ZM79.1117 23.212L79.6342 24.0646L79.6441 24.0586L79.6538 24.0523L79.1117 23.212ZM80.8397 21.268L79.9503 20.8106L79.9453 20.8208L80.8397 21.268ZM80.8397 15.652L79.9402 16.0889L79.9478 16.1045L79.9559 16.1199L80.8397 15.652ZM79.1117 13.708L78.5696 14.5483L78.5793 14.5546L78.5891 14.5606L79.1117 13.708ZM72.2717 15.652L71.3879 15.1841L72.2717 15.652ZM71.6597 18.46L72.6594 18.4832L72.66 18.4603L72.6594 18.4373L71.6597 18.46ZM72.2717 21.268L71.3823 21.7254L71.3879 21.7359L72.2717 21.268ZM74.0357 23.212L73.4936 24.0523L73.5033 24.0586L73.5131 24.0646L74.0357 23.212ZM76.5917 27.36C74.7965 27.36 73.2247 26.9736 71.8515 26.2226L70.8919 27.9774C72.5907 28.9064 74.4989 29.36 76.5917 29.36V27.36ZM71.8678 26.2318C70.5045 25.4527 69.4297 24.3989 68.6304 23.0595L66.913 24.0845C67.8897 25.7211 69.2149 27.0193 70.8755 27.9682L71.8678 26.2318ZM68.6365 23.0699C67.871 21.7515 67.4757 20.2245 67.4757 18.46H65.4757C65.4757 20.5355 65.9444 22.4165 66.9069 24.0741L68.6365 23.0699ZM67.4757 18.46C67.4757 16.6951 67.8711 15.1831 68.6329 13.8923L66.9105 12.8757C65.9443 14.5129 65.4757 16.3849 65.4757 18.46H67.4757ZM68.6304 13.8965C69.4297 12.5571 70.5045 11.5033 71.8678 10.7242L70.8755 8.98776C69.2149 9.93672 67.8897 11.2349 66.913 12.8715L68.6304 13.8965ZM71.8619 10.7276C73.2332 9.95623 74.8013 9.56 76.5917 9.56V7.56C74.4941 7.56 72.5822 8.02777 70.8814 8.98442L71.8619 10.7276ZM76.5917 9.56C78.356 9.56 79.8978 9.95523 81.2435 10.7242L82.2358 8.98776C80.5576 8.02877 78.6674 7.56 76.5917 7.56V9.56ZM81.2494 10.7276C82.6338 11.5063 83.7028 12.5564 84.4749 13.8861L86.2045 12.8819C85.2486 11.2356 83.9176 9.93371 82.2299 8.98442L81.2494 10.7276ZM84.4785 13.8923C85.2403 15.1831 85.6357 16.6951 85.6357 18.46H87.6357C87.6357 16.3849 87.1671 14.5129 86.2009 12.8757L84.4785 13.8923ZM85.6357 18.46C85.6357 20.2245 85.2404 21.7515 84.4749 23.0699L86.2045 24.0741C87.167 22.4165 87.6357 20.5355 87.6357 18.46H85.6357ZM84.4749 23.0699C83.7028 24.3996 82.6338 25.4497 81.2494 26.2284L82.2299 27.9716C83.9176 27.0223 85.2486 25.7204 86.2045 24.0741L84.4749 23.0699ZM81.254 26.2258C79.9064 26.9745 78.3608 27.36 76.5917 27.36V29.36C78.6625 29.36 80.5489 28.9055 82.2253 27.9742L81.254 26.2258ZM76.5917 24.896C77.6982 24.896 78.7215 24.624 79.6342 24.0646L78.5891 22.3594C78.0139 22.712 77.3572 22.896 76.5917 22.896V24.896ZM79.6538 24.0523C80.5531 23.4721 81.2486 22.6863 81.7341 21.7152L79.9453 20.8208C79.6148 21.4817 79.1583 21.9919 78.5696 22.3717L79.6538 24.0523ZM81.729 21.7253C82.2403 20.7311 82.4877 19.6361 82.4877 18.46H80.4877C80.4877 19.3479 80.3031 20.1249 79.9504 20.8107L81.729 21.7253ZM82.4877 18.46C82.4877 17.2645 82.2421 16.1638 81.7235 15.1841L79.9559 16.1199C80.3012 16.7722 80.4877 17.5435 80.4877 18.46H82.4877ZM81.7392 15.2151C81.2539 14.216 80.5525 13.4182 79.6342 12.8554L78.5891 14.5606C79.1588 14.9098 79.6095 15.408 79.9402 16.0889L81.7392 15.2151ZM79.6538 12.8677C78.7388 12.2774 77.7085 11.988 76.5917 11.988V13.988C77.3469 13.988 77.9966 14.1786 78.5696 14.5483L79.6538 12.8677ZM76.5917 11.988C75.4563 11.988 74.4128 12.2747 73.4936 12.8677L74.5778 14.5483C75.1466 14.1813 75.8071 13.988 76.5917 13.988V11.988ZM73.4936 12.8677C72.5994 13.4446 71.8965 14.2235 71.3879 15.1841L73.1555 16.1199C73.5109 15.4485 73.984 14.9314 74.5778 14.5483L73.4936 12.8677ZM71.3879 15.1841C70.8651 16.1716 70.6326 17.2809 70.6599 18.4827L72.6594 18.4373C72.6387 17.5271 72.8143 16.7643 73.1555 16.1199L71.3879 15.1841ZM70.66 18.4368C70.6324 19.6198 70.8671 20.7234 71.3824 21.7253L73.161 20.8107C72.8123 20.1326 72.6389 19.3642 72.6594 18.4832L70.66 18.4368ZM71.3879 21.7359C71.8965 22.6965 72.5994 23.4754 73.4936 24.0523L74.5778 22.3717C73.984 21.9886 73.5109 21.4715 73.1555 20.8001L71.3879 21.7359ZM73.5131 24.0646C74.4299 24.6265 75.4663 24.896 76.5917 24.896V22.896C75.7971 22.896 75.1295 22.7095 74.5583 22.3594L73.5131 24.0646Z" fill="#191919" mask="url(#path-1-outside-1_122_351)"/>
</g>
<defs>
<filter id="filter0_d_122_351" x="0.187988" y="0.359863" width="88.9478" height="30.5" filterUnits="userSpaceOnUse" color-interpolation-filters="sRGB">
<feFlood flood-opacity="0" result="BackgroundImageFix"/>
<feColorMatrix in="SourceAlpha" type="matrix" values="0 0 0 0 0 0 0 0 0 0 0 0 0 0 0 0 0 0 127 0" result="hardAlpha"/>
<feOffset dx="1.5" dy="1.5"/>
<feColorMatrix type="matrix" values="0 0 0 0 0.0980392 0 0 0 0 0.0980392 0 0 0 0 0.0980392 0 0 0 1 0"/>
<feBlend mode="normal" in2="BackgroundImageFix" result="effect1_dropShadow_122_351"/>
<feBlend mode="normal" in="SourceGraphic" in2="effect1_dropShadow_122_351" result="shape"/>
</filter>
</defs>
</svg>
