<svg width="325" height="88" viewBox="0 0 325 88" fill="none" xmlns="http://www.w3.org/2000/svg">
<g filter="url(#filter0_d_122_187)">
<rect width="322" height="85" fill="#5D61A3" shape-rendering="crispEdges"/>
<rect x="0.5" y="0.5" width="321" height="84" stroke="black" shape-rendering="crispEdges"/>
<g filter="url(#filter1_d_122_187)">
<mask id="path-3-outside-1_122_187" maskUnits="userSpaceOnUse" x="20" y="24" width="284" height="43" fill="black">
<rect fill="white" x="20" y="24" width="284" height="43"/>
<path d="M22.988 56V30.8H34.148C35.804 30.8 37.28 31.172 38.576 31.916C39.896 32.636 40.928 33.632 41.672 34.904C42.44 36.176 42.824 37.64 42.824 39.296C42.824 41 42.44 42.524 41.672 43.868C40.928 45.188 39.896 46.232 38.576 47C37.28 47.768 35.804 48.152 34.148 48.152H30.116V56H22.988ZM30.008 41.996H32.924C33.428 41.996 33.872 41.9 34.256 41.708C34.64 41.492 34.94 41.192 35.156 40.808C35.396 40.424 35.516 39.956 35.516 39.404C35.516 38.852 35.396 38.396 35.156 38.036C34.94 37.676 34.64 37.412 34.256 37.244C33.872 37.052 33.428 36.956 32.924 36.956H30.008V41.996ZM46.813 56V36.812H53.077L53.437 43.112L52.033 42.032C52.345 40.976 52.825 40.028 53.473 39.188C54.145 38.324 54.949 37.652 55.885 37.172C56.821 36.668 57.805 36.416 58.837 36.416C59.269 36.416 59.677 36.452 60.061 36.524C60.445 36.572 60.805 36.644 61.141 36.74L59.305 44.156C59.041 43.988 58.669 43.844 58.189 43.724C57.709 43.58 57.193 43.508 56.641 43.508C56.161 43.508 55.729 43.592 55.345 43.76C54.961 43.904 54.637 44.12 54.373 44.408C54.109 44.696 53.905 45.044 53.761 45.452C53.617 45.836 53.545 46.292 53.545 46.82V56H46.813ZM72.4478 56.36C70.4078 56.36 68.5838 55.928 66.9758 55.064C65.3678 54.2 64.1078 53.024 63.1958 51.536C62.2838 50.048 61.8278 48.332 61.8278 46.388C61.8278 44.444 62.2838 42.728 63.1958 41.24C64.1078 39.752 65.3678 38.576 66.9758 37.712C68.5838 36.848 70.4078 36.416 72.4478 36.416C74.4878 36.416 76.2998 36.848 77.8838 37.712C79.4918 38.576 80.7518 39.752 81.6638 41.24C82.5758 42.728 83.0318 44.444 83.0318 46.388C83.0318 48.332 82.5758 50.048 81.6638 51.536C80.7518 53.024 79.4918 54.2 77.8838 55.064C76.2998 55.928 74.4878 56.36 72.4478 56.36ZM72.4478 50.708C73.1678 50.708 73.8158 50.528 74.3918 50.168C74.9918 49.784 75.4478 49.268 75.7598 48.62C76.0958 47.948 76.2638 47.204 76.2638 46.388C76.2638 45.524 76.0958 44.768 75.7598 44.12C75.4478 43.472 74.9918 42.968 74.3918 42.608C73.8158 42.224 73.1678 42.032 72.4478 42.032C71.7038 42.032 71.0438 42.224 70.4678 42.608C69.8918 42.968 69.4358 43.484 69.0998 44.156C68.7638 44.804 68.5958 45.548 68.5958 46.388C68.5958 47.204 68.7638 47.948 69.0998 48.62C69.4358 49.268 69.8918 49.784 70.4678 50.168C71.0438 50.528 71.7038 50.708 72.4478 50.708ZM85.2042 63.74L82.6482 58.556C83.8242 58.556 84.7242 58.424 85.3482 58.16C85.9962 57.896 86.4402 57.428 86.6802 56.756C86.9202 56.084 87.0402 55.124 87.0402 53.876V36.812H93.7362V55.46C93.7362 57.452 93.4122 59.048 92.7642 60.248C92.1402 61.472 91.1922 62.36 89.9202 62.912C88.6722 63.464 87.1002 63.74 85.2042 63.74ZM90.4962 33.176C89.2722 33.176 88.3242 32.9 87.6522 32.348C86.9802 31.772 86.6442 30.968 86.6442 29.936C86.6442 28.976 86.9802 28.196 87.6522 27.596C88.3482 26.972 89.2962 26.66 90.4962 26.66C91.6962 26.66 92.6322 26.948 93.3042 27.524C94.0002 28.076 94.3482 28.88 94.3482 29.936C94.3482 30.896 94.0002 31.676 93.3042 32.276C92.6082 32.876 91.6722 33.176 90.4962 33.176ZM108.096 56.36C105.912 56.36 104.028 55.94 102.444 55.1C100.86 54.236 99.6362 53.06 98.7722 51.572C97.9082 50.06 97.4762 48.344 97.4762 46.424C97.4762 44.984 97.7162 43.652 98.1962 42.428C98.6762 41.204 99.3482 40.148 100.212 39.26C101.076 38.348 102.096 37.652 103.272 37.172C104.472 36.668 105.78 36.416 107.196 36.416C108.588 36.416 109.848 36.656 110.976 37.136C112.128 37.616 113.112 38.3 113.928 39.188C114.768 40.076 115.404 41.12 115.836 42.32C116.292 43.52 116.496 44.84 116.448 46.28L116.412 47.792H101.292L100.464 44.444H111.048L110.4 45.164V44.48C110.4 43.952 110.256 43.496 109.968 43.112C109.704 42.704 109.344 42.392 108.888 42.176C108.432 41.96 107.916 41.852 107.34 41.852C106.524 41.852 105.84 42.02 105.288 42.356C104.76 42.668 104.352 43.124 104.064 43.724C103.776 44.324 103.632 45.044 103.632 45.884C103.632 46.844 103.824 47.672 104.208 48.368C104.616 49.064 105.204 49.604 105.972 49.988C106.764 50.372 107.724 50.564 108.852 50.564C109.596 50.564 110.244 50.468 110.796 50.276C111.372 50.084 111.984 49.748 112.632 49.268L115.728 53.624C114.888 54.296 114.036 54.836 113.172 55.244C112.332 55.628 111.492 55.904 110.652 56.072C109.812 56.264 108.96 56.36 108.096 56.36ZM128.506 56.36C126.61 56.36 124.906 55.928 123.394 55.064C121.906 54.2 120.73 53.024 119.866 51.536C119.002 50.024 118.57 48.308 118.57 46.388C118.57 44.468 119.002 42.764 119.866 41.276C120.73 39.764 121.906 38.576 123.394 37.712C124.906 36.848 126.61 36.416 128.506 36.416C130.234 36.416 131.818 36.692 133.258 37.244C134.722 37.796 135.886 38.588 136.75 39.62L133.114 43.94C132.85 43.604 132.514 43.304 132.106 43.04C131.698 42.752 131.242 42.536 130.738 42.392C130.258 42.224 129.718 42.14 129.118 42.14C128.326 42.14 127.63 42.32 127.03 42.68C126.43 43.04 125.962 43.544 125.626 44.192C125.314 44.816 125.158 45.536 125.158 46.352C125.158 47.168 125.314 47.888 125.626 48.512C125.938 49.136 126.394 49.64 126.994 50.024C127.618 50.408 128.326 50.6 129.118 50.6C129.718 50.6 130.258 50.528 130.738 50.384C131.242 50.24 131.686 50.036 132.07 49.772C132.478 49.508 132.826 49.196 133.114 48.836L136.75 53.192C135.862 54.2 134.686 54.98 133.222 55.532C131.782 56.084 130.21 56.36 128.506 56.36ZM140.991 56V31.952H147.687V56H140.991ZM137.823 42.5V36.812H151.035V42.5H137.823ZM178.833 56.36C176.745 56.36 174.873 56.036 173.217 55.388C171.561 54.74 170.145 53.828 168.969 52.652C167.817 51.476 166.941 50.084 166.341 48.476C165.741 46.868 165.441 45.128 165.441 43.256C165.441 41.36 165.765 39.62 166.413 38.036C167.085 36.428 168.045 35.036 169.293 33.86C170.541 32.684 172.005 31.772 173.685 31.124C175.389 30.476 177.273 30.152 179.337 30.152C180.753 30.152 182.085 30.332 183.333 30.692C184.605 31.052 185.745 31.544 186.753 32.168C187.761 32.792 188.625 33.488 189.345 34.256L185.097 38.792C184.569 38.288 184.005 37.856 183.405 37.496C182.829 37.136 182.193 36.848 181.497 36.632C180.825 36.416 180.069 36.308 179.229 36.308C178.293 36.308 177.429 36.488 176.637 36.848C175.869 37.184 175.197 37.664 174.621 38.288C174.045 38.888 173.589 39.62 173.253 40.484C172.941 41.324 172.785 42.248 172.785 43.256C172.785 44.24 172.953 45.164 173.289 46.028C173.625 46.868 174.093 47.6 174.693 48.224C175.293 48.848 176.001 49.34 176.817 49.7C177.657 50.036 178.557 50.204 179.517 50.204C180.189 50.204 180.813 50.096 181.389 49.88C181.965 49.664 182.457 49.376 182.865 49.016C183.297 48.632 183.633 48.188 183.873 47.684C184.113 47.156 184.233 46.592 184.233 45.992V44.984L185.169 46.496H178.545V41.312H190.713C190.737 41.576 190.761 41.984 190.785 42.536C190.833 43.064 190.857 43.592 190.857 44.12C190.881 44.648 190.893 45.02 190.893 45.236C190.893 46.844 190.593 48.332 189.993 49.7C189.393 51.068 188.553 52.244 187.473 53.228C186.393 54.212 185.121 54.98 183.657 55.532C182.193 56.084 180.585 56.36 178.833 56.36ZM201.804 56.324C200.22 56.324 198.792 55.904 197.52 55.064C196.272 54.2 195.276 53.024 194.532 51.536C193.812 50.024 193.452 48.308 193.452 46.388C193.452 44.42 193.812 42.692 194.532 41.204C195.252 39.716 196.248 38.552 197.52 37.712C198.792 36.848 200.256 36.416 201.912 36.416C202.8 36.416 203.616 36.536 204.36 36.776C205.104 37.016 205.752 37.364 206.304 37.82C206.856 38.276 207.336 38.792 207.744 39.368C208.152 39.944 208.488 40.568 208.752 41.24L207.384 41.168V36.812H213.972V56H207.24V51.32L208.716 51.392C208.5 52.088 208.176 52.736 207.744 53.336C207.336 53.936 206.832 54.464 206.232 54.92C205.632 55.352 204.96 55.7 204.216 55.964C203.496 56.204 202.692 56.324 201.804 56.324ZM203.712 50.816C204.48 50.816 205.14 50.648 205.692 50.312C206.244 49.952 206.664 49.436 206.952 48.764C207.264 48.092 207.42 47.3 207.42 46.388C207.42 45.452 207.264 44.648 206.952 43.976C206.664 43.304 206.244 42.8 205.692 42.464C205.14 42.104 204.48 41.924 203.712 41.924C202.944 41.924 202.284 42.104 201.732 42.464C201.204 42.8 200.796 43.304 200.508 43.976C200.22 44.648 200.076 45.452 200.076 46.388C200.076 47.3 200.22 48.092 200.508 48.764C200.796 49.436 201.204 49.952 201.732 50.312C202.284 50.648 202.944 50.816 203.712 50.816ZM219.044 56V29.36H225.74V56H219.044ZM230.857 56V29.36H237.553V56H230.857ZM251.534 56.36C249.35 56.36 247.466 55.94 245.882 55.1C244.298 54.236 243.074 53.06 242.21 51.572C241.346 50.06 240.914 48.344 240.914 46.424C240.914 44.984 241.154 43.652 241.634 42.428C242.114 41.204 242.786 40.148 243.65 39.26C244.514 38.348 245.534 37.652 246.71 37.172C247.91 36.668 249.218 36.416 250.634 36.416C252.026 36.416 253.286 36.656 254.414 37.136C255.566 37.616 256.55 38.3 257.366 39.188C258.206 40.076 258.842 41.12 259.274 42.32C259.73 43.52 259.934 44.84 259.886 46.28L259.85 47.792H244.73L243.902 44.444H254.486L253.838 45.164V44.48C253.838 43.952 253.694 43.496 253.406 43.112C253.142 42.704 252.782 42.392 252.326 42.176C251.87 41.96 251.354 41.852 250.778 41.852C249.962 41.852 249.278 42.02 248.726 42.356C248.198 42.668 247.79 43.124 247.502 43.724C247.214 44.324 247.07 45.044 247.07 45.884C247.07 46.844 247.262 47.672 247.646 48.368C248.054 49.064 248.642 49.604 249.41 49.988C250.202 50.372 251.162 50.564 252.29 50.564C253.034 50.564 253.682 50.468 254.234 50.276C254.81 50.084 255.422 49.748 256.07 49.268L259.166 53.624C258.326 54.296 257.474 54.836 256.61 55.244C255.77 55.628 254.93 55.904 254.09 56.072C253.25 56.264 252.398 56.36 251.534 56.36ZM263.375 56V36.812H269.639L269.999 43.112L268.595 42.032C268.907 40.976 269.387 40.028 270.035 39.188C270.707 38.324 271.511 37.652 272.447 37.172C273.383 36.668 274.367 36.416 275.399 36.416C275.831 36.416 276.239 36.452 276.623 36.524C277.007 36.572 277.367 36.644 277.703 36.74L275.867 44.156C275.603 43.988 275.231 43.844 274.751 43.724C274.271 43.58 273.755 43.508 273.203 43.508C272.723 43.508 272.291 43.592 271.907 43.76C271.523 43.904 271.199 44.12 270.935 44.408C270.671 44.696 270.467 45.044 270.323 45.452C270.179 45.836 270.107 46.292 270.107 46.82V56H263.375ZM282.655 64.28L287.263 53.408L287.335 56.36L278.227 36.812H285.715L288.919 44.444C289.183 45.044 289.411 45.644 289.603 46.244C289.819 46.82 289.975 47.372 290.071 47.9L289.315 48.476C289.411 48.164 289.555 47.732 289.747 47.18C289.939 46.628 290.155 45.992 290.395 45.272L293.311 36.812H300.835L292.519 56L289.171 64.28H282.655Z"/>
</mask>
<path d="M22.988 56V30.8H34.148C35.804 30.8 37.28 31.172 38.576 31.916C39.896 32.636 40.928 33.632 41.672 34.904C42.44 36.176 42.824 37.64 42.824 39.296C42.824 41 42.44 42.524 41.672 43.868C40.928 45.188 39.896 46.232 38.576 47C37.28 47.768 35.804 48.152 34.148 48.152H30.116V56H22.988ZM30.008 41.996H32.924C33.428 41.996 33.872 41.9 34.256 41.708C34.64 41.492 34.94 41.192 35.156 40.808C35.396 40.424 35.516 39.956 35.516 39.404C35.516 38.852 35.396 38.396 35.156 38.036C34.94 37.676 34.64 37.412 34.256 37.244C33.872 37.052 33.428 36.956 32.924 36.956H30.008V41.996ZM46.813 56V36.812H53.077L53.437 43.112L52.033 42.032C52.345 40.976 52.825 40.028 53.473 39.188C54.145 38.324 54.949 37.652 55.885 37.172C56.821 36.668 57.805 36.416 58.837 36.416C59.269 36.416 59.677 36.452 60.061 36.524C60.445 36.572 60.805 36.644 61.141 36.74L59.305 44.156C59.041 43.988 58.669 43.844 58.189 43.724C57.709 43.58 57.193 43.508 56.641 43.508C56.161 43.508 55.729 43.592 55.345 43.76C54.961 43.904 54.637 44.12 54.373 44.408C54.109 44.696 53.905 45.044 53.761 45.452C53.617 45.836 53.545 46.292 53.545 46.82V56H46.813ZM72.4478 56.36C70.4078 56.36 68.5838 55.928 66.9758 55.064C65.3678 54.2 64.1078 53.024 63.1958 51.536C62.2838 50.048 61.8278 48.332 61.8278 46.388C61.8278 44.444 62.2838 42.728 63.1958 41.24C64.1078 39.752 65.3678 38.576 66.9758 37.712C68.5838 36.848 70.4078 36.416 72.4478 36.416C74.4878 36.416 76.2998 36.848 77.8838 37.712C79.4918 38.576 80.7518 39.752 81.6638 41.24C82.5758 42.728 83.0318 44.444 83.0318 46.388C83.0318 48.332 82.5758 50.048 81.6638 51.536C80.7518 53.024 79.4918 54.2 77.8838 55.064C76.2998 55.928 74.4878 56.36 72.4478 56.36ZM72.4478 50.708C73.1678 50.708 73.8158 50.528 74.3918 50.168C74.9918 49.784 75.4478 49.268 75.7598 48.62C76.0958 47.948 76.2638 47.204 76.2638 46.388C76.2638 45.524 76.0958 44.768 75.7598 44.12C75.4478 43.472 74.9918 42.968 74.3918 42.608C73.8158 42.224 73.1678 42.032 72.4478 42.032C71.7038 42.032 71.0438 42.224 70.4678 42.608C69.8918 42.968 69.4358 43.484 69.0998 44.156C68.7638 44.804 68.5958 45.548 68.5958 46.388C68.5958 47.204 68.7638 47.948 69.0998 48.62C69.4358 49.268 69.8918 49.784 70.4678 50.168C71.0438 50.528 71.7038 50.708 72.4478 50.708ZM85.2042 63.74L82.6482 58.556C83.8242 58.556 84.7242 58.424 85.3482 58.16C85.9962 57.896 86.4402 57.428 86.6802 56.756C86.9202 56.084 87.0402 55.124 87.0402 53.876V36.812H93.7362V55.46C93.7362 57.452 93.4122 59.048 92.7642 60.248C92.1402 61.472 91.1922 62.36 89.9202 62.912C88.6722 63.464 87.1002 63.74 85.2042 63.74ZM90.4962 33.176C89.2722 33.176 88.3242 32.9 87.6522 32.348C86.9802 31.772 86.6442 30.968 86.6442 29.936C86.6442 28.976 86.9802 28.196 87.6522 27.596C88.3482 26.972 89.2962 26.66 90.4962 26.66C91.6962 26.66 92.6322 26.948 93.3042 27.524C94.0002 28.076 94.3482 28.88 94.3482 29.936C94.3482 30.896 94.0002 31.676 93.3042 32.276C92.6082 32.876 91.6722 33.176 90.4962 33.176ZM108.096 56.36C105.912 56.36 104.028 55.94 102.444 55.1C100.86 54.236 99.6362 53.06 98.7722 51.572C97.9082 50.06 97.4762 48.344 97.4762 46.424C97.4762 44.984 97.7162 43.652 98.1962 42.428C98.6762 41.204 99.3482 40.148 100.212 39.26C101.076 38.348 102.096 37.652 103.272 37.172C104.472 36.668 105.78 36.416 107.196 36.416C108.588 36.416 109.848 36.656 110.976 37.136C112.128 37.616 113.112 38.3 113.928 39.188C114.768 40.076 115.404 41.12 115.836 42.32C116.292 43.52 116.496 44.84 116.448 46.28L116.412 47.792H101.292L100.464 44.444H111.048L110.4 45.164V44.48C110.4 43.952 110.256 43.496 109.968 43.112C109.704 42.704 109.344 42.392 108.888 42.176C108.432 41.96 107.916 41.852 107.34 41.852C106.524 41.852 105.84 42.02 105.288 42.356C104.76 42.668 104.352 43.124 104.064 43.724C103.776 44.324 103.632 45.044 103.632 45.884C103.632 46.844 103.824 47.672 104.208 48.368C104.616 49.064 105.204 49.604 105.972 49.988C106.764 50.372 107.724 50.564 108.852 50.564C109.596 50.564 110.244 50.468 110.796 50.276C111.372 50.084 111.984 49.748 112.632 49.268L115.728 53.624C114.888 54.296 114.036 54.836 113.172 55.244C112.332 55.628 111.492 55.904 110.652 56.072C109.812 56.264 108.96 56.36 108.096 56.36ZM128.506 56.36C126.61 56.36 124.906 55.928 123.394 55.064C121.906 54.2 120.73 53.024 119.866 51.536C119.002 50.024 118.57 48.308 118.57 46.388C118.57 44.468 119.002 42.764 119.866 41.276C120.73 39.764 121.906 38.576 123.394 37.712C124.906 36.848 126.61 36.416 128.506 36.416C130.234 36.416 131.818 36.692 133.258 37.244C134.722 37.796 135.886 38.588 136.75 39.62L133.114 43.94C132.85 43.604 132.514 43.304 132.106 43.04C131.698 42.752 131.242 42.536 130.738 42.392C130.258 42.224 129.718 42.14 129.118 42.14C128.326 42.14 127.63 42.32 127.03 42.68C126.43 43.04 125.962 43.544 125.626 44.192C125.314 44.816 125.158 45.536 125.158 46.352C125.158 47.168 125.314 47.888 125.626 48.512C125.938 49.136 126.394 49.64 126.994 50.024C127.618 50.408 128.326 50.6 129.118 50.6C129.718 50.6 130.258 50.528 130.738 50.384C131.242 50.24 131.686 50.036 132.07 49.772C132.478 49.508 132.826 49.196 133.114 48.836L136.75 53.192C135.862 54.2 134.686 54.98 133.222 55.532C131.782 56.084 130.21 56.36 128.506 56.36ZM140.991 56V31.952H147.687V56H140.991ZM137.823 42.5V36.812H151.035V42.5H137.823ZM178.833 56.36C176.745 56.36 174.873 56.036 173.217 55.388C171.561 54.74 170.145 53.828 168.969 52.652C167.817 51.476 166.941 50.084 166.341 48.476C165.741 46.868 165.441 45.128 165.441 43.256C165.441 41.36 165.765 39.62 166.413 38.036C167.085 36.428 168.045 35.036 169.293 33.86C170.541 32.684 172.005 31.772 173.685 31.124C175.389 30.476 177.273 30.152 179.337 30.152C180.753 30.152 182.085 30.332 183.333 30.692C184.605 31.052 185.745 31.544 186.753 32.168C187.761 32.792 188.625 33.488 189.345 34.256L185.097 38.792C184.569 38.288 184.005 37.856 183.405 37.496C182.829 37.136 182.193 36.848 181.497 36.632C180.825 36.416 180.069 36.308 179.229 36.308C178.293 36.308 177.429 36.488 176.637 36.848C175.869 37.184 175.197 37.664 174.621 38.288C174.045 38.888 173.589 39.62 173.253 40.484C172.941 41.324 172.785 42.248 172.785 43.256C172.785 44.24 172.953 45.164 173.289 46.028C173.625 46.868 174.093 47.6 174.693 48.224C175.293 48.848 176.001 49.34 176.817 49.7C177.657 50.036 178.557 50.204 179.517 50.204C180.189 50.204 180.813 50.096 181.389 49.88C181.965 49.664 182.457 49.376 182.865 49.016C183.297 48.632 183.633 48.188 183.873 47.684C184.113 47.156 184.233 46.592 184.233 45.992V44.984L185.169 46.496H178.545V41.312H190.713C190.737 41.576 190.761 41.984 190.785 42.536C190.833 43.064 190.857 43.592 190.857 44.12C190.881 44.648 190.893 45.02 190.893 45.236C190.893 46.844 190.593 48.332 189.993 49.7C189.393 51.068 188.553 52.244 187.473 53.228C186.393 54.212 185.121 54.98 183.657 55.532C182.193 56.084 180.585 56.36 178.833 56.36ZM201.804 56.324C200.22 56.324 198.792 55.904 197.52 55.064C196.272 54.2 195.276 53.024 194.532 51.536C193.812 50.024 193.452 48.308 193.452 46.388C193.452 44.42 193.812 42.692 194.532 41.204C195.252 39.716 196.248 38.552 197.52 37.712C198.792 36.848 200.256 36.416 201.912 36.416C202.8 36.416 203.616 36.536 204.36 36.776C205.104 37.016 205.752 37.364 206.304 37.82C206.856 38.276 207.336 38.792 207.744 39.368C208.152 39.944 208.488 40.568 208.752 41.24L207.384 41.168V36.812H213.972V56H207.24V51.32L208.716 51.392C208.5 52.088 208.176 52.736 207.744 53.336C207.336 53.936 206.832 54.464 206.232 54.92C205.632 55.352 204.96 55.7 204.216 55.964C203.496 56.204 202.692 56.324 201.804 56.324ZM203.712 50.816C204.48 50.816 205.14 50.648 205.692 50.312C206.244 49.952 206.664 49.436 206.952 48.764C207.264 48.092 207.42 47.3 207.42 46.388C207.42 45.452 207.264 44.648 206.952 43.976C206.664 43.304 206.244 42.8 205.692 42.464C205.14 42.104 204.48 41.924 203.712 41.924C202.944 41.924 202.284 42.104 201.732 42.464C201.204 42.8 200.796 43.304 200.508 43.976C200.22 44.648 200.076 45.452 200.076 46.388C200.076 47.3 200.22 48.092 200.508 48.764C200.796 49.436 201.204 49.952 201.732 50.312C202.284 50.648 202.944 50.816 203.712 50.816ZM219.044 56V29.36H225.74V56H219.044ZM230.857 56V29.36H237.553V56H230.857ZM251.534 56.36C249.35 56.36 247.466 55.94 245.882 55.1C244.298 54.236 243.074 53.06 242.21 51.572C241.346 50.06 240.914 48.344 240.914 46.424C240.914 44.984 241.154 43.652 241.634 42.428C242.114 41.204 242.786 40.148 243.65 39.26C244.514 38.348 245.534 37.652 246.71 37.172C247.91 36.668 249.218 36.416 250.634 36.416C252.026 36.416 253.286 36.656 254.414 37.136C255.566 37.616 256.55 38.3 257.366 39.188C258.206 40.076 258.842 41.12 259.274 42.32C259.73 43.52 259.934 44.84 259.886 46.28L259.85 47.792H244.73L243.902 44.444H254.486L253.838 45.164V44.48C253.838 43.952 253.694 43.496 253.406 43.112C253.142 42.704 252.782 42.392 252.326 42.176C251.87 41.96 251.354 41.852 250.778 41.852C249.962 41.852 249.278 42.02 248.726 42.356C248.198 42.668 247.79 43.124 247.502 43.724C247.214 44.324 247.07 45.044 247.07 45.884C247.07 46.844 247.262 47.672 247.646 48.368C248.054 49.064 248.642 49.604 249.41 49.988C250.202 50.372 251.162 50.564 252.29 50.564C253.034 50.564 253.682 50.468 254.234 50.276C254.81 50.084 255.422 49.748 256.07 49.268L259.166 53.624C258.326 54.296 257.474 54.836 256.61 55.244C255.77 55.628 254.93 55.904 254.09 56.072C253.25 56.264 252.398 56.36 251.534 56.36ZM263.375 56V36.812H269.639L269.999 43.112L268.595 42.032C268.907 40.976 269.387 40.028 270.035 39.188C270.707 38.324 271.511 37.652 272.447 37.172C273.383 36.668 274.367 36.416 275.399 36.416C275.831 36.416 276.239 36.452 276.623 36.524C277.007 36.572 277.367 36.644 277.703 36.74L275.867 44.156C275.603 43.988 275.231 43.844 274.751 43.724C274.271 43.58 273.755 43.508 273.203 43.508C272.723 43.508 272.291 43.592 271.907 43.76C271.523 43.904 271.199 44.12 270.935 44.408C270.671 44.696 270.467 45.044 270.323 45.452C270.179 45.836 270.107 46.292 270.107 46.82V56H263.375ZM282.655 64.28L287.263 53.408L287.335 56.36L278.227 36.812H285.715L288.919 44.444C289.183 45.044 289.411 45.644 289.603 46.244C289.819 46.82 289.975 47.372 290.071 47.9L289.315 48.476C289.411 48.164 289.555 47.732 289.747 47.18C289.939 46.628 290.155 45.992 290.395 45.272L293.311 36.812H300.835L292.519 56L289.171 64.28H282.655Z" fill="white"/>
<path d="M22.988 56H20.988V58H22.988V56ZM22.988 30.8V28.8H20.988V30.8H22.988ZM38.576 31.916L37.5803 33.6505L37.5992 33.6614L37.6183 33.6718L38.576 31.916ZM41.672 34.904L39.9456 35.9138L39.9527 35.9258L39.9599 35.9377L41.672 34.904ZM41.672 43.868L39.9355 42.8757L39.9297 42.886L41.672 43.868ZM38.576 47L37.5702 45.2713L37.5633 45.2753L37.5564 45.2794L38.576 47ZM30.116 48.152V46.152H28.116V48.152H30.116ZM30.116 56V58H32.116V56H30.116ZM30.008 41.996H28.008V43.996H30.008V41.996ZM34.256 41.708L35.1504 43.4969L35.194 43.4751L35.2365 43.4512L34.256 41.708ZM35.156 40.808L33.46 39.748L33.4355 39.7872L33.4129 39.8275L35.156 40.808ZM35.156 38.036L33.441 39.065L33.4655 39.1058L33.4919 39.1454L35.156 38.036ZM34.256 37.244L33.3616 39.0329L33.4074 39.0558L33.4544 39.0763L34.256 37.244ZM30.008 36.956V34.956H28.008V36.956H30.008ZM24.988 56V30.8H20.988V56H24.988ZM22.988 32.8H34.148V28.8H22.988V32.8ZM34.148 32.8C35.4933 32.8 36.6192 33.0988 37.5803 33.6505L39.5717 30.1815C37.9408 29.2452 36.1147 28.8 34.148 28.8V32.8ZM37.6183 33.6718C38.6258 34.2214 39.3891 34.9624 39.9456 35.9138L43.3984 33.8942C42.4669 32.3016 41.1662 31.0506 39.5337 30.1602L37.6183 33.6718ZM39.9599 35.9377C40.5186 36.8631 40.824 37.9615 40.824 39.296H44.824C44.824 37.3185 44.3615 35.4889 43.3841 33.8703L39.9599 35.9377ZM40.824 39.296C40.824 40.6879 40.5138 41.8637 39.9355 42.8757L43.4085 44.8603C44.3662 43.1843 44.824 41.3121 44.824 39.296H40.824ZM39.9297 42.886C39.3619 43.8934 38.5852 44.6808 37.5702 45.2713L39.5818 48.7287C41.2068 47.7832 42.4942 46.4826 43.4143 44.85L39.9297 42.886ZM37.5564 45.2794C36.5991 45.8467 35.4819 46.152 34.148 46.152V50.152C36.1261 50.152 37.9609 49.6893 39.5956 48.7206L37.5564 45.2794ZM34.148 46.152H30.116V50.152H34.148V46.152ZM28.116 48.152V56H32.116V48.152H28.116ZM30.116 54H22.988V58H30.116V54ZM30.008 43.996H32.924V39.996H30.008V43.996ZM32.924 43.996C33.6847 43.996 34.4443 43.8499 35.1504 43.4969L33.3616 39.9191C33.2997 39.9501 33.1713 39.996 32.924 39.996V43.996ZM35.2365 43.4512C35.9398 43.0556 36.5036 42.4918 36.8992 41.7885L33.4129 39.8275C33.3764 39.8922 33.3402 39.9284 33.2755 39.9648L35.2365 43.4512ZM36.852 41.868C37.3302 41.1029 37.516 40.2485 37.516 39.404H33.516C33.516 39.6635 33.4618 39.7451 33.46 39.748L36.852 41.868ZM37.516 39.404C37.516 38.5655 37.3324 37.695 36.8201 36.9266L33.4919 39.1454C33.4596 39.097 33.516 39.1385 33.516 39.404H37.516ZM36.871 37.007C36.4417 36.2915 35.8228 35.7464 35.0576 35.4117L33.4544 39.0763C33.4615 39.0794 33.4629 39.0806 33.4603 39.079C33.4576 39.0773 33.453 39.074 33.4477 39.0694C33.4425 39.0648 33.4388 39.0608 33.437 39.0585C33.4352 39.0564 33.4368 39.0579 33.441 39.065L36.871 37.007ZM35.1504 35.4551C34.4443 35.1021 33.6847 34.956 32.924 34.956V38.956C33.1713 38.956 33.2997 39.0019 33.3616 39.0329L35.1504 35.4551ZM32.924 34.956H30.008V38.956H32.924V34.956ZM28.008 36.956V41.996H32.008V36.956H28.008ZM46.813 56H44.813V58H46.813V56ZM46.813 36.812V34.812H44.813V36.812H46.813ZM53.077 36.812L55.0737 36.6979L54.9659 34.812H53.077V36.812ZM53.437 43.112L52.2175 44.6972L55.6832 47.3631L55.4337 42.9979L53.437 43.112ZM52.033 42.032L50.1149 41.4653L49.7262 42.7809L50.8135 43.6172L52.033 42.032ZM53.473 39.188L51.8943 37.9601L51.8894 37.9664L53.473 39.188ZM55.885 37.172L56.7976 38.9516L56.8155 38.9425L56.8332 38.9329L55.885 37.172ZM60.061 36.524L59.6924 38.4897L59.7524 38.501L59.8129 38.5086L60.061 36.524ZM61.141 36.74L63.0824 37.2206L63.5462 35.3472L61.6904 34.817L61.141 36.74ZM59.305 44.156L58.2312 45.8433L60.5779 47.3367L61.2464 44.6366L59.305 44.156ZM58.189 43.724L57.6143 45.6397L57.6588 45.653L57.7039 45.6643L58.189 43.724ZM55.345 43.76L56.0472 45.6327L56.0975 45.6138L56.1466 45.5923L55.345 43.76ZM54.373 44.408L52.8987 43.0565L52.8987 43.0566L54.373 44.408ZM53.761 45.452L55.6336 46.1542L55.6405 46.136L55.6469 46.1176L53.761 45.452ZM53.545 56V58H55.545V56H53.545ZM48.813 56V36.812H44.813V56H48.813ZM46.813 38.812H53.077V34.812H46.813V38.812ZM51.0802 36.9261L51.4402 43.2261L55.4337 42.9979L55.0737 36.6979L51.0802 36.9261ZM54.6564 41.5268L53.2524 40.4468L50.8135 43.6172L52.2175 44.6972L54.6564 41.5268ZM53.951 42.5987C54.1957 41.7707 54.5653 41.0464 55.0565 40.4096L51.8894 37.9664C51.0847 39.0096 50.4943 40.1813 50.1149 41.4653L53.951 42.5987ZM55.0517 40.4159C55.552 39.7726 56.1318 39.2931 56.7976 38.9516L54.9723 35.3924C53.7661 36.0109 52.7379 36.8754 51.8943 37.9601L55.0517 40.4159ZM56.8332 38.9329C57.4869 38.5809 58.1462 38.416 58.837 38.416V34.416C57.4638 34.416 56.1551 34.7551 54.9368 35.4111L56.8332 38.9329ZM58.837 38.416C59.1581 38.416 59.4419 38.4428 59.6924 38.4897L60.4296 34.5583C59.912 34.4612 59.3798 34.416 58.837 34.416V38.416ZM59.8129 38.5086C60.1057 38.5452 60.3641 38.5981 60.5915 38.663L61.6904 34.817C61.2458 34.6899 60.7842 34.5988 60.309 34.5394L59.8129 38.5086ZM59.1996 36.2594L57.3636 43.6754L61.2464 44.6366L63.0824 37.2206L59.1996 36.2594ZM60.3787 42.4687C59.8595 42.1383 59.2561 41.9292 58.674 41.7837L57.7039 45.6643C57.8817 45.7087 58.0131 45.7512 58.106 45.7871C58.2009 45.8239 58.2357 45.8462 58.2312 45.8433L60.3787 42.4687ZM58.7637 41.8083C58.0794 41.6031 57.368 41.508 56.641 41.508V45.508C57.0179 45.508 57.3386 45.5569 57.6143 45.6397L58.7637 41.8083ZM56.641 41.508C55.9249 41.508 55.2143 41.6342 54.5433 41.9277L56.1466 45.5923C56.2437 45.5498 56.397 45.508 56.641 45.508V41.508ZM54.6427 41.8873C53.979 42.1362 53.386 42.5249 52.8987 43.0565L55.8473 45.7594C55.8879 45.7151 55.9429 45.6718 56.0472 45.6327L54.6427 41.8873ZM52.8987 43.0566C52.434 43.5634 52.099 44.1518 51.875 44.7864L55.6469 46.1176C55.711 45.9362 55.7839 45.8286 55.8473 45.7594L52.8987 43.0566ZM51.8883 44.7498C51.6398 45.4125 51.545 46.1178 51.545 46.82H55.545C55.545 46.4662 55.5942 46.2595 55.6336 46.1542L51.8883 44.7498ZM51.545 46.82V56H55.545V46.82H51.545ZM53.545 54H46.813V58H53.545V54ZM66.9758 55.064L67.9224 53.3022L66.9758 55.064ZM63.1958 51.536L61.4906 52.5811L63.1958 51.536ZM63.1958 41.24L61.4906 40.1949L63.1958 41.24ZM66.9758 37.712L67.9224 39.4738L66.9758 37.712ZM77.8838 37.712L76.9261 39.4678L76.9371 39.4738L77.8838 37.712ZM81.6638 41.24L79.9586 42.2851V42.2851L81.6638 41.24ZM81.6638 51.536L79.9586 50.4909L81.6638 51.536ZM77.8838 55.064L76.9371 53.3022L76.9261 53.3082L77.8838 55.064ZM74.3918 50.168L75.4518 51.864L75.4609 51.8583L75.4699 51.8525L74.3918 50.168ZM75.7598 48.62L73.9709 47.7256L73.9643 47.7389L73.9578 47.7524L75.7598 48.62ZM75.7598 44.12L73.9578 44.9876L73.9706 45.0143L73.9843 45.0406L75.7598 44.12ZM74.3918 42.608L73.2824 44.2721L73.322 44.2985L73.3628 44.323L74.3918 42.608ZM70.4678 42.608L71.5278 44.304L71.5527 44.2884L71.5772 44.2721L70.4678 42.608ZM69.0998 44.156L70.8753 45.0766L70.8821 45.0636L70.8886 45.0504L69.0998 44.156ZM69.0998 48.62L67.3109 49.5144L67.3175 49.5276L67.3243 49.5406L69.0998 48.62ZM70.4678 50.168L69.3584 51.8321L69.3828 51.8484L69.4078 51.864L70.4678 50.168ZM72.4478 54.36C70.6987 54.36 69.2065 53.9922 67.9224 53.3022L66.0292 56.8258C67.9611 57.8638 70.1169 58.36 72.4478 58.36V54.36ZM67.9224 53.3022C66.6113 52.5977 65.6193 51.6629 64.901 50.4909L61.4906 52.5811C62.5962 54.3851 64.1243 55.8023 66.0292 56.8258L67.9224 53.3022ZM64.901 50.4909C64.2032 49.3523 63.8278 48.0063 63.8278 46.388H59.8278C59.8278 48.6577 60.3644 50.7437 61.4906 52.5811L64.901 50.4909ZM63.8278 46.388C63.8278 44.7697 64.2032 43.4237 64.901 42.2851L61.4906 40.1949C60.3644 42.0323 59.8278 44.1183 59.8278 46.388H63.8278ZM64.901 42.2851C65.6193 41.1131 66.6113 40.1783 67.9224 39.4738L66.0292 35.9502C64.1243 36.9737 62.5962 38.3909 61.4906 40.1949L64.901 42.2851ZM67.9224 39.4738C69.2065 38.7838 70.6987 38.416 72.4478 38.416V34.416C70.1169 34.416 67.9611 34.9122 66.0292 35.9502L67.9224 39.4738ZM72.4478 38.416C74.1975 38.416 75.6725 38.784 76.9261 39.4678L78.8415 35.9562C76.9271 34.912 74.7781 34.416 72.4478 34.416V38.416ZM76.9371 39.4738C78.2483 40.1783 79.2402 41.1131 79.9586 42.2851L83.369 40.1949C82.2633 38.3909 80.7353 36.9737 78.8304 35.9502L76.9371 39.4738ZM79.9586 42.2851C80.6564 43.4237 81.0318 44.7697 81.0318 46.388H85.0318C85.0318 44.1183 84.4952 42.0323 83.369 40.1949L79.9586 42.2851ZM81.0318 46.388C81.0318 48.0063 80.6564 49.3523 79.9586 50.4909L83.369 52.5811C84.4952 50.7437 85.0318 48.6577 85.0318 46.388H81.0318ZM79.9586 50.4909C79.2402 51.6629 78.2483 52.5977 76.9371 53.3022L78.8304 56.8258C80.7353 55.8023 82.2633 54.3851 83.369 52.5811L79.9586 50.4909ZM76.9261 53.3082C75.6725 53.992 74.1975 54.36 72.4478 54.36V58.36C74.7781 58.36 76.9271 57.864 78.8415 56.8198L76.9261 53.3082ZM72.4478 52.708C73.5191 52.708 74.5386 52.4348 75.4518 51.864L73.3318 48.472C73.093 48.6212 72.8165 48.708 72.4478 48.708V52.708ZM75.4699 51.8525C76.3854 51.2666 77.0905 50.4664 77.5618 49.4876L73.9578 47.7524C73.805 48.0696 73.5981 48.3014 73.3137 48.4835L75.4699 51.8525ZM77.5486 49.5144C78.0352 48.5413 78.2638 47.4872 78.2638 46.388H74.2638C74.2638 46.9208 74.1564 47.3547 73.9709 47.7256L77.5486 49.5144ZM78.2638 46.388C78.2638 45.2622 78.0436 44.1797 77.5353 43.1994L73.9843 45.0406C74.148 45.3563 74.2638 45.7858 74.2638 46.388H78.2638ZM77.5618 43.2524C77.0854 42.2629 76.3654 41.4598 75.4208 40.893L73.3628 44.323C73.6182 44.4762 73.8102 44.6811 73.9578 44.9876L77.5618 43.2524ZM75.5012 40.9439C74.583 40.3318 73.5459 40.032 72.4478 40.032V44.032C72.7897 44.032 73.0486 44.1162 73.2824 44.2721L75.5012 40.9439ZM72.4478 40.032C71.3399 40.032 70.2877 40.3243 69.3584 40.9439L71.5772 44.2721C71.7998 44.1237 72.0677 44.032 72.4478 44.032V40.032ZM69.4078 40.912C68.4873 41.4873 67.7935 42.2964 67.3109 43.2616L70.8886 45.0504C71.0781 44.6716 71.2963 44.4487 71.5278 44.304L69.4078 40.912ZM67.3243 43.2354C66.8199 44.208 66.5958 45.2761 66.5958 46.388H70.5958C70.5958 45.8199 70.7076 45.4 70.8753 45.0766L67.3243 43.2354ZM66.5958 46.388C66.5958 47.4872 66.8244 48.5413 67.3109 49.5144L70.8886 47.7256C70.7032 47.3547 70.5958 46.9208 70.5958 46.388H66.5958ZM67.3243 49.5406C67.8071 50.4719 68.4856 51.2503 69.3584 51.8321L71.5772 48.5039C71.2979 48.3177 71.0644 48.0641 70.8753 47.6994L67.3243 49.5406ZM69.4078 51.864C70.3316 52.4414 71.366 52.708 72.4478 52.708V48.708C72.0416 48.708 71.7559 48.6146 71.5278 48.472L69.4078 51.864ZM85.2042 63.74L83.4103 64.6244L83.9604 65.74H85.2042V63.74ZM82.6482 58.556V56.556H79.4322L80.8543 59.4404L82.6482 58.556ZM85.3482 58.16L84.5936 56.3078L84.5812 56.3129L84.5689 56.3181L85.3482 58.16ZM86.6802 56.756L84.7967 56.0833L86.6802 56.756ZM87.0402 36.812V34.812H85.0402V36.812H87.0402ZM93.7362 36.812H95.7362V34.812H93.7362V36.812ZM92.7642 60.248L91.0043 59.2977L90.9931 59.3185L90.9823 59.3396L92.7642 60.248ZM89.9202 62.912L89.124 61.0773L89.1111 61.0829L89.9202 62.912ZM87.6522 32.348L86.3506 33.8665L86.3665 33.8801L86.3827 33.8935L87.6522 32.348ZM87.6522 27.596L88.9842 29.0879L88.9872 29.0851L87.6522 27.596ZM93.3042 27.524L92.0026 29.0425L92.0315 29.0673L92.0614 29.091L93.3042 27.524ZM93.3042 32.276L91.9983 30.7612V30.7612L93.3042 32.276ZM86.998 62.8556L84.442 57.6716L80.8543 59.4404L83.4103 64.6244L86.998 62.8556ZM82.6482 60.556C83.9238 60.556 85.1387 60.4202 86.1274 60.0019L84.5689 56.3181C84.3096 56.4278 83.7245 56.556 82.6482 56.556V60.556ZM86.1028 60.0122C87.2895 59.5287 88.1366 58.6244 88.5636 57.4287L84.7967 56.0833C84.7603 56.1852 84.7272 56.2229 84.7162 56.2345C84.706 56.2453 84.6769 56.2739 84.5936 56.3078L86.1028 60.0122ZM88.5636 57.4287C88.9178 56.437 89.0402 55.2083 89.0402 53.876H85.0402C85.0402 55.0397 84.9225 55.731 84.7967 56.0833L88.5636 57.4287ZM89.0402 53.876V36.812H85.0402V53.876H89.0402ZM87.0402 38.812H93.7362V34.812H87.0402V38.812ZM91.7362 36.812V55.46H95.7362V36.812H91.7362ZM91.7362 55.46C91.7362 57.2624 91.4387 58.4933 91.0043 59.2977L94.524 61.1983C95.3856 59.6027 95.7362 57.6416 95.7362 55.46H91.7362ZM90.9823 59.3396C90.5715 60.1456 89.9741 60.7084 89.124 61.0773L90.7163 64.7467C92.4102 64.0116 93.7088 62.7984 94.546 61.1564L90.9823 59.3396ZM89.1111 61.0829C88.1968 61.4874 86.923 61.74 85.2042 61.74V65.74C87.2774 65.74 89.1476 65.4406 90.7292 64.7411L89.1111 61.0829ZM90.4962 31.176C89.5494 31.176 89.1146 30.9611 88.9216 30.8025L86.3827 33.8935C87.5337 34.8389 88.995 35.176 90.4962 35.176V31.176ZM88.9537 30.8295C88.8005 30.6982 88.6442 30.4915 88.6442 29.936H84.6442C84.6442 31.4445 85.1598 32.8458 86.3506 33.8665L88.9537 30.8295ZM88.6442 29.936C88.6442 29.5035 88.7677 29.2812 88.9842 29.0879L86.3201 26.1041C85.1926 27.1108 84.6442 28.4485 84.6442 29.936H88.6442ZM88.9872 29.0851C89.2217 28.875 89.6449 28.66 90.4962 28.66V24.66C88.9474 24.66 87.4746 25.069 86.3171 26.1069L88.9872 29.0851ZM90.4962 28.66C91.3893 28.66 91.8044 28.8726 92.0026 29.0425L94.6057 26.0055C93.4599 25.0233 92.003 24.66 90.4962 24.66V28.66ZM92.0614 29.091C92.1866 29.1903 92.3482 29.3619 92.3482 29.936H96.3482C96.3482 28.3981 95.8137 26.9617 94.5469 25.957L92.0614 29.091ZM92.3482 29.936C92.3482 30.3438 92.2316 30.5601 91.9983 30.7612L94.61 33.7908C95.7688 32.7919 96.3482 31.4482 96.3482 29.936H92.3482ZM91.9983 30.7612C91.7575 30.9688 91.3303 31.176 90.4962 31.176V35.176C92.014 35.176 93.4588 34.7832 94.61 33.7908L91.9983 30.7612ZM102.444 55.1L101.487 56.8558L101.497 56.8614L101.507 56.8669L102.444 55.1ZM98.7722 51.572L97.0357 52.5643L97.0426 52.5763L98.7722 51.572ZM98.1962 42.428L100.058 43.1582L98.1962 42.428ZM100.212 39.26L101.646 40.6547L101.655 40.6452L101.664 40.6355L100.212 39.26ZM103.272 37.172L104.028 39.0237L104.037 39.0199L104.047 39.016L103.272 37.172ZM110.976 37.136L110.193 38.9763L110.2 38.9793L110.207 38.9822L110.976 37.136ZM113.928 39.188L112.456 40.5413L112.465 40.5519L112.475 40.5624L113.928 39.188ZM115.836 42.32L113.954 42.9974L113.96 43.014L113.967 43.0304L115.836 42.32ZM116.448 46.28L114.449 46.2134L114.449 46.2229L114.449 46.2324L116.448 46.28ZM116.412 47.792V49.792H118.365L118.412 47.8396L116.412 47.792ZM101.292 47.792L99.3507 48.2722L99.7266 49.792H101.292V47.792ZM100.464 44.444V42.444H97.9093L98.5227 44.9242L100.464 44.444ZM111.048 44.444L112.535 45.7819L115.539 42.444H111.048V44.444ZM110.4 45.164H108.4V50.3759L111.887 46.5019L110.4 45.164ZM109.968 43.112L108.289 44.1985L108.327 44.2566L108.368 44.312L109.968 43.112ZM108.888 42.176L108.032 43.9835L108.032 43.9835L108.888 42.176ZM105.288 42.356L106.306 44.0779L106.317 44.0712L106.328 44.0644L105.288 42.356ZM104.064 43.724L102.261 42.8585L104.064 43.724ZM104.208 48.368L102.457 49.3342L102.47 49.357L102.483 49.3794L104.208 48.368ZM105.972 49.988L105.078 51.7769L105.089 51.7823L105.1 51.7876L105.972 49.988ZM110.796 50.276L110.164 48.3786L110.151 48.3827L110.139 48.387L110.796 50.276ZM112.632 49.268L114.262 48.1094L113.081 46.4468L111.442 47.6609L112.632 49.268ZM115.728 53.624L116.978 55.1857L118.453 54.0054L117.358 52.4654L115.728 53.624ZM113.172 55.244L114.004 57.063L114.015 57.0578L114.026 57.0525L113.172 55.244ZM110.652 56.072L110.26 54.1108L110.233 54.1162L110.207 54.1223L110.652 56.072ZM108.096 54.36C106.168 54.36 104.62 53.9901 103.381 53.3331L101.507 56.8669C103.436 57.8899 105.656 58.36 108.096 58.36V54.36ZM103.402 53.3442C102.123 52.6465 101.173 51.7236 100.502 50.5677L97.0426 52.5763C98.0995 54.3964 99.5977 55.8255 101.487 56.8558L103.402 53.3442ZM100.509 50.5797C99.8347 49.4002 99.4762 48.0325 99.4762 46.424H95.4762C95.4762 48.6555 95.9818 50.7198 97.0357 52.5643L100.509 50.5797ZM99.4762 46.424C99.4762 45.21 99.6777 44.1283 100.058 43.1582L96.3343 41.6978C95.7547 43.1757 95.4762 44.758 95.4762 46.424H99.4762ZM100.058 43.1582C100.447 42.1666 100.978 41.3404 101.646 40.6547L98.7788 37.8653C97.7179 38.9556 96.9054 40.2414 96.3343 41.6978L100.058 43.1582ZM101.664 40.6355C102.33 39.9322 103.112 39.3975 104.028 39.0237L102.516 35.3203C101.08 35.9065 99.8221 36.7638 98.7603 37.8845L101.664 40.6355ZM104.047 39.016C104.981 38.6237 106.023 38.416 107.196 38.416V34.416C105.538 34.416 103.964 34.7123 102.498 35.328L104.047 39.016ZM107.196 38.416C108.355 38.416 109.344 38.615 110.193 38.9763L111.759 35.2957C110.352 34.697 108.821 34.416 107.196 34.416V38.416ZM110.207 38.9822C111.101 39.3547 111.842 39.8741 112.456 40.5413L115.401 37.8347C114.382 36.7259 113.155 35.8773 111.745 35.2898L110.207 38.9822ZM112.475 40.5624C113.118 41.2414 113.612 42.0453 113.954 42.9974L117.718 41.6426C117.197 40.1947 116.419 38.9106 115.381 37.8136L112.475 40.5624ZM113.967 43.0304C114.318 43.954 114.49 45.006 114.449 46.2134L118.447 46.3466C118.503 44.674 118.267 43.086 117.706 41.6096L113.967 43.0304ZM114.449 46.2324L114.413 47.7444L118.412 47.8396L118.448 46.3276L114.449 46.2324ZM116.412 45.792H101.292V49.792H116.412V45.792ZM103.234 47.3118L102.406 43.9638L98.5227 44.9242L99.3507 48.2722L103.234 47.3118ZM100.464 46.444H111.048V42.444H100.464V46.444ZM109.562 43.1061L108.914 43.8261L111.887 46.5019L112.535 45.7819L109.562 43.1061ZM112.4 45.164V44.48H108.4V45.164H112.4ZM112.4 44.48C112.4 43.5649 112.142 42.677 111.568 41.912L108.368 44.312C108.377 44.3242 108.381 44.3322 108.385 44.3443C108.389 44.3583 108.4 44.3992 108.4 44.48H112.4ZM111.647 42.0255C111.173 41.293 110.523 40.7373 109.744 40.3685L108.032 43.9835C108.166 44.0467 108.235 44.115 108.289 44.1985L111.647 42.0255ZM109.744 40.3685C108.985 40.0089 108.17 39.852 107.34 39.852V43.852C107.662 43.852 107.879 43.9111 108.032 43.9835L109.744 40.3685ZM107.34 39.852C106.253 39.852 105.186 40.0767 104.248 40.6476L106.328 44.0644C106.494 43.9633 106.796 43.852 107.34 43.852V39.852ZM104.271 40.6341C103.373 41.1648 102.705 41.9334 102.261 42.8585L105.867 44.5895C105.999 44.3146 106.148 44.1712 106.306 44.0779L104.271 40.6341ZM102.261 42.8585C101.814 43.7899 101.632 44.8207 101.632 45.884H105.632C105.632 45.2673 105.738 44.8581 105.867 44.5895L102.261 42.8585ZM101.632 45.884C101.632 47.1121 101.879 48.2866 102.457 49.3342L105.959 47.4018C105.769 47.0574 105.632 46.5759 105.632 45.884H101.632ZM102.483 49.3794C103.099 50.4314 103.987 51.2313 105.078 51.7769L106.867 48.1991C106.422 47.9767 106.133 47.6966 105.934 47.3566L102.483 49.3794ZM105.1 51.7876C106.229 52.3352 107.504 52.564 108.852 52.564V48.564C107.944 48.564 107.299 48.4088 106.845 48.1884L105.1 51.7876ZM108.852 52.564C109.762 52.564 110.641 52.4474 111.453 52.165L110.139 48.387C109.847 48.4886 109.431 48.564 108.852 48.564V52.564ZM111.429 52.1734C112.258 51.8968 113.057 51.4421 113.823 50.8751L111.442 47.6609C110.911 48.0539 110.486 48.2712 110.164 48.3786L111.429 52.1734ZM111.002 50.4266L114.098 54.7826L117.358 52.4654L114.262 48.1094L111.002 50.4266ZM114.479 52.0623C113.746 52.6489 113.025 53.1018 112.318 53.4355L114.026 57.0525C115.048 56.5702 116.031 55.9431 116.978 55.1857L114.479 52.0623ZM112.341 53.4251C111.63 53.7498 110.937 53.9754 110.26 54.1108L111.044 58.0332C112.047 57.8326 113.034 57.5062 114.004 57.063L112.341 53.4251ZM110.207 54.1223C109.513 54.2808 108.811 54.36 108.096 54.36V58.36C109.11 58.36 110.111 58.2472 111.098 58.0217L110.207 54.1223ZM123.394 55.064L122.39 56.7936L122.402 56.8005L123.394 55.064ZM119.866 51.536L118.129 52.5283L118.136 52.5403L119.866 51.536ZM119.866 41.276L121.596 42.2803L121.602 42.2683L119.866 41.276ZM123.394 37.712L122.402 35.9755L122.39 35.9824L123.394 37.712ZM133.258 37.244L132.542 39.1115L132.552 39.1154L133.258 37.244ZM136.75 39.62L138.28 40.9079L139.361 39.6234L138.283 38.3361L136.75 39.62ZM133.114 43.94L131.541 45.1756L133.061 47.1093L134.644 45.2279L133.114 43.94ZM132.106 43.04L130.953 44.6739L130.986 44.6972L131.019 44.7191L132.106 43.04ZM130.738 42.392L130.077 44.2797L130.132 44.299L130.189 44.315L130.738 42.392ZM127.03 42.68L128.059 44.395V44.395L127.03 42.68ZM125.626 44.192L123.85 43.2714L123.844 43.2844L123.837 43.2976L125.626 44.192ZM125.626 48.512L127.415 47.6176L125.626 48.512ZM126.994 50.024L125.916 51.7085L125.931 51.7181L125.946 51.7273L126.994 50.024ZM130.738 50.384L130.189 48.461L130.176 48.4646L130.163 48.4683L130.738 50.384ZM132.07 49.772L130.983 48.0929L130.96 48.1081L130.937 48.1239L132.07 49.772ZM133.114 48.836L134.649 47.5544L133.081 45.6755L131.552 47.5866L133.114 48.836ZM136.75 53.192L138.251 54.5141L139.384 53.2271L138.285 51.9104L136.75 53.192ZM133.222 55.532L132.516 53.6606L132.506 53.6645L133.222 55.532ZM128.506 54.36C126.926 54.36 125.57 54.0037 124.386 53.3275L122.402 56.8005C124.242 57.8523 126.294 58.36 128.506 58.36V54.36ZM124.398 53.3344C123.211 52.645 122.285 51.719 121.596 50.5317L118.136 52.5403C119.175 54.329 120.601 55.755 122.39 56.7936L124.398 53.3344ZM121.602 50.5437C120.928 49.3642 120.57 47.9965 120.57 46.388H116.57C116.57 48.6195 117.076 50.6838 118.129 52.5283L121.602 50.5437ZM120.57 46.388C120.57 44.7789 120.929 43.429 121.596 42.2803L118.136 40.2717C117.075 42.099 116.57 44.1571 116.57 46.388H120.57ZM121.602 42.2683C122.294 41.0584 123.219 40.1264 124.398 39.4416L122.39 35.9824C120.593 37.0256 119.166 38.4696 118.129 40.2837L121.602 42.2683ZM124.386 39.4485C125.57 38.7723 126.926 38.416 128.506 38.416V34.416C126.294 34.416 124.242 34.9237 122.402 35.9755L124.386 39.4485ZM128.506 38.416C130.019 38.416 131.356 38.657 132.542 39.1115L133.974 35.3765C132.279 34.727 130.449 34.416 128.506 34.416V38.416ZM132.552 39.1154C133.747 39.5659 134.607 40.1758 135.216 40.9039L138.283 38.3361C137.165 37.0002 135.697 36.0261 133.964 35.3726L132.552 39.1154ZM135.22 38.3321L131.584 42.6521L134.644 45.2279L138.28 40.9079L135.22 38.3321ZM134.687 42.7044C134.269 42.1727 133.761 41.7286 133.192 41.3609L131.019 44.7191C131.267 44.8794 131.431 45.0353 131.541 45.1756L134.687 42.7044ZM133.259 41.4061C132.659 40.9821 131.997 40.6716 131.287 40.469L130.189 44.315C130.487 44.4004 130.737 44.5219 130.953 44.6739L133.259 41.4061ZM131.399 40.5043C130.672 40.25 129.903 40.14 129.118 40.14V44.14C129.532 44.14 129.844 44.198 130.077 44.2797L131.399 40.5043ZM129.118 40.14C128.012 40.14 126.951 40.3949 126.001 40.965L128.059 44.395C128.309 44.2451 128.64 44.14 129.118 44.14V40.14ZM126.001 40.965C125.069 41.524 124.349 42.3095 123.85 43.2714L127.401 45.1126C127.575 44.7785 127.791 44.556 128.059 44.395L126.001 40.965ZM123.837 43.2976C123.365 44.2427 123.158 45.278 123.158 46.352H127.158C127.158 45.7939 127.263 45.3893 127.415 45.0864L123.837 43.2976ZM123.158 46.352C123.158 47.4259 123.365 48.4613 123.837 49.4064L127.415 47.6176C127.263 47.3147 127.158 46.91 127.158 46.352H123.158ZM123.837 49.4064C124.314 50.3602 125.019 51.1344 125.916 51.7085L128.072 48.3395C127.769 48.1456 127.562 47.9118 127.415 47.6176L123.837 49.4064ZM125.946 51.7273C126.91 52.321 127.987 52.6 129.118 52.6V48.6C128.665 48.6 128.325 48.495 128.042 48.3207L125.946 51.7273ZM129.118 52.6C129.876 52.6 130.614 52.5093 131.313 52.2997L130.163 48.4683C129.902 48.5467 129.56 48.6 129.118 48.6V52.6ZM131.287 52.307C131.974 52.1109 132.62 51.821 133.203 51.4201L130.937 48.1239C130.752 48.251 130.51 48.3691 130.189 48.461L131.287 52.307ZM133.156 51.4511C133.735 51.0767 134.246 50.6221 134.676 50.0854L131.552 47.5866C131.406 47.7699 131.221 47.9393 130.983 48.0929L133.156 51.4511ZM131.579 50.1176L135.215 54.4736L138.285 51.9104L134.649 47.5544L131.579 50.1176ZM135.249 51.8699C134.61 52.595 133.725 53.2049 132.516 53.6606L133.928 57.4034C135.647 56.7551 137.113 55.805 138.251 54.5141L135.249 51.8699ZM132.506 53.6645C131.317 54.1202 129.991 54.36 128.506 54.36V58.36C130.429 58.36 132.247 58.0478 133.938 57.3995L132.506 53.6645ZM140.991 56H138.991V58H140.991V56ZM140.991 31.952V29.952H138.991V31.952H140.991ZM147.687 31.952H149.687V29.952H147.687V31.952ZM147.687 56V58H149.687V56H147.687ZM137.823 42.5H135.823V44.5H137.823V42.5ZM137.823 36.812V34.812H135.823V36.812H137.823ZM151.035 36.812H153.035V34.812H151.035V36.812ZM151.035 42.5V44.5H153.035V42.5H151.035ZM142.991 56V31.952H138.991V56H142.991ZM140.991 33.952H147.687V29.952H140.991V33.952ZM145.687 31.952V56H149.687V31.952H145.687ZM147.687 54H140.991V58H147.687V54ZM139.823 42.5V36.812H135.823V42.5H139.823ZM137.823 38.812H151.035V34.812H137.823V38.812ZM149.035 36.812V42.5H153.035V36.812H149.035ZM151.035 40.5H137.823V44.5H151.035V40.5ZM173.217 55.388L172.488 57.2505L173.217 55.388ZM168.969 52.652L167.54 54.0516L167.547 54.0589L167.555 54.0662L168.969 52.652ZM166.341 48.476L164.467 49.1752L166.341 48.476ZM166.413 38.036L164.568 37.2648L164.565 37.2718L164.562 37.2787L166.413 38.036ZM169.293 33.86L170.664 35.3156V35.3156L169.293 33.86ZM173.685 31.124L172.974 29.2546L172.965 29.258L173.685 31.124ZM183.333 30.692L182.779 32.6137L182.788 32.6164L183.333 30.692ZM186.753 32.168L187.806 30.4675V30.4675L186.753 32.168ZM189.345 34.256L190.805 35.6231L192.086 34.2553L190.804 32.8881L189.345 34.256ZM185.097 38.792L183.716 40.2387L185.176 41.6329L186.557 40.1591L185.097 38.792ZM183.405 37.496L182.345 39.192L182.36 39.2016L182.376 39.211L183.405 37.496ZM181.497 36.632L180.885 38.5361L180.894 38.5391L180.904 38.5421L181.497 36.632ZM176.637 36.848L177.438 38.6803L177.452 38.6746L177.464 38.6687L176.637 36.848ZM174.621 38.288L176.064 39.6731L176.077 39.6589L176.09 39.6446L174.621 38.288ZM173.253 40.484L171.389 39.7591L171.383 39.7733L171.378 39.7876L173.253 40.484ZM173.289 46.028L171.425 46.7529L171.428 46.7619L171.432 46.7708L173.289 46.028ZM174.693 48.224L173.251 49.6102L174.693 48.224ZM176.817 49.7L176.01 51.5298L176.042 51.544L176.074 51.557L176.817 49.7ZM181.389 49.88L182.091 51.7527L181.389 49.88ZM182.865 49.016L184.188 50.5157L184.194 50.5108L182.865 49.016ZM183.873 47.684L185.679 48.5439L185.686 48.5278L185.694 48.5116L183.873 47.684ZM184.233 44.984L185.933 43.9313L182.233 37.9535V44.984H184.233ZM185.169 46.496V48.496H188.759L186.869 45.4433L185.169 46.496ZM178.545 46.496H176.545V48.496H178.545V46.496ZM178.545 41.312V39.312H176.545V41.312H178.545ZM190.713 41.312L192.705 41.1309L192.539 39.312H190.713V41.312ZM190.785 42.536L188.787 42.6229L188.789 42.67L188.793 42.7171L190.785 42.536ZM190.857 44.12H188.857V44.1654L188.859 44.2108L190.857 44.12ZM189.993 49.7L191.824 50.5033L189.993 49.7ZM187.473 53.228L188.82 54.7064V54.7064L187.473 53.228ZM183.657 55.532L184.362 57.4034L183.657 55.532ZM178.833 54.36C176.952 54.36 175.333 54.0683 173.946 53.5255L172.488 57.2505C174.413 58.0037 176.538 58.36 178.833 58.36V54.36ZM173.946 53.5255C172.529 52.971 171.351 52.2054 170.383 51.2378L167.555 54.0662C168.939 55.4506 170.593 56.509 172.488 57.2505L173.946 53.5255ZM170.398 51.2524C169.45 50.2847 168.721 49.1342 168.215 47.7768L164.467 49.1752C165.161 51.0338 166.184 52.6673 167.54 54.0516L170.398 51.2524ZM168.215 47.7768C167.705 46.4119 167.441 44.911 167.441 43.256H163.441C163.441 45.345 163.776 47.3241 164.467 49.1752L168.215 47.7768ZM167.441 43.256C167.441 41.5917 167.724 40.1122 168.264 38.7933L164.562 37.2787C163.805 39.1278 163.441 41.1283 163.441 43.256H167.441ZM168.258 38.8072C168.824 37.4537 169.624 36.296 170.664 35.3156L167.921 32.4044C166.466 33.776 165.346 35.4023 164.568 37.2648L168.258 38.8072ZM170.664 35.3156C171.714 34.3262 172.954 33.5495 174.405 32.99L172.965 29.258C171.056 29.9945 169.367 31.0418 167.921 32.4044L170.664 35.3156ZM174.396 32.9934C175.845 32.4424 177.484 32.152 179.337 32.152V28.152C177.062 28.152 174.933 28.5096 172.974 29.2546L174.396 32.9934ZM179.337 32.152C180.582 32.152 181.726 32.3101 182.779 32.6136L183.887 28.7704C182.444 28.3539 180.924 28.152 179.337 28.152V32.152ZM182.788 32.6164C183.902 32.9315 184.867 33.3529 185.7 33.8685L187.806 30.4675C186.622 29.7351 185.308 29.1725 183.877 28.7676L182.788 32.6164ZM185.7 33.8685C186.577 34.4114 187.3 34.9991 187.886 35.6239L190.804 32.8881C189.95 31.9769 188.945 31.1726 187.806 30.4675L185.7 33.8685ZM187.885 32.8889L183.637 37.4249L186.557 40.1591L190.805 35.6231L187.885 32.8889ZM186.478 37.3453C185.847 36.7435 185.166 36.2204 184.434 35.781L182.376 39.211C182.844 39.4916 183.29 39.8325 183.716 40.2387L186.478 37.3453ZM184.465 35.8C183.733 35.3425 182.938 34.9852 182.09 34.7219L180.904 38.5421C181.448 38.7108 181.925 38.9295 182.345 39.192L184.465 35.8ZM182.109 34.7279C181.206 34.4376 180.238 34.308 179.229 34.308V38.308C179.899 38.308 180.444 38.3944 180.885 38.5361L182.109 34.7279ZM179.229 34.308C178.029 34.308 176.88 34.5403 175.809 35.0273L177.464 38.6687C177.977 38.4356 178.556 38.308 179.229 38.308V34.308ZM175.835 35.0157C174.811 35.4639 173.912 36.1071 173.151 36.9314L176.09 39.6446C176.482 39.2209 176.927 38.9041 177.438 38.6803L175.835 35.0157ZM173.178 36.9029C172.4 37.7137 171.809 38.6776 171.389 39.7591L175.117 41.2089C175.368 40.5624 175.69 40.0623 176.064 39.6731L173.178 36.9029ZM171.378 39.7876C170.974 40.8765 170.785 42.0397 170.785 43.256H174.785C174.785 42.4563 174.908 41.7715 175.128 41.1804L171.378 39.7876ZM170.785 43.256C170.785 44.4726 170.994 45.6439 171.425 46.7529L175.153 45.3031C174.912 44.6841 174.785 44.0074 174.785 43.256H170.785ZM171.432 46.7708C171.859 47.839 172.465 48.7922 173.251 49.6102L176.135 46.8378C175.721 46.4078 175.39 45.897 175.146 45.2852L171.432 46.7708ZM173.251 49.6102C174.037 50.4277 174.963 51.0679 176.01 51.5298L177.624 47.8702C177.039 47.6121 176.548 47.2683 176.135 46.8378L173.251 49.6102ZM176.074 51.557C177.164 51.9931 178.318 52.204 179.517 52.204V48.204C178.796 48.204 178.149 48.0789 177.56 47.843L176.074 51.557ZM179.517 52.204C180.406 52.204 181.271 52.0603 182.091 51.7527L180.687 48.0073C180.355 48.1317 179.971 48.204 179.517 48.204V52.204ZM182.091 51.7527C182.866 51.4622 183.575 51.0564 184.188 50.5157L181.542 47.5163C181.338 47.6956 181.064 47.8658 180.687 48.0073L182.091 51.7527ZM184.194 50.5108C184.818 49.9556 185.32 49.2979 185.679 48.5439L182.067 46.8241C181.946 47.0781 181.776 47.3084 181.536 47.5212L184.194 50.5108ZM185.694 48.5116C186.056 47.7146 186.233 46.8674 186.233 45.992H182.233C182.233 46.3166 182.17 46.5974 182.052 46.8564L185.694 48.5116ZM186.233 45.992V44.984H182.233V45.992H186.233ZM182.532 46.0367L183.468 47.5487L186.869 45.4433L185.933 43.9313L182.532 46.0367ZM185.169 44.496H178.545V48.496H185.169V44.496ZM180.545 46.496V41.312H176.545V46.496H180.545ZM178.545 43.312H190.713V39.312H178.545V43.312ZM188.721 41.4931C188.741 41.7076 188.763 42.0763 188.787 42.6229L192.783 42.4491C192.759 41.8917 192.733 41.4444 192.705 41.1309L188.721 41.4931ZM188.793 42.7171C188.836 43.1851 188.857 43.6527 188.857 44.12H192.857C192.857 43.5313 192.83 42.9429 192.777 42.3549L188.793 42.7171ZM188.859 44.2108C188.883 44.7393 188.893 45.0704 188.893 45.236H192.893C192.893 44.9696 192.879 44.5567 192.855 44.0292L188.859 44.2108ZM188.893 45.236C188.893 46.5889 188.642 47.8008 188.161 48.8967L191.824 50.5033C192.544 48.8632 192.893 47.0991 192.893 45.236H188.893ZM188.161 48.8967C187.671 50.0141 186.994 50.9585 186.126 51.7496L188.82 54.7064C190.112 53.5295 191.115 52.1219 191.824 50.5033L188.161 48.8967ZM186.126 51.7496C185.246 52.5514 184.195 53.1915 182.951 53.6606L184.362 57.4034C186.046 56.7685 187.54 55.8726 188.82 54.7064L186.126 51.7496ZM182.951 53.6606C181.738 54.118 180.373 54.36 178.833 54.36V58.36C180.797 58.36 182.648 58.05 184.362 57.4034L182.951 53.6606ZM197.52 55.064L196.382 56.7084L196.4 56.7209L196.418 56.7329L197.52 55.064ZM194.532 51.536L192.726 52.3959L192.734 52.4132L192.743 52.4304L194.532 51.536ZM194.532 41.204L196.332 42.0751L194.532 41.204ZM197.52 37.712L198.622 39.3809L198.633 39.3738L198.644 39.3664L197.52 37.712ZM204.36 36.776L204.974 34.8726L204.36 36.776ZM206.304 37.82L205.03 39.3619L205.03 39.3619L206.304 37.82ZM207.744 39.368L209.376 38.212V38.212L207.744 39.368ZM208.752 41.24L208.647 43.2372L211.75 43.4005L210.613 40.5087L208.752 41.24ZM207.384 41.168H205.384V43.0655L207.279 43.1652L207.384 41.168ZM207.384 36.812V34.812H205.384V36.812H207.384ZM213.972 36.812H215.972V34.812H213.972V36.812ZM213.972 56V58H215.972V56H213.972ZM207.24 56H205.24V58H207.24V56ZM207.24 51.32L207.337 49.3224L205.24 49.2201V51.32H207.24ZM208.716 51.392L210.626 51.9848L211.391 49.5201L208.813 49.3944L208.716 51.392ZM207.744 53.336L206.121 52.1674L206.105 52.1892L206.09 52.2114L207.744 53.336ZM206.232 54.92L207.401 56.5431L207.422 56.528L207.442 56.5123L206.232 54.92ZM204.216 55.964L204.848 57.8614L204.867 57.8553L204.885 57.8489L204.216 55.964ZM205.692 50.312L206.732 52.0204L206.758 52.0042L206.784 51.9872L205.692 50.312ZM206.952 48.764L205.138 47.9218L205.125 47.9488L205.114 47.9762L206.952 48.764ZM206.952 43.976L205.114 44.7638L205.125 44.7912L205.138 44.8182L206.952 43.976ZM205.692 42.464L204.599 44.1392L204.625 44.1562L204.652 44.1724L205.692 42.464ZM201.732 42.464L202.806 44.1513L202.815 44.1453L202.824 44.1392L201.732 42.464ZM200.508 43.976L202.346 44.7638L200.508 43.976ZM200.508 48.764L202.346 47.9762V47.9762L200.508 48.764ZM201.732 50.312L200.605 51.9645L200.648 51.9935L200.692 52.0204L201.732 50.312ZM201.804 54.324C200.596 54.324 199.554 54.0104 198.622 53.3951L196.418 56.7329C198.03 57.7976 199.844 58.324 201.804 58.324V54.324ZM198.658 53.4196C197.713 52.7649 196.929 51.8585 196.321 50.6416L192.743 52.4304C193.623 54.1895 194.831 55.6351 196.382 56.7084L198.658 53.4196ZM196.338 50.6761C195.763 49.4695 195.452 48.0541 195.452 46.388H191.452C191.452 48.5619 191.861 50.5785 192.726 52.3959L196.338 50.6761ZM195.452 46.388C195.452 44.6648 195.766 43.2446 196.332 42.0751L192.732 40.3329C191.857 42.1394 191.452 44.1752 191.452 46.388H195.452ZM196.332 42.0751C196.909 40.8827 197.675 40.006 198.622 39.3809L196.418 36.0431C194.82 37.098 193.595 38.5493 192.732 40.3329L196.332 42.0751ZM198.644 39.3664C199.558 38.7451 200.624 38.416 201.912 38.416V34.416C199.888 34.416 198.025 34.9509 196.396 36.0576L198.644 39.3664ZM201.912 38.416C202.619 38.416 203.225 38.5114 203.746 38.6794L204.974 34.8726C204.007 34.5606 202.981 34.416 201.912 34.416V38.416ZM203.746 38.6794C204.271 38.8489 204.69 39.0813 205.03 39.3619L207.578 36.2781C206.813 35.6467 205.937 35.1831 204.974 34.8726L203.746 38.6794ZM205.03 39.3619C205.448 39.7073 205.807 40.094 206.112 40.524L209.376 38.212C208.865 37.49 208.264 36.8447 207.578 36.2781L205.03 39.3619ZM206.112 40.524C206.424 40.9652 206.684 41.4462 206.89 41.9713L210.613 40.5087C210.292 39.6898 209.879 38.9228 209.376 38.212L206.112 40.524ZM208.857 39.2428L207.489 39.1708L207.279 43.1652L208.647 43.2372L208.857 39.2428ZM209.384 41.168V36.812H205.384V41.168H209.384ZM207.384 38.812H213.972V34.812H207.384V38.812ZM211.972 36.812V56H215.972V36.812H211.972ZM213.972 54H207.24V58H213.972V54ZM209.24 56V51.32H205.24V56H209.24ZM207.142 53.3176L208.618 53.3896L208.813 49.3944L207.337 49.3224L207.142 53.3176ZM206.806 50.7992C206.655 51.286 206.429 51.74 206.121 52.1674L209.367 54.5046C209.923 53.732 210.345 52.89 210.626 51.9848L206.806 50.7992ZM206.09 52.2114C205.808 52.6257 205.456 52.9974 205.022 53.3277L207.442 56.5123C208.208 55.9305 208.863 55.2463 209.398 54.4606L206.09 52.2114ZM205.063 53.2969C204.627 53.6113 204.125 53.8741 203.547 54.0791L204.885 57.8489C205.795 57.5259 206.637 57.0927 207.401 56.5431L205.063 53.2969ZM203.583 54.0666C203.099 54.2282 202.513 54.324 201.804 54.324V58.324C202.871 58.324 203.893 58.1798 204.848 57.8614L203.583 54.0666ZM203.712 52.816C204.777 52.816 205.812 52.5804 206.732 52.0204L204.652 48.6036C204.468 48.7156 204.183 48.816 203.712 48.816V52.816ZM206.784 51.9872C207.703 51.3883 208.364 50.5455 208.79 49.5518L205.114 47.9762C204.964 48.3265 204.785 48.5157 204.599 48.6368L206.784 51.9872ZM208.766 49.6062C209.225 48.6167 209.42 47.5253 209.42 46.388H205.42C205.42 47.0747 205.302 47.5673 205.138 47.9218L208.766 49.6062ZM209.42 46.388C209.42 45.2353 209.228 44.1296 208.766 43.1338L205.138 44.8182C205.3 45.1664 205.42 45.6687 205.42 46.388H209.42ZM208.79 43.1882C208.361 42.186 207.685 41.3357 206.732 40.7556L204.652 44.1724C204.803 44.2643 204.967 44.422 205.114 44.7638L208.79 43.1882ZM206.784 40.7888C205.857 40.1837 204.802 39.924 203.712 39.924V43.924C204.158 43.924 204.423 44.0243 204.599 44.1392L206.784 40.7888ZM203.712 39.924C202.622 39.924 201.567 40.1837 200.639 40.7888L202.824 44.1392C203.001 44.0243 203.266 43.924 203.712 43.924V39.924ZM200.658 40.7767C199.736 41.3633 199.089 42.2101 198.67 43.1882L202.346 44.7638C202.503 44.3979 202.671 44.2367 202.806 44.1513L200.658 40.7767ZM198.67 43.1882C198.25 44.1683 198.076 45.254 198.076 46.388H202.076C202.076 45.65 202.19 45.1277 202.346 44.7638L198.67 43.1882ZM198.076 46.388C198.076 47.506 198.252 48.5775 198.67 49.5518L202.346 47.9762C202.188 47.6065 202.076 47.094 202.076 46.388H198.076ZM198.67 49.5518C199.086 50.5222 199.719 51.3603 200.605 51.9645L202.859 48.6595C202.689 48.5437 202.506 48.3498 202.346 47.9762L198.67 49.5518ZM200.692 52.0204C201.612 52.5804 202.647 52.816 203.712 52.816V48.816C203.241 48.816 202.956 48.7156 202.772 48.6036L200.692 52.0204ZM219.044 56H217.044V58H219.044V56ZM219.044 29.36V27.36H217.044V29.36H219.044ZM225.74 29.36H227.74V27.36H225.74V29.36ZM225.74 56V58H227.74V56H225.74ZM221.044 56V29.36H217.044V56H221.044ZM219.044 31.36H225.74V27.36H219.044V31.36ZM223.74 29.36V56H227.74V29.36H223.74ZM225.74 54H219.044V58H225.74V54ZM230.857 56H228.857V58H230.857V56ZM230.857 29.36V27.36H228.857V29.36H230.857ZM237.553 29.36H239.553V27.36H237.553V29.36ZM237.553 56V58H239.553V56H237.553ZM232.857 56V29.36H228.857V56H232.857ZM230.857 31.36H237.553V27.36H230.857V31.36ZM235.553 29.36V56H239.553V29.36H235.553ZM237.553 54H230.857V58H237.553V54ZM245.882 55.1L244.924 56.8558L244.934 56.8614L244.945 56.8669L245.882 55.1ZM242.21 51.572L240.473 52.5643L240.48 52.5763L242.21 51.572ZM241.634 42.428L243.496 43.1582L241.634 42.428ZM243.65 39.26L245.083 40.6547L245.092 40.6452L245.102 40.6355L243.65 39.26ZM246.71 37.172L247.466 39.0237L247.475 39.0199L247.484 39.016L246.71 37.172ZM254.414 37.136L253.631 38.9763L253.638 38.9793L253.644 38.9822L254.414 37.136ZM257.366 39.188L255.893 40.5413L255.903 40.5519L255.913 40.5624L257.366 39.188ZM259.274 42.32L257.392 42.9974L257.398 43.014L257.404 43.0304L259.274 42.32ZM259.886 46.28L257.887 46.2134L257.887 46.2229L257.886 46.2324L259.886 46.28ZM259.85 47.792V49.792H261.803L261.849 47.8396L259.85 47.792ZM244.73 47.792L242.788 48.2722L243.164 49.792H244.73V47.792ZM243.902 44.444V42.444H241.347L241.96 44.9242L243.902 44.444ZM254.486 44.444L255.972 45.7819L258.976 42.444H254.486V44.444ZM253.838 45.164H251.838V50.3759L255.324 46.5019L253.838 45.164ZM253.406 43.112L251.727 44.1985L251.764 44.2566L251.806 44.312L253.406 43.112ZM252.326 42.176L251.47 43.9835V43.9835L252.326 42.176ZM248.726 42.356L249.743 44.0779L249.754 44.0712L249.766 44.0644L248.726 42.356ZM247.502 43.724L245.699 42.8585L247.502 43.724ZM247.646 48.368L245.895 49.3342L245.907 49.357L245.92 49.3794L247.646 48.368ZM249.41 49.988L248.515 51.7769L248.526 51.7823L248.537 51.7876L249.41 49.988ZM254.234 50.276L253.601 48.3786L253.589 48.3827L253.577 48.387L254.234 50.276ZM256.07 49.268L257.7 48.1094L256.518 46.4468L254.879 47.6609L256.07 49.268ZM259.166 53.624L260.415 55.1857L261.891 54.0054L260.796 52.4654L259.166 53.624ZM256.61 55.244L257.441 57.063L257.453 57.0578L257.464 57.0525L256.61 55.244ZM254.09 56.072L253.697 54.1108L253.671 54.1162L253.644 54.1223L254.09 56.072ZM251.534 54.36C249.606 54.36 248.058 53.9901 246.819 53.3331L244.945 56.8669C246.874 57.8899 249.094 58.36 251.534 58.36V54.36ZM246.839 53.3442C245.56 52.6465 244.61 51.7236 243.939 50.5677L240.48 52.5763C241.537 54.3964 243.035 55.8255 244.924 56.8558L246.839 53.3442ZM243.946 50.5797C243.272 49.4002 242.914 48.0325 242.914 46.424H238.914C238.914 48.6555 239.419 50.7198 240.473 52.5643L243.946 50.5797ZM242.914 46.424C242.914 45.21 243.115 44.1283 243.496 43.1582L239.772 41.6978C239.192 43.1757 238.914 44.758 238.914 46.424H242.914ZM243.496 43.1582C243.885 42.1666 244.416 41.3404 245.083 40.6547L242.216 37.8653C241.155 38.9556 240.343 40.2414 239.772 41.6978L243.496 43.1582ZM245.102 40.6355C245.768 39.9322 246.55 39.3975 247.466 39.0237L245.954 35.3203C244.518 35.9065 243.26 36.7638 242.198 37.8845L245.102 40.6355ZM247.484 39.016C248.418 38.6237 249.46 38.416 250.634 38.416V34.416C248.975 34.416 247.401 34.7123 245.935 35.328L247.484 39.016ZM250.634 38.416C251.793 38.416 252.782 38.615 253.631 38.9763L255.197 35.2957C253.79 34.697 252.259 34.416 250.634 34.416V38.416ZM253.644 38.9822C254.539 39.3547 255.28 39.8741 255.893 40.5413L258.838 37.8347C257.819 36.7259 256.593 35.8773 255.183 35.2898L253.644 38.9822ZM255.913 40.5624C256.555 41.2414 257.049 42.0453 257.392 42.9974L261.156 41.6426C260.634 40.1947 259.856 38.9106 258.819 37.8136L255.913 40.5624ZM257.404 43.0304C257.755 43.954 257.927 45.006 257.887 46.2134L261.885 46.3466C261.94 44.674 261.704 43.086 261.143 41.6096L257.404 43.0304ZM257.886 46.2324L257.85 47.7444L261.849 47.8396L261.885 46.3276L257.886 46.2324ZM259.85 45.792H244.73V49.792H259.85V45.792ZM246.671 47.3118L245.843 43.9638L241.96 44.9242L242.788 48.2722L246.671 47.3118ZM243.902 46.444H254.486V42.444H243.902V46.444ZM252.999 43.1061L252.351 43.8261L255.324 46.5019L255.972 45.7819L252.999 43.1061ZM255.838 45.164V44.48H251.838V45.164H255.838ZM255.838 44.48C255.838 43.5649 255.579 42.677 255.006 41.912L251.806 44.312C251.815 44.3242 251.819 44.3322 251.823 44.3443C251.827 44.3583 251.838 44.3992 251.838 44.48H255.838ZM255.085 42.0255C254.611 41.293 253.96 40.7373 253.182 40.3685L251.47 43.9835C251.603 44.0467 251.673 44.115 251.727 44.1985L255.085 42.0255ZM253.182 40.3685C252.423 40.0089 251.608 39.852 250.778 39.852V43.852C251.1 43.852 251.317 43.9111 251.47 43.9835L253.182 40.3685ZM250.778 39.852C249.69 39.852 248.624 40.0767 247.686 40.6476L249.766 44.0644C249.932 43.9633 250.233 43.852 250.778 43.852V39.852ZM247.708 40.6341C246.81 41.1648 246.143 41.9334 245.699 42.8585L249.305 44.5895C249.437 44.3146 249.585 44.1712 249.743 44.0779L247.708 40.6341ZM245.699 42.8585C245.252 43.7899 245.07 44.8207 245.07 45.884H249.07C249.07 45.2673 249.176 44.8581 249.305 44.5895L245.699 42.8585ZM245.07 45.884C245.07 47.1121 245.317 48.2866 245.895 49.3342L249.397 47.4018C249.207 47.0574 249.07 46.5759 249.07 45.884H245.07ZM245.92 49.3794C246.537 50.4314 247.424 51.2313 248.515 51.7769L250.304 48.1991C249.859 47.9767 249.57 47.6966 249.371 47.3566L245.92 49.3794ZM248.537 51.7876C249.667 52.3352 250.942 52.564 252.29 52.564V48.564C251.382 48.564 250.737 48.4088 250.282 48.1884L248.537 51.7876ZM252.29 52.564C253.199 52.564 254.079 52.4474 254.891 52.165L253.577 48.387C253.285 48.4886 252.868 48.564 252.29 48.564V52.564ZM254.866 52.1734C255.696 51.8968 256.495 51.4421 257.26 50.8751L254.879 47.6609C254.349 48.0539 253.924 48.2712 253.601 48.3786L254.866 52.1734ZM254.44 50.4266L257.536 54.7826L260.796 52.4654L257.7 48.1094L254.44 50.4266ZM257.916 52.0623C257.183 52.6489 256.462 53.1018 255.756 53.4355L257.464 57.0525C258.485 56.5702 259.468 55.9431 260.415 55.1857L257.916 52.0623ZM255.778 53.4251C255.068 53.7498 254.375 53.9754 253.697 54.1108L254.482 58.0332C255.485 57.8326 256.472 57.5062 257.441 57.063L255.778 53.4251ZM253.644 54.1223C252.951 54.2808 252.248 54.36 251.534 54.36V58.36C252.547 58.36 253.549 58.2472 254.535 58.0217L253.644 54.1223ZM263.375 56H261.375V58H263.375V56ZM263.375 36.812V34.812H261.375V36.812H263.375ZM269.639 36.812L271.636 36.6979L271.528 34.812H269.639V36.812ZM269.999 43.112L268.78 44.6972L272.246 47.3631L271.996 42.9979L269.999 43.112ZM268.595 42.032L266.677 41.4653L266.289 42.7809L267.376 43.6172L268.595 42.032ZM270.035 39.188L268.457 37.9601L268.452 37.9664L270.035 39.188ZM272.447 37.172L273.36 38.9516L273.378 38.9425L273.396 38.9329L272.447 37.172ZM276.623 36.524L276.255 38.4897L276.315 38.501L276.375 38.5086L276.623 36.524ZM277.703 36.74L279.645 37.2206L280.109 35.3472L278.253 34.817L277.703 36.74ZM275.867 44.156L274.794 45.8433L277.14 47.3367L277.809 44.6366L275.867 44.156ZM274.751 43.724L274.177 45.6397L274.221 45.653L274.266 45.6643L274.751 43.724ZM271.907 43.76L272.61 45.6327L272.66 45.6138L272.709 45.5923L271.907 43.76ZM270.935 44.408L269.461 43.0565L269.461 43.0566L270.935 44.408ZM270.323 45.452L272.196 46.1542L272.203 46.136L272.209 46.1176L270.323 45.452ZM270.107 56V58H272.107V56H270.107ZM265.375 56V36.812H261.375V56H265.375ZM263.375 38.812H269.639V34.812H263.375V38.812ZM267.643 36.9261L268.003 43.2261L271.996 42.9979L271.636 36.6979L267.643 36.9261ZM271.219 41.5268L269.815 40.4468L267.376 43.6172L268.78 44.6972L271.219 41.5268ZM270.514 42.5987C270.758 41.7707 271.128 41.0464 271.619 40.4096L268.452 37.9664C267.647 39.0096 267.057 40.1813 266.677 41.4653L270.514 42.5987ZM271.614 40.4159C272.115 39.7726 272.694 39.2931 273.36 38.9516L271.535 35.3924C270.329 36.0109 269.3 36.8754 268.457 37.9601L271.614 40.4159ZM273.396 38.9329C274.049 38.5809 274.709 38.416 275.399 38.416V34.416C274.026 34.416 272.718 34.7551 271.499 35.4111L273.396 38.9329ZM275.399 38.416C275.721 38.416 276.004 38.4428 276.255 38.4897L276.992 34.5583C276.475 34.4612 275.942 34.416 275.399 34.416V38.416ZM276.375 38.5086C276.668 38.5452 276.927 38.5981 277.154 38.663L278.253 34.817C277.808 34.6899 277.347 34.5988 276.872 34.5394L276.375 38.5086ZM275.762 36.2594L273.926 43.6754L277.809 44.6366L279.645 37.2206L275.762 36.2594ZM276.941 42.4687C276.422 42.1383 275.819 41.9292 275.237 41.7837L274.266 45.6643C274.444 45.7087 274.576 45.7512 274.668 45.7871C274.763 45.8239 274.798 45.8462 274.794 45.8433L276.941 42.4687ZM275.326 41.8083C274.642 41.6031 273.931 41.508 273.203 41.508V45.508C273.58 45.508 273.901 45.5569 274.177 45.6397L275.326 41.8083ZM273.203 41.508C272.487 41.508 271.777 41.6342 271.106 41.9277L272.709 45.5923C272.806 45.5498 272.96 45.508 273.203 45.508V41.508ZM271.205 41.8873C270.542 42.1362 269.949 42.5249 269.461 43.0565L272.41 45.7594C272.45 45.7151 272.505 45.6718 272.61 45.6327L271.205 41.8873ZM269.461 43.0566C268.997 43.5634 268.661 44.1518 268.437 44.7864L272.209 46.1176C272.273 45.9362 272.346 45.8286 272.41 45.7594L269.461 43.0566ZM268.451 44.7498C268.202 45.4125 268.107 46.1178 268.107 46.82H272.107C272.107 46.4662 272.157 46.2595 272.196 46.1542L268.451 44.7498ZM268.107 46.82V56H272.107V46.82H268.107ZM270.107 54H263.375V58H270.107V54ZM282.655 64.28L280.813 63.4995L279.635 66.28H282.655V64.28ZM287.263 53.408L289.262 53.3592L285.421 52.6275L287.263 53.408ZM287.335 56.36L285.522 57.2047L289.334 56.3112L287.335 56.36ZM278.227 36.812V34.812H275.089L276.414 37.6567L278.227 36.812ZM285.715 36.812L287.559 36.0378L287.044 34.812H285.715V36.812ZM288.919 44.444L287.075 45.2182L287.081 45.2339L287.088 45.2495L288.919 44.444ZM289.603 46.244L287.698 46.8535L287.713 46.9003L287.73 46.9462L289.603 46.244ZM290.071 47.9L291.283 49.4909L292.258 48.7481L292.039 47.5422L290.071 47.9ZM289.315 48.476L287.403 47.8878L285.571 53.8428L290.527 50.0669L289.315 48.476ZM289.747 47.18L291.636 47.837V47.837L289.747 47.18ZM290.395 45.272L288.504 44.6203L288.501 44.6299L288.497 44.6395L290.395 45.272ZM293.311 36.812V34.812H291.885L291.42 36.1603L293.311 36.812ZM300.835 36.812L302.67 37.6073L303.881 34.812H300.835V36.812ZM292.519 56L290.684 55.2047L290.674 55.2274L290.665 55.2503L292.519 56ZM289.171 64.28V66.28H290.52L291.025 65.0297L289.171 64.28ZM284.496 65.0605L289.104 54.1885L285.421 52.6275L280.813 63.4995L284.496 65.0605ZM285.263 53.4568L285.335 56.4088L289.334 56.3112L289.262 53.3592L285.263 53.4568ZM289.148 55.5153L280.04 35.9673L276.414 37.6567L285.522 57.2047L289.148 55.5153ZM278.227 38.812H285.715V34.812H278.227V38.812ZM283.871 37.5862L287.075 45.2182L290.763 43.6698L287.559 36.0378L283.871 37.5862ZM287.088 45.2495C287.325 45.7881 287.528 46.3227 287.698 46.8535L291.508 45.6344C291.294 44.9653 291.041 44.2999 290.75 43.6385L287.088 45.2495ZM287.73 46.9462C287.91 47.4263 288.031 47.8628 288.103 48.2578L292.039 47.5422C291.918 46.8812 291.728 46.2137 291.476 45.5418L287.73 46.9462ZM288.859 46.3091L288.103 46.8851L290.527 50.0669L291.283 49.4909L288.859 46.3091ZM291.226 49.0642C291.312 48.7865 291.447 48.381 291.636 47.837L287.858 46.523C287.663 47.083 287.51 47.5415 287.403 47.8878L291.226 49.0642ZM291.636 47.837C291.831 47.2749 292.05 46.6304 292.292 45.9045L288.497 44.6395C288.259 45.3536 288.046 45.9811 287.858 46.523L291.636 47.837ZM292.286 45.9237L295.202 37.4637L291.42 36.1603L288.504 44.6203L292.286 45.9237ZM293.311 38.812H300.835V34.812H293.311V38.812ZM299 36.0167L290.684 55.2047L294.354 56.7953L302.67 37.6073L299 36.0167ZM290.665 55.2503L287.317 63.5303L291.025 65.0297L294.373 56.7497L290.665 55.2503ZM289.171 62.28H282.655V66.28H289.171V62.28Z" fill="#191919" mask="url(#path-3-outside-1_122_187)"/>
</g>
</g>
<defs>
<filter id="filter0_d_122_187" x="0" y="0" width="325" height="88" filterUnits="userSpaceOnUse" color-interpolation-filters="sRGB">
<feFlood flood-opacity="0" result="BackgroundImageFix"/>
<feColorMatrix in="SourceAlpha" type="matrix" values="0 0 0 0 0 0 0 0 0 0 0 0 0 0 0 0 0 0 127 0" result="hardAlpha"/>
<feOffset dx="3" dy="3"/>
<feComposite in2="hardAlpha" operator="out"/>
<feColorMatrix type="matrix" values="0 0 0 0 0.0980392 0 0 0 0 0.0980392 0 0 0 0 0.0980392 0 0 0 1 0"/>
<feBlend mode="normal" in2="BackgroundImageFix" result="effect1_dropShadow_122_187"/>
<feBlend mode="normal" in="SourceGraphic" in2="effect1_dropShadow_122_187" result="shape"/>
</filter>
<filter id="filter1_d_122_187" x="20.988" y="24.6599" width="285.393" height="44.1201" filterUnits="userSpaceOnUse" color-interpolation-filters="sRGB">
<feFlood flood-opacity="0" result="BackgroundImageFix"/>
<feColorMatrix in="SourceAlpha" type="matrix" values="0 0 0 0 0 0 0 0 0 0 0 0 0 0 0 0 0 0 127 0" result="hardAlpha"/>
<feOffset dx="2.5" dy="2.5"/>
<feColorMatrix type="matrix" values="0 0 0 0 0.0980392 0 0 0 0 0.0980392 0 0 0 0 0.0980392 0 0 0 1 0"/>
<feBlend mode="normal" in2="BackgroundImageFix" result="effect1_dropShadow_122_187"/>
<feBlend mode="normal" in="SourceGraphic" in2="effect1_dropShadow_122_187" result="shape"/>
</filter>
</defs>
</svg>
