<svg width="70" height="70" viewBox="0 0 70 70" fill="none" xmlns="http://www.w3.org/2000/svg">
<g clip-path="url(#clip0_92_154)">
<path d="M59.5 0H10.5C4.70101 0 0 4.70101 0 10.5V59.5C0 65.299 4.70101 70 10.5 70H59.5C65.299 70 70 65.299 70 59.5V10.5C70 4.70101 65.299 0 59.5 0Z" fill="#3178C6"/>
<path d="M31.8555 38.828H40.6055V33.2226H16.1328V38.828H24.8828V63.8476H31.8555V38.828ZM43.3398 62.4804C44.4473 63.0546 45.8008 63.4784 47.3047 63.7655C48.8086 64.0526 50.4492 64.1894 52.0898 64.1894C53.7305 64.1894 55.2344 64.039 56.7383 63.7245C58.2422 63.4101 59.4727 62.8905 60.5664 62.2206C61.6738 61.496 62.6172 60.58 63.1641 59.3495C63.7109 58.119 64.1348 56.7519 64.1348 54.9745C64.1348 53.7304 63.9434 52.6503 63.5742 51.6933C63.2051 50.7362 62.6719 49.9159 61.9336 49.2323C61.2363 48.5077 60.4297 47.8651 59.4727 47.3183C58.5156 46.7714 57.4219 46.1972 56.1914 45.6776C55.2891 45.3085 54.5508 44.953 53.7305 44.5976C53.0195 44.2421 52.4043 43.8866 51.9531 43.5312C51.4473 43.162 51.0645 42.7792 50.791 42.3827C50.5176 41.9726 50.3809 41.5214 50.3809 41.0155C50.3809 40.5507 50.5025 40.1269 50.75 39.744C50.9975 39.3612 51.3379 39.0468 51.7754 38.7733C52.2129 38.4999 52.7598 38.2948 53.416 38.1444C54.0586 37.994 54.7695 37.9257 55.6035 37.9257C56.1777 37.9257 56.7793 37.9681 57.3809 38.0542C58.0098 38.1403 58.6523 38.2729 59.2949 38.4507C59.9375 38.6284 60.5664 38.8472 61.209 39.1206C61.8105 39.394 62.3711 39.7085 62.8496 40.064V33.6382C61.8105 33.2417 60.6621 32.9409 59.4316 32.7495C58.2012 32.5581 56.834 32.4624 55.1934 32.4624C53.5527 32.4624 52.0488 32.6401 50.5449 32.9819C49.041 33.3237 47.8105 33.8706 46.7168 34.6226C45.6094 35.3608 44.8027 36.2632 44.1191 37.4937C43.4766 38.6421 43.1621 39.9546 43.1621 41.5952C43.1621 43.646 43.75 45.4233 44.9395 46.7905C46.1152 48.2944 47.9473 49.3882 50.2715 50.4819C51.2148 50.8647 52.0488 51.2476 52.8691 51.6167C53.6895 51.9858 54.373 52.3687 54.9199 52.7651C55.5078 53.1616 55.9727 53.5991 56.2871 54.064C56.6289 54.5288 56.8066 55.0757 56.8066 55.7046C56.8066 56.1421 56.7 56.5522 56.4922 56.9351C56.2844 57.3179 55.959 57.646 55.5215 57.9194C55.084 58.1929 54.5508 58.4116 53.8809 58.5757C53.2383 58.7261 52.5137 58.8081 51.5566 58.8081C50.0527 58.8081 48.5488 58.5483 47.1816 58.0288C45.6777 57.5093 44.3105 56.73 43.3398 55.9179V62.4804Z" fill="white"/>
</g>
<defs>
<clipPath id="clip0_92_154">
<rect width="70" height="70" fill="white"/>
</clipPath>
</defs>
</svg>
