<svg width="76" height="58" viewBox="0 0 76 58" fill="none" xmlns="http://www.w3.org/2000/svg">
<path d="M13 7.125V38.375H28.625V25.875C28.625 24.2174 29.2835 22.6277 30.4556 21.4556C31.6277 20.2835 33.2174 19.625 34.875 19.625H50.5C52.1576 19.625 53.7473 20.2835 54.9194 21.4556C56.0915 22.6277 56.75 24.2174 56.75 25.875V38.375H63V7.125H13ZM0.5 50.875V44.625H13C11.3424 44.625 9.75268 43.9665 8.58058 42.7944C7.40848 41.6223 6.75 40.0326 6.75 38.375V7.125C6.75 5.4674 7.40848 3.87768 8.58058 2.70558C9.75268 1.53348 11.3424 0.875 13 0.875H63C64.6576 0.875 66.2473 1.53348 67.4194 2.70558C68.5915 3.87768 69.25 5.4674 69.25 7.125V38.375C69.25 40.0326 68.5915 41.6223 67.4194 42.7944C66.2473 43.9665 64.6576 44.625 63 44.625H75.5V50.875H56.75C56.75 52.5326 56.0915 54.1223 54.9194 55.2944C53.7473 56.4665 52.1576 57.125 50.5 57.125H34.875C33.2174 57.125 31.6277 56.4665 30.4556 55.2944C29.2835 54.1223 28.625 52.5326 28.625 50.875H0.5ZM36.4375 50.875C36.0231 50.875 35.6257 51.0396 35.3326 51.3326C35.0396 51.6257 34.875 52.0231 34.875 52.4375C34.875 52.8519 35.0396 53.2493 35.3326 53.5424C35.6257 53.8354 36.0231 54 36.4375 54C36.8519 54 37.2493 53.8354 37.5424 53.5424C37.8354 53.2493 38 52.8519 38 52.4375C38 52.0231 37.8354 51.6257 37.5424 51.3326C37.2493 51.0396 36.8519 50.875 36.4375 50.875ZM48.9375 50.875C48.5231 50.875 48.1257 51.0396 47.8326 51.3326C47.5396 51.6257 47.375 52.0231 47.375 52.4375C47.375 52.8519 47.5396 53.2493 47.8326 53.5424C48.1257 53.8354 48.5231 54 48.9375 54C49.3519 54 49.7493 53.8354 50.0424 53.5424C50.3354 53.2493 50.5 52.8519 50.5 52.4375C50.5 52.0231 50.3354 51.6257 50.0424 51.3326C49.7493 51.0396 49.3519 50.875 48.9375 50.875ZM41.125 50.875V54H44.25V50.875H41.125ZM34.875 25.875V47.75H50.5V25.875H34.875Z" fill="#191919"/>
</svg>
