<svg width="76" height="76" viewBox="0 0 76 76" fill="none" xmlns="http://www.w3.org/2000/svg">
<path d="M6.75 22.375V16.125C6.75 14.4062 7.3625 12.9354 8.5875 11.7125C9.8125 10.4896 11.2833 9.87708 13 9.875H63C64.7188 9.875 66.1906 10.4875 67.4156 11.7125C68.6406 12.9375 69.2521 14.4083 69.25 16.125V22.375H63V16.125H13V22.375H6.75ZM25.5 66.125V59.875H13C11.2813 59.875 9.81042 59.2635 8.5875 58.0406C7.36458 56.8177 6.75208 55.3458 6.75 53.625V47.375H13V53.625H63V47.375H69.25V53.625C69.25 55.3438 68.6386 56.8156 67.4156 58.0406C66.1927 59.2656 64.7208 59.8771 63 59.875H50.5V66.125H25.5ZM15.5 34.875L23.625 26.75L19.25 22.375L6.75 34.875L19.25 47.375L23.625 43L15.5 34.875ZM60.5 34.875L52.375 43L56.75 47.375L69.25 34.875L56.75 22.375L52.375 26.75L60.5 34.875Z" fill="#191919"/>
</svg>
